<?xml version="1.0" encoding="UTF-8"?>
<svg id="Layer_1" data-name="Layer 1" xmlns="http://www.w3.org/2000/svg" xmlns:xlink="http://www.w3.org/1999/xlink" viewBox="0 0 1440 1024">
  <defs>
    <style>
      .cls-1 {
        fill: url(#linear-gradient);
      }

      .cls-2 {
        fill: #fff;
      }

      .cls-3 {
        fill: #96bafd;
      }

      .cls-4 {
        fill: #93523e;
      }

      .cls-5 {
        fill: #9bb8ff;
      }

      .cls-6 {
        fill: #bc775c;
      }

      .cls-7 {
        fill: #080b09;
      }

      .cls-8 {
        fill: #1c85e8;
      }

      .cls-9 {
        fill: #465393;
      }

      .cls-10 {
        fill: #5661ae;
      }

      .cls-11 {
        stroke: #93523e;
        stroke-linejoin: round;
        stroke-width: 1.21px;
      }

      .cls-11, .cls-12, .cls-13, .cls-14 {
        fill: none;
      }

      .cls-11, .cls-12, .cls-14 {
        stroke-linecap: round;
      }

      .cls-12, .cls-13, .cls-14 {
        stroke-miterlimit: 10;
        stroke-width: 16.52px;
      }

      .cls-12, .cls-14 {
        stroke: #fff;
      }

      .cls-13 {
        stroke: #45e591;
      }

      .cls-15 {
        fill: url(#linear-gradient-3);
      }

      .cls-16 {
        fill: url(#linear-gradient-2);
      }

      .cls-14 {
        isolation: isolate;
        opacity: .7;
      }
    </style>
    <linearGradient id="linear-gradient" x1="431.26" y1="-2022.07" x2="432.67" y2="-2057.4" gradientTransform="translate(262 -1594.99) scale(1 -1)" gradientUnits="userSpaceOnUse">
      <stop offset="0" stop-color="#fff"/>
      <stop offset="1" stop-color="#94b9ff"/>
    </linearGradient>
    <linearGradient id="linear-gradient-2" x1="398.46" y1="-2030.92" x2="451.35" y2="-2369.96" xlink:href="#linear-gradient"/>
    <linearGradient id="linear-gradient-3" x1="462.42" y1="-2038.64" x2="477.9" y2="-2188.65" xlink:href="#linear-gradient"/>
  </defs>
  <path class="cls-10" d="M508.5,738.95l-15.28,98.12-5.82-.91c-1.96-.31-3.72-1.38-4.9-2.98-1.17-1.6-1.66-3.61-1.35-5.57l12.98-83.32c.3-1.96,1.38-3.72,2.98-4.9s3.61-1.66,5.57-1.35l5.82,.91Z"/>
  <path class="cls-6" d="M556.25,755.46l-23.89-7.15-7.59,33.28,26.14,8.21,5.35-34.34Z"/>
  <path class="cls-4" d="M539.82,786.32l-4.42-1.39,10.85-32.47,4.03,1.21-10.47,32.65Z"/>
  <path class="cls-8" d="M535.39,748.78s-9.36,16.26-4.2,34.83l-32.15,52.57c-2.8,2.04-7.04,.83-9.4-.43-.52-.28-.93-.71-1.19-1.24-.26-.53-.35-1.12-.26-1.7l13.87-89.07c.23-1.49,1.04-2.82,2.24-3.72,1.21-.9,2.72-1.29,4.21-1.09,5.96,.81,15.04,2.12,18.61,3.03,5.52,1.42,8.43,3.42,8.28,6.8Z"/>
  <path class="cls-2" d="M524.78,794.78l-4.72-7.53c-.17-.28-.41-.5-.69-.67-.28-.16-.6-.25-.92-.26-.32-.01-.65,.06-.94,.2-.29,.14-.54,.36-.73,.62-.23,.32-.36,.71-.37,1.11-.01,.4,.1,.79,.32,1.12l5.89,9.15,2.17-3.74Z"/>
  <path class="cls-2" d="M519.43,802.84l-4.68-7.51c-.17-.27-.41-.5-.69-.66-.28-.16-.6-.25-.92-.26-.32,0-.65,.06-.94,.2-.29,.14-.54,.36-.73,.62-.23,.32-.36,.71-.37,1.11-.01,.4,.1,.79,.32,1.12l5.77,9.07,2.25-3.68Z"/>
  <path class="cls-2" d="M513.88,811.91l-4.59-7.46c-.17-.27-.41-.5-.69-.66-.28-.16-.6-.25-.92-.26-.32-.01-.65,.06-.94,.2-.29,.14-.54,.36-.73,.62-.23,.32-.36,.71-.37,1.11-.01,.4,.1,.79,.32,1.12l5.74,8.91,2.19-3.58Z"/>
  <path class="cls-10" d="M771.14,824.42h99.3v5.89c0,.98-.19,1.96-.57,2.87-.38,.91-.93,1.73-1.62,2.43-.7,.7-1.52,1.25-2.43,1.62-.91,.38-1.88,.57-2.87,.57h-84.32c-1.99,0-3.89-.79-5.3-2.19-1.4-1.4-2.19-3.31-2.19-5.3v-5.89Z"/>
  <path class="cls-6" d="M780.11,774.7l-3.39,24.7,34.06,2.38,4.09-27.09h-34.76Z"/>
  <path class="cls-4" d="M814.51,777.04l-.87,5.78-34.97,2.4,1.12-8.18h34.72Z"/>
  <path class="cls-8" d="M776.72,796.34s17.51,6.75,35.06-1.21l56.89,23.68c2.45,2.45,1.91,6.83,1.03,9.36-.2,.55-.56,1.03-1.04,1.37-.48,.34-1.05,.52-1.64,.51h-90.14c-1.51,0-2.95-.59-4.02-1.64-1.08-1.05-1.69-2.48-1.72-3.99-.12-6.02-.22-15.19,.13-18.86,.55-5.67,2.08-8.85,5.45-9.23Z"/>
  <path class="cls-2" d="M823.8,799.75l-6.71,5.82c-.24,.21-.43,.48-.55,.79-.12,.3-.16,.63-.12,.95,.04,.32,.16,.63,.34,.9,.19,.27,.43,.48,.73,.63,.35,.18,.76,.25,1.15,.2,.39-.05,.77-.22,1.06-.48l8.13-7.23-4.03-1.57Z"/>
  <path class="cls-2" d="M832.6,803.8l-6.7,5.78c-.24,.21-.43,.48-.55,.78-.12,.3-.16,.63-.12,.95,.04,.32,.16,.63,.34,.9,.19,.27,.43,.48,.72,.63,.35,.18,.76,.25,1.15,.2,.39-.05,.76-.22,1.06-.48l8.07-7.09-3.98-1.66Z"/>
  <path class="cls-2" d="M842.41,807.88l-6.66,5.68c-.24,.21-.43,.48-.55,.79-.12,.3-.16,.63-.12,.95,.04,.32,.16,.63,.34,.9,.19,.27,.43,.48,.72,.63,.35,.18,.76,.25,1.15,.2,.39-.05,.76-.22,1.06-.48l7.93-7.04-3.88-1.61Z"/>
  <path class="cls-6" d="M721.62,450.92l20.58-40.52s-12.53,1.64-14.71-6.14c-2.18-7.78,59.21-14.73,59.21-14.73,0,0-4.91,17.19-12.28,19.24l-20.26,59.35-32.54-17.19Z"/>
  <path class="cls-4" d="M724.69,444.89l32.15,15.4-2.67,7.83-31.24-19.75,1.77-3.48Z"/>
  <path class="cls-5" d="M920.69,234.07l-295.92,48.44c-5.08,.83-8.52,5.62-7.69,10.7l19.32,118.04c.83,5.08,5.62,8.52,10.7,7.69l295.92-48.44c5.08-.83,8.52-5.62,7.69-10.7l-19.32-118.04c-.83-5.08-5.62-8.52-10.7-7.69Z"/>
  <path class="cls-12" d="M769.47,308.08l120.26-19.69"/>
  <path class="cls-14" d="M778.01,344.6l78.45-12.84"/>
  <path class="cls-13" d="M697.58,388.63c23.49,0,42.53-19.04,42.53-42.53s-19.04-42.53-42.53-42.53-42.53,19.04-42.53,42.53,19.04,42.53,42.53,42.53Z"/>
  <path class="cls-12" d="M739.56,339.22c1.36,8.3,.23,16.82-3.26,24.48-3.48,7.66-9.16,14.11-16.31,18.54-7.15,4.43-15.45,6.64-23.86,6.36-8.41-.29-16.54-3.06-23.37-7.97-6.83-4.91-12.05-11.73-15.01-19.61-2.95-7.88-3.5-16.45-1.58-24.64,1.92-8.19,6.23-15.63,12.38-21.37,6.15-5.74,13.86-9.53,22.16-10.89"/>
  <path class="cls-10" d="M711.44,664.59l12.28,138.93c0,29.78-30.39,33.17-40.11,29.66-13.72-4.95-146.62-38.78-146.62-38.78l14.08-43.14,102,14.18s-2.79-28.94-30.14-117.33l88.52,16.48Z"/>
  <path class="cls-9" d="M632.04,678.73l82.7,23.22-4.65-55.79-87.17,1.95,9.11,30.61Z"/>
  <path class="cls-6" d="M710.24,360.2s16.38,18.59,21.25,26.12c4.87,7.52,5.04,22.28-5.14,26.05-10.18,3.76-18.51,4.39-33.37,1.62-11.57-2.16-26.56-21.25-22.13-30.99,4.43-9.74,25.01-27.44,39.4-22.8Z"/>
  <path class="cls-6" d="M713.34,412.21l-2.43,31.43-35.63-7.75,15.94-29.66,22.13,5.98Z"/>
  <path class="cls-4" d="M713.34,415.48h-9.69l8.29,14.8"/>
  <path class="cls-1" d="M671.29,433.9l5.32-5.15c.69-.67,1.54-1.15,2.46-1.41,.93-.26,1.9-.27,2.84-.05l29.14,6.9c.7,.17,1.35,.51,1.88,1,.53,.49,.92,1.11,1.14,1.8l2.11,6.65-44.87-9.74Z"/>
  <path class="cls-10" d="M625.14,592.8l-5.21,25.27c-5.87,38.55,21.77,64.05,64,57.1,37.72-6.21,149.46-49.53,149.46-49.53l-4.45-68.56-93.94,15.5s-84.43-15.64-109.86,20.23Z"/>
  <path class="cls-10" d="M835.93,617.03c16.78,0,30.39-13.6,30.39-30.39s-13.61-30.39-30.39-30.39-30.39,13.6-30.39,30.39,13.6,30.39,30.39,30.39Z"/>
  <path class="cls-10" d="M835.93,617.03c16.78,0,30.39-13.6,30.39-30.39s-13.61-30.39-30.39-30.39-30.39,13.6-30.39,30.39,13.6,30.39,30.39,30.39Z"/>
  <path class="cls-10" d="M693.33,834.79c16.78,0,30.39-13.6,30.39-30.39s-13.6-30.39-30.39-30.39-30.39,13.61-30.39,30.39,13.61,30.39,30.39,30.39Z"/>
  <path class="cls-10" d="M864.84,595.42l-42.72,181.62h-51.09l34.52-190.4,59.29,8.78Z"/>
  <path class="cls-9" d="M735,572.57l-112.51,35.01,2.65-14.79,109.86-20.23Z"/>
  <path class="cls-6" d="M760.25,469.97l11.18,8.13,37.33-61.27s-4.97-20.07-5.31-23.49l12.15-1.73s9.84-18.54,12.64-22.21c2.8-3.67,6.04-3.02,7.77,0,0,0,5.39,.86,6.26,8.2,0,0,4.75,1.08,6.69,10.57,0,0,4.1,4.31,3.24,9.06-.86,4.75-11.65,23.35-13.38,25.26-1.33,1.56-2.55,3.21-3.67,4.94l-35.95,86.15s-8.78,18.84-29.37,11.7l-25.52-11.83c-11.72-7.59,15.96-43.48,15.96-43.48Z"/>
  <path class="cls-6" d="M779.06,527.51c11.87,0,21.49-9.62,21.49-21.49s-9.62-21.49-21.49-21.49-21.49,9.62-21.49,21.49,9.62,21.49,21.49,21.49Z"/>
  <path class="cls-9" d="M689,375.69s21.03-7.08,25.23-21.91c4.21-14.83-4.65-22.58-16.16-15.05,0,0-8.19-13.06-22.13-3.98-13.94,9.07-11.29,30.54-10.85,34.75,0,0-15.71,11.07-8.19,28.55,7.53,17.48,28.17,21.69,28.17,21.69,2.28-3.27,3.91-6.96,4.8-10.84,0,0-11.38-8.63-4.8-17.04,6.57-8.41,14.1,5.09,14.1,5.09,0,0,5.75-19.03-10.18-21.25Z"/>
  <path class="cls-16" d="M671.29,433.9s-14.6,7.26-17.9,15.07c-3.05,7.22-24.31,102.08-30.82,140.27-.15,.91-.09,1.84,.2,2.71,.29,.87,.79,1.66,1.45,2.29,.66,.64,1.47,1.1,2.36,1.35,.89,.25,1.82,.28,2.71,.08l105.7-23.1s-5.17-55.56-3.36-71.86c1.81-16.3-15.48-57.07-15.48-57.07l-44.87-9.74Z"/>
  <path class="cls-3" d="M731.27,508.4l-26.65-15.84,27.73,45.61-1.08-29.78Z"/>
  <path class="cls-4" d="M771.43,478.1l7.76,5.41,7.51-30.47-15.27,25.07Z"/>
  <path class="cls-15" d="M716.16,443.64s42.42,23.19,47.56,26.99c.67,.49,1.14,1.21,1.33,2.02,.19,.81,.08,1.66-.3,2.39l-19.48,37.4c-.22,.42-.52,.79-.89,1.09-.37,.3-.79,.52-1.25,.65-.46,.13-.93,.17-1.4,.1-.47-.06-.92-.22-1.33-.46l-49.44-29.38s-2.63-39.11,25.2-40.8Z"/>
  <path class="cls-7" d="M710.75,388.09c1.02-.76,.9-2.63-.26-4.18-1.16-1.55-2.92-2.19-3.94-1.43-1.02,.76-.9,2.63,.26,4.18,1.16,1.55,2.92,2.19,3.94,1.43Z"/>
  <path class="cls-7" d="M724.69,377.54c1.02-.76,.9-2.63-.26-4.18-1.16-1.55-2.92-2.19-3.94-1.43-1.02,.76-.9,2.63,.26,4.18,1.16,1.55,2.92,2.19,3.94,1.43Z"/>
  <path class="cls-11" d="M719.05,380.43s-.24,4.59,2.57,3.38c2.64-1.25,4.9-.39,3.25,3.09"/>
  <path class="cls-2" d="M725.79,390.18c-1.6,.87-4.79,2.6-6.9,3.8-.13,.07-.23,.17-.3,.3-.07,.13-.11,.27-.1,.42,0,.15,.05,.29,.12,.41,.08,.12,.19,.22,.32,.29,2.95,1.28,9.28,3.13,7.95-4.61,0-.13-.04-.25-.1-.36-.07-.11-.16-.2-.27-.26-.11-.06-.24-.09-.36-.09-.13,0-.25,.04-.36,.11Z"/>
  <path class="cls-7" d="M698.76,383.5l.3,.24c.4,.39,.94,.61,1.5,.6,.56,0,1.09-.23,1.49-.63l6.57-7.02c.33-.33,.53-.77,.55-1.23,.02-.46-.13-.92-.43-1.28-.17-.23-.39-.42-.64-.56-.25-.14-.53-.22-.81-.24-.28-.02-.57,.01-.84,.11-.27,.1-.51,.25-.72,.45l-6.86,6.78c-.19,.17-.35,.38-.46,.62-.11,.24-.17,.49-.18,.75,0,.26,.03,.52,.13,.76,.09,.24,.23,.46,.41,.65Z"/>
  <path class="cls-7" d="M722.64,363.57l-9.03,3.39c-.27,.1-.51,.26-.71,.47-.2,.2-.35,.45-.45,.72-.1,.27-.14,.55-.12,.84,.02,.29,.1,.56,.24,.81,.2,.42,.55,.75,.98,.93,.43,.17,.91,.18,1.35,.01l9.13-3.02c.53-.19,.96-.58,1.2-1.09,.24-.51,.27-1.08,.08-1.61l-.09-.37c-.09-.24-.24-.46-.42-.65-.18-.19-.4-.33-.64-.43-.24-.1-.5-.15-.76-.15-.26,0-.52,.05-.76,.16Z"/>
</svg>