<?xml version="1.0" encoding="UTF-8"?>
<svg id="Layer_1" data-name="Layer 1" xmlns="http://www.w3.org/2000/svg" xmlns:xlink="http://www.w3.org/1999/xlink" viewBox="0 0 1440 1024">
  <defs>
    <style>
      .cls-1, .cls-2, .cls-3, .cls-4, .cls-5, .cls-6, .cls-7, .cls-8 {
        fill: none;
      }

      .cls-2 {
        stroke: #d4dcf4;
      }

      .cls-2, .cls-3 {
        stroke-width: 12px;
      }

      .cls-2, .cls-3, .cls-4, .cls-5, .cls-6, .cls-7, .cls-9, .cls-8 {
        stroke-linecap: round;
      }

      .cls-2, .cls-3, .cls-5, .cls-6, .cls-7, .cls-9 {
        stroke-miterlimit: 10;
      }

      .cls-3 {
        stroke: #5661ae;
      }

      .cls-4 {
        stroke-linejoin: round;
        stroke-width: 3.72px;
      }

      .cls-4, .cls-5, .cls-6, .cls-7, .cls-9 {
        stroke: #fff;
      }

      .cls-10 {
        fill: url(#linear-gradient);
      }

      .cls-11 {
        clip-path: url(#clippath);
      }

      .cls-12 {
        fill: #f5f8ff;
      }

      .cls-13 {
        fill: #e7efff;
      }

      .cls-14, .cls-15 {
        fill: #fff;
      }

      .cls-16 {
        fill: #96bafd;
      }

      .cls-17 {
        fill: #9bb8ff;
      }

      .cls-18 {
        fill: #bc775c;
      }

      .cls-19 {
        fill: #d1e8f7;
      }

      .cls-20 {
        fill: #1f2d49;
      }

      .cls-21 {
        fill: #080b09;
      }

      .cls-22 {
        fill: #1c85e8;
      }

      .cls-23 {
        fill: #0d1b33;
      }

      .cls-24 {
        fill: #465393;
      }

      .cls-25 {
        fill: #5661ae;
      }

      .cls-26 {
        fill: #493212;
      }

      .cls-27 {
        fill: #5ca4e6;
      }

      .cls-5, .cls-28, .cls-15, .cls-9 {
        isolation: isolate;
      }

      .cls-5, .cls-15, .cls-9 {
        opacity: .4;
      }

      .cls-5, .cls-6, .cls-9 {
        stroke-width: 10.08px;
      }

      .cls-28 {
        fill: #39bf00;
        opacity: .7;
      }

      .cls-29 {
        fill: #93523e;
      }

      .cls-29, .cls-8 {
        stroke: #93523e;
      }

      .cls-30 {
        fill: url(#linear-gradient-3);
      }

      .cls-31 {
        fill: url(#linear-gradient-2);
      }

      .cls-7 {
        stroke-width: 6.36px;
      }

      .cls-9 {
        fill: #3a8800;
      }

      .cls-8 {
        stroke-width: 1.08px;
      }
    </style>
    <clipPath id="clippath">
      <rect class="cls-1" x="152.52" y="100.98" width="1064.21" height="848.22"/>
    </clipPath>
    <linearGradient id="linear-gradient" x1="304.22" y1="-1695.15" x2="358.56" y2="-2436.8" gradientTransform="translate(262 -1594.99) scale(1 -1)" gradientUnits="userSpaceOnUse">
      <stop offset="0" stop-color="#fff"/>
      <stop offset="1" stop-color="#94b9ff"/>
    </linearGradient>
    <linearGradient id="linear-gradient-2" x1="337.89" y1="382.32" x2="479.79" y2="382.32" gradientTransform="matrix(1, 0, 0, 1, 0, 0)" xlink:href="#linear-gradient"/>
    <linearGradient id="linear-gradient-3" x1="430.37" y1="-2170.82" x2="430.44" y2="-2205.66" xlink:href="#linear-gradient"/>
  </defs>
  <g class="cls-11">
    <g>
      <path class="cls-12" d="M684.62,949.21c293.88,0,532.11-6.09,532.11-13.59s-238.23-13.59-532.11-13.59-532.1,6.09-532.1,13.59,238.23,13.59,532.1,13.59Z"/>
      <path class="cls-10" d="M823.1,100.98H334.94c-7.25,0-13.13,5.88-13.13,13.13V435.44c0,7.25,5.88,13.13,13.13,13.13h488.16c7.25,0,13.13-5.88,13.13-13.13V114.11c0-7.25-5.88-13.13-13.13-13.13Z"/>
      <path class="cls-20" d="M812.15,327.37h-90.96c-3.37,0-6.11,2.73-6.11,6.11v98.71c0,3.37,2.73,6.11,6.11,6.11h90.96c3.37,0,6.11-2.73,6.11-6.11v-98.71c0-3.37-2.73-6.11-6.11-6.11Z"/>
      <path class="cls-31" d="M474.62,326.33h-131.56c-2.86,0-5.17,2.32-5.17,5.17v101.62c0,2.86,2.32,5.17,5.17,5.17h131.56c2.86,0,5.17-2.32,5.17-5.17v-101.62c0-2.86-2.32-5.17-5.17-5.17Z"/>
      <path class="cls-14" d="M698.8,326.33h-202.08c-3.51,0-6.36,2.85-6.36,6.36v99.24c0,3.52,2.85,6.36,6.36,6.36h202.08c3.52,0,6.36-2.85,6.36-6.36v-99.24c0-3.52-2.85-6.36-6.36-6.36Z"/>
      <path class="cls-22" d="M810.09,146.38h-182.98c-4.51,0-8.17,3.66-8.17,8.17v153.63c0,4.51,3.66,8.17,8.17,8.17h182.98c4.51,0,8.17-3.66,8.17-8.17V154.55c0-4.51-3.66-8.17-8.17-8.17Z"/>
      <path class="cls-19" d="M415.38,592.15l-93.57,335.9h19.06l108.15-335.9h-33.64Z"/>
      <path class="cls-27" d="M415.38,592.15l-6.87,24.66,35.85-10.18,4.66-14.48h-33.64Z"/>
      <path class="cls-25" d="M1080.26,859.6l-50.69,67.39c-1.19,1.59-2.97,2.64-4.93,2.91-1.97,.28-3.97-.24-5.55-1.43l-4.71-3.54,59.69-79.36,4.71,3.54c1.59,1.19,2.63,2.97,2.91,4.94,.28,1.97-.23,3.96-1.43,5.55Z"/>
      <path class="cls-18" d="M1032.45,820.14l18.27,14.85-18.56,28.65-20.61-15.73,20.9-27.77Z"/>
      <path class="cls-29" d="M1040.56,827.38l-22.76,24.83-5.54-4.37,21.32-26.19,6.98,5.73Z"/>
      <path class="cls-22" d="M1048.27,833.15s-5.13,18.05-22.04,27.29l-15.27,59.7c.49,3.43,4.32,5.63,6.86,6.44,.56,.18,1.16,.17,1.72,0,.56-.18,1.04-.53,1.39-1l54.19-72.03c.9-1.2,1.3-2.71,1.11-4.2-.2-1.49-.97-2.85-2.16-3.77-4.73-3.71-12-9.31-15.14-11.23-4.87-2.97-8.33-3.66-10.66-1.19Z"/>
      <path class="cls-14" d="M1022.7,872.82l8.69-1.86c.32-.07,.65-.06,.96,.03,.31,.09,.59,.25,.83,.48,.23,.22,.41,.51,.51,.81,.1,.31,.12,.64,.06,.96-.07,.39-.25,.75-.53,1.04-.28,.28-.63,.48-1.02,.56l-10.67,2.15,1.17-4.17Z"/>
      <path class="cls-14" d="M1020.65,882.28l8.64-1.89c.32-.07,.65-.06,.96,.03,.31,.09,.6,.25,.83,.48,.24,.23,.41,.51,.51,.81,.1,.31,.12,.64,.07,.96-.07,.39-.26,.75-.54,1.04-.27,.28-.63,.48-1.02,.56l-10.52,2.18,1.07-4.17Z"/>
      <path class="cls-14" d="M1018.01,892.58l8.55-1.91c.32-.07,.65-.06,.96,.03s.6,.25,.83,.48c.23,.22,.41,.5,.51,.81s.12,.64,.06,.96c-.07,.39-.25,.75-.53,1.04-.28,.29-.63,.48-1.02,.56l-10.4,2.1,1.04-4.07Z"/>
      <path class="cls-20" d="M858.73,741.61l144.67,116.55,33-38.46-126.49-118.67-51.18,40.58Z"/>
      <path class="cls-23" d="M936.32,725.82v78.31l67.07,54.04,9.63-60.39-76.7-71.96Z"/>
      <path class="cls-20" d="M871.57,527.33l-23.78,189.63h66.49l57.75-188.68-100.46-.95Z"/>
      <path class="cls-23" d="M928.65,669.98l11.17-94.07h27.46l-38.62,94.07Z"/>
      <path class="cls-25" d="M988.34,931.3h-84.32c-1.99,0-3.89-.79-5.3-2.19-1.41-1.4-2.19-3.31-2.19-5.3v-5.89h99.3v5.89c0,1.99-.79,3.89-2.19,5.3-1.41,1.41-3.31,2.19-5.3,2.19Z"/>
      <path class="cls-18" d="M991.13,869.36l-.88,23.54-34.06,2.38,.18-25.92h34.76Z"/>
      <path class="cls-29" d="M990.23,880.2l-33.53-3.27,.16-7.05,33.75,1.29-.38,9.03Z"/>
      <path class="cls-22" d="M990.25,889.83s-17.51,6.75-35.06-1.21l-56.89,23.68c-2.45,2.45-1.9,6.83-1.03,9.35,.19,.55,.56,1.03,1.04,1.37,.48,.34,1.05,.52,1.64,.51h90.14c1.51,0,2.95-.59,4.03-1.64,1.07-1.05,1.69-2.48,1.72-3.99,.12-6.02,.22-15.19-.13-18.86-.55-5.67-2.09-8.85-5.45-9.23Z"/>
      <path class="cls-14" d="M943.16,893.24l6.71,5.82c.24,.21,.43,.48,.55,.78,.12,.3,.16,.63,.12,.95-.04,.32-.16,.63-.34,.9-.19,.27-.43,.48-.72,.63-.36,.18-.76,.25-1.15,.2-.4-.05-.77-.22-1.06-.48l-8.13-7.23,4.03-1.57Z"/>
      <path class="cls-14" d="M934.37,897.29l6.7,5.78c.24,.21,.43,.48,.55,.79,.12,.3,.16,.63,.12,.95-.04,.32-.16,.63-.35,.9-.19,.27-.43,.48-.72,.63-.35,.18-.76,.25-1.15,.2-.4-.05-.77-.22-1.06-.48l-8.07-7.1,3.98-1.66Z"/>
      <path class="cls-14" d="M924.56,901.38l6.66,5.68c.24,.21,.43,.48,.55,.79,.12,.3,.16,.63,.12,.95-.04,.32-.16,.63-.35,.89-.19,.27-.43,.48-.72,.63-.35,.18-.76,.25-1.15,.2-.4-.05-.77-.22-1.06-.48l-7.92-7.04,3.88-1.61Z"/>
      <path class="cls-20" d="M1012.37,528.28c-.55,9.62-.55,19.26,0,28.87,2.21,31.08-4.86,121.86-4.8,133.8,.05,11.95-7.81,180.18-7.81,180.18h-47.8s-12.22-144.58-12.5-161.13c-.28-16.55-3.13-181.04-3.13-181.04l76.04-.68Z"/>
      <path class="cls-23" d="M870.13,538.81l142.24,18.34v-28.87l-141.5,4.65-.74,5.88Z"/>
      <path class="cls-20" d="M881.03,750.2c18.36,0,33.24-14.88,33.24-33.24s-14.88-33.24-33.24-33.24-33.24,14.88-33.24,33.24,14.88,33.24,33.24,33.24Z"/>
      <path class="cls-30" d="M1128.77,575.91H256.01v16.24h872.76v-16.24Z"/>
      <path class="cls-18" d="M979.98,549.23s-6.39,12.07-7.95,13.46c-1.55,1.39-27.23,4.55-32.21,6.33-4.97,1.78-7.35,4.47-7.35,6.89h60.36s1.56-1.46,2.69-6.1c1.12-4.64,3.09-6.61,3.09-6.61l-18.64-13.98Z"/>
      <path class="cls-25" d="M893.21,359.03c3.97-19.6-5.37-19.09-8.47-22.21,0,0-11.66-9.61-20.54-.65-9.4,9.48-63.29,83.1-63.29,83.1l33.72,31.01,6.34-7.56,16.42-19.58,17.56-20.93,2.18-2.38,23.69-26.83s-9.85-3.64-7.6-13.96Z"/>
      <path class="cls-25" d="M907.31,362.37c4.54-13.57-2.77-28.26-16.34-32.8-13.57-4.55-28.26,2.77-32.8,16.34-4.55,13.57,2.77,28.26,16.34,32.8,13.57,4.55,28.26-2.77,32.8-16.34Z"/>
      <path class="cls-24" d="M876.81,399.72c.68-4.1,2.04-12.29,3.5-19.76l7.78-36.14s-20.89,30.88-30.52,52.39c-7.13,16.12-15.4,32.55-16.77,46.45l16.42-19.58,17.56-20.93,2.03-2.43Z"/>
      <path class="cls-18" d="M767.23,336.38c-8.01-14.61-4.16-17.09-7.57-25.41-3.36-8.11,2.6-28.23-3.1-25.48-5.71,2.74-7.47,10.03-7.47,10.03-3.9-6.91-7.5-19.61-16.84-21.07s-10.17,1.49-15.47,5.83c-14.09,11.73,3.88,29.35,6.88,36.05,1.93,4.21,16.11,17.03,17.68,19.83l7.14,10.35,18.77-10.14Z"/>
      <path class="cls-8" d="M739.7,296.43l-11.39-21.02"/>
      <path class="cls-8" d="M732.24,299.83l-12.41-19.58"/>
      <path class="cls-8" d="M723.38,303.6l-7.09-11.86"/>
      <path class="cls-8" d="M742.51,314.94c.06-7.28,4.43-16.09,4.43-16.09"/>
      <path class="cls-25" d="M834.91,418.68l-68.56-91.31c-.44-.54-1.06-.89-1.74-1-.68-.11-1.38,.04-1.96,.42l-17.95,11.87c-.85,.58-1.46,1.45-1.71,2.45-.24,1-.11,2.06,.38,2.96l55.14,101.68,36.41-27.09Z"/>
      <path class="cls-25" d="M818.25,457.25c12.68,0,22.96-10.28,22.96-22.96s-10.28-22.96-22.96-22.96-22.96,10.28-22.96,22.96,10.28,22.96,22.96,22.96Z"/>
      <path class="cls-14" d="M914.19,316.18s-33.48,10.65-40.08,13.41c-6.6,2.76-7.05,13.82-7.49,21.64-.31,5.49,5.88,95.55,6.29,147.71,.09,11.14-1.99,18.22-3.33,24.41-1.33,6.19,0,9.57,0,9.57l143.44,1.28s-4.3-181.24-5.18-187.68c-.88-6.45,6.04-12-1.46-15.24l-54.77-15.1h-37.42Z"/>
      <path class="cls-25" d="M896.19,322s5.47,25,9.05,45.01,4.67,185.64,4.67,185.64c0,0-41.92-8.15-47.59-17.78-5.68-9.63,5.26-52.9,6.11-92.21,.85-39.31-7.42-100.32,1.27-110.9,0,0,2.23-2.21,26.5-9.77Z"/>
      <path class="cls-25" d="M966.64,320.39s-19.89,41.44-18.67,54.07c1.22,12.63,1.29,120.33,0,142.82-.8,13.68-2.88,27.25-6.22,40.54,0,0,54.26,3.84,75.21-2.72,0,0,9.96-62.66,3.42-85.04-6.53-22.38-11.52-138.71-11.52-138.71l-42.22-10.95Z"/>
      <path class="cls-24" d="M981.32,376.07s2.03,75.1,1.61,100.13c-.26,15.6-18.1,22.2-18.15,31.24-.03,5.34,14.08-.91,17.89,4.61,3.8,5.52-2.7,22.83-2.7,22.83l33.06-.66,13.25-64.27-27.91-97.73-17.05,3.86Z"/>
      <path class="cls-18" d="M914.88,299.44l-3.1,35s-.83,5.44,8.61,7.16c7.5,1.37,23.08-7.44,26.59-10.35,7.82-6.45,8.54-10.35,7.71-13.34-1.18-4.28-5.05-34.46-5.05-34.46l-34.76,16Z"/>
      <path class="cls-29" d="M912.84,328.09l1.91-21.57,16.66-8.23-18.58,29.8Z"/>
      <path class="cls-18" d="M896.35,233.21s-6.38,28.59-7.23,48.07c-.86,19.65,6.16,23.39,14.87,24.85,6.86,1.16,17.54,1.24,24.26-2.11,12.24-6.11,32.35-20.96,34.98-23.83,4.08-4.46,3.8-24.34-11.76-29.26-11.32-3.58-40.17-33.94-55.11-17.72Z"/>
      <path class="cls-26" d="M896.42,236.26c9.28,3.64,26.76,1.25,36.35,4.36,9.58,3.12,.86,6.42,1.28,15.68,.27,6,.73,17.46,4.41,17.3,3.68-.15,5.85-13.17,13.61-12.67,7.76,.51,11.42,3.82,11.25,8.78-.17,4.95-5.74,9.27-10.14,11.56-5.51,2.85-7.78,1.66-7.78,1.66,0,0,6.2,22.82,7.13,21.92,0,0,6.68-3.77,7.89-10.38,0,0,8.87-1.92,6.91-10.79,0,0,5.52-1.77,2.9-6.91,0,0,14.28-9.6,6.84-21.35,0,0,6.77-6.76-1.32-9.61,0,0,10.72-15.66-4.53-19,0,0,1.02-7.37-5.96-7.09,0,0-3.05-12.68-18.28-7.68-.07-2.54-.91-5-2.4-7.05s-3.58-3.61-5.97-4.46c-8.63-3.47-14.24,1.31-14.24,1.31,0,0-9.05-7.38-13.82,3.44,0,0-6.85-3.5-11.98,.22-5.14,3.71-2.64,11.48-2.64,11.48,0,0-5.88-1.38-8.02,3.49-3.03,6.85,1.22,9.34,1.22,9.34,0,0-9.57,11.31,3.89,22.02l3.4-15.56Z"/>
      <path class="cls-21" d="M919.78,264.48c.51-2.31-.31-4.46-1.83-4.79-1.52-.33-3.15,1.28-3.66,3.59-.51,2.31,.31,4.45,1.83,4.79,1.51,.33,3.15-1.28,3.66-3.59Z"/>
      <path class="cls-21" d="M898.93,259.79c.5-2.31-.31-4.45-1.83-4.79-1.52-.33-3.15,1.28-3.66,3.59-.51,2.31,.31,4.45,1.83,4.79,1.52,.33,3.15-1.28,3.66-3.59Z"/>
      <path class="cls-8" d="M903.05,265.93s2.59,4.99-1.15,5.06c-3.57-.05-5.66,2.05-2.05,5.09"/>
      <path class="cls-29" d="M900.4,280.69h.02s.02,0,.02,0c2.22,.16,6.64,.48,9.59,.74h0c.09,0,.17,.04,.24,.09,.07,.05,.12,.12,.16,.2,.03,.08,.05,.17,.03,.25-.01,.08-.04,.16-.1,.23-.65,.71-1.5,1.56-2.45,2.29-.96,.74-1.98,1.33-2.96,1.57-.96,.23-1.87,.12-2.68-.53-.84-.67-1.64-1.96-2.23-4.24v-.04s-.03-.04-.03-.04c-.03-.06-.04-.13-.03-.19,0-.07,.03-.13,.07-.18,.04-.05,.09-.09,.15-.12,.06-.03,.13-.03,.19-.02Z"/>
      <path class="cls-21" d="M927.04,256.86l-.21,.42c-.25,.64-.74,1.15-1.36,1.43-.63,.28-1.34,.29-1.97,.05l-10.86-4.5c-.53-.2-.98-.59-1.24-1.09-.26-.51-.32-1.09-.17-1.64,.08-.34,.22-.66,.43-.94,.21-.28,.47-.51,.78-.68,.3-.17,.64-.27,.99-.3,.35-.03,.7,.02,1.03,.13l11.07,4.08c.3,.1,.58,.25,.82,.46,.24,.21,.44,.46,.58,.74,.14,.28,.22,.59,.24,.91,.02,.32-.03,.63-.13,.93Z"/>
      <path class="cls-21" d="M890.39,246.75l11.77-.79c.35-.02,.7,.04,1.02,.16,.33,.13,.62,.32,.87,.57,.24,.25,.44,.55,.56,.87,.12,.33,.17,.68,.15,1.03-.01,.57-.23,1.11-.63,1.53-.39,.41-.93,.66-1.5,.7l-11.69,1.25c-.68,.05-1.36-.16-1.88-.6-.52-.44-.85-1.07-.91-1.75l-.08-.46c-.02-.32,.03-.64,.14-.93,.11-.3,.28-.57,.49-.81,.22-.23,.48-.42,.77-.55,.29-.13,.6-.2,.92-.21Z"/>
      <path class="cls-25" d="M1009.94,349.35c-14.78-13.48-19.14-5.21-23.41-4.14,0,0-14.23,5.06-11.11,17.28,3.3,12.93,38.77,96.99,38.77,96.99l44.76-10.6-4.06-11.72-8.36-24.14-8.93-25.82-.93-3.1-10.85-34.11s-8.18,6.58-15.88-.65Z"/>
      <path class="cls-25" d="M1017.22,375.5c10.87-9.31,12.14-25.67,2.83-36.54-9.31-10.87-25.67-12.14-36.54-2.83-10.87,9.31-12.14,25.67-2.83,36.54,9.31,10.87,25.66,12.14,36.54,2.83Z"/>
      <path class="cls-25" d="M1013.85,447.67l-39.59,107.1c-.21,.66-.17,1.37,.11,2,.28,.63,.78,1.14,1.42,1.42l19.7,8.66c.95,.4,2.02,.44,2.99,.1,.97-.34,1.79-1.02,2.28-1.93l55.59-101.44-42.5-15.92Z"/>
      <path class="cls-25" d="M1035.99,476.17c12.68,0,22.96-10.28,22.96-22.96s-10.28-22.96-22.96-22.96-22.96,10.28-22.96,22.96,10.28,22.96,22.96,22.96Z"/>
      <path class="cls-13" d="M286.42,592.15l-93.57,335.9h19.06l108.15-335.9h-33.64Z"/>
      <path class="cls-16" d="M286.42,592.15l-6.87,24.66,35.85-10.18,4.66-14.48h-33.64Z"/>
      <path class="cls-19" d="M1084.09,592.15l93.57,335.9h-19.06l-108.16-335.9h33.65Z"/>
      <path class="cls-27" d="M1084.09,592.15l5.25,18.85-34.05-3.8-4.85-15.05h33.65Z"/>
      <path class="cls-17" d="M597.99,146.38h-251.99c-4.48,0-8.11,3.63-8.11,8.11v153.57c0,4.48,3.63,8.11,8.11,8.11h251.99c4.48,0,8.11-3.63,8.11-8.11V154.49c0-4.48-3.63-8.11-8.11-8.11Z"/>
      <path class="cls-2" d="M512.2,350.46h13.47"/>
      <path class="cls-3" d="M555.32,350.46h125.46"/>
      <path class="cls-2" d="M512.2,379.97h13.47"/>
      <path class="cls-3" d="M555.32,379.97h58.41"/>
      <path class="cls-2" d="M512.2,409.99h13.47"/>
      <path class="cls-3" d="M555.32,409.99h100.45"/>
      <path class="cls-7" d="M355.72,237.48s22.21-4.68,29.25,6.12c7.04,10.8,14.09,31.09,30.05,28.46,15.96-2.63,23.67-55.69,39.63-55.22,15.96,.47,13.42,35.22,30.8,35.69,17.37,.47,12.53-19.42,24.13-18.88,14.07,.66,12.49,41.88,30.81,42.35,18.31,.47,16.43-54.47,44.14-53.53"/>
      <path class="cls-6" d="M362.81,172.09h44.33"/>
      <path class="cls-5" d="M362.81,192.78h91.62"/>
      <path class="cls-15" d="M718.6,260.18c15.92,0,28.82-12.9,28.82-28.82s-12.9-28.82-28.82-28.82-28.82,12.9-28.82,28.82,12.9,28.82,28.82,28.82Z"/>
      <path class="cls-14" d="M709.68,223.43v18.29c0,.51,.13,1.01,.38,1.45,.25,.44,.61,.81,1.05,1.07,.44,.26,.93,.4,1.44,.41,.51,0,1.01-.11,1.45-.36l16.72-9.15c.46-.25,.84-.62,1.11-1.07,.27-.45,.41-.97,.41-1.49s-.14-1.04-.41-1.49c-.27-.45-.65-.82-1.11-1.07l-16.72-9.15c-.45-.24-.95-.37-1.45-.36-.51,0-1,.15-1.44,.41-.44,.26-.8,.63-1.05,1.07-.25,.44-.38,.94-.38,1.45Z"/>
      <path class="cls-27" d="M335.34,100.98h487.35c3.59,0,7.03,1.43,9.57,3.96,2.54,2.54,3.96,5.98,3.96,9.57v20.39H321.81v-20.39c0-3.59,1.43-7.03,3.96-9.57,2.54-2.54,5.98-3.96,9.57-3.96h0Z"/>
      <path class="cls-16" d="M1128.77,575.91h-143.68v16.24h143.68v-16.24Z"/>
      <path class="cls-13" d="M955.13,592.15l93.57,335.9h-19.06l-108.15-335.9h33.64Z"/>
      <path class="cls-27" d="M955.13,592.15l6.87,24.66-35.85-10.18-4.66-14.48h33.64Z"/>
      <path class="cls-28" d="M1076.28,303.16c38.98,0,70.58-31.6,70.58-70.58s-31.6-70.58-70.58-70.58-70.59,31.6-70.59,70.58,31.6,70.58,70.59,70.58Z"/>
      <path class="cls-4" d="M1101.43,230.86c0-4.57-1.24-9.05-3.59-12.96-2.35-3.91-5.72-7.12-9.75-9.26-4.03-2.15-8.57-3.15-13.13-2.92-4.56,.24-8.97,1.71-12.75,4.25-3.79,2.55-6.81,6.08-8.75,10.21-1.94,4.13-2.71,8.72-2.24,13.26,.47,4.54,2.16,8.87,4.9,12.52,2.74,3.65,6.43,6.49,10.66,8.21v8.26h18.96v-8.26c4.64-1.89,8.61-5.11,11.4-9.27,2.8-4.15,4.29-9.05,4.29-14.05h0Z"/>
      <path class="cls-4" d="M1066.78,262.44h19.03v4.05c0,1.72-.68,3.36-1.9,4.58-1.21,1.21-2.86,1.9-4.57,1.9h-6.09c-1.72,0-3.36-.68-4.58-1.9-1.21-1.21-1.89-2.86-1.89-4.58v-4.05h0Z"/>
      <path class="cls-4" d="M1072.01,262.44v-28.9c0-.69-.28-1.35-.77-1.84s-1.15-.76-1.84-.76h-.08c-.69,0-1.36,.28-1.84,.76-.49,.49-.77,1.15-.77,1.84h0c0,.34,.07,.68,.2,1,.13,.32,.32,.6,.57,.85,.24,.24,.53,.43,.84,.57,.32,.13,.66,.2,1,.2h13.88c.34,0,.68-.07,1-.2,.31-.13,.6-.32,.84-.57,.25-.24,.44-.53,.57-.85,.13-.32,.2-.66,.2-1h0c0-.69-.28-1.35-.77-1.84s-1.15-.76-1.84-.76h-.23c-.69,0-1.35,.28-1.84,.76s-.77,1.15-.77,1.84v28.9"/>
      <path class="cls-4" d="M1076.29,192.19v6.46"/>
      <path class="cls-4" d="M1053,198.41l3.23,5.6"/>
      <path class="cls-4" d="M1035.95,215.44l5.59,3.23"/>
      <path class="cls-4" d="M1116.6,215.5l-5.59,3.23"/>
      <path class="cls-4" d="M1099.57,198.44l-3.23,5.59"/>
      <path class="cls-22" d="M300.58,146.38h-52.37c-3.66,0-6.62,2.96-6.62,6.62v52.37c0,3.66,2.96,6.62,6.62,6.62h52.37c3.66,0,6.62-2.96,6.62-6.62v-52.37c0-3.66-2.96-6.62-6.62-6.62Z"/>
      <path class="cls-22" d="M300.58,227.38h-52.37c-3.66,0-6.62,2.96-6.62,6.62v52.37c0,3.66,2.96,6.62,6.62,6.62h52.37c3.66,0,6.62-2.96,6.62-6.62v-52.37c0-3.65-2.96-6.62-6.62-6.62Z"/>
      <path class="cls-14" d="M295.75,251.34c-.03-1.78-.37-3.54-1-5.21-.55-1.43-1.4-2.72-2.48-3.8-1.08-1.08-2.38-1.92-3.8-2.48-1.67-.62-3.43-.96-5.21-1-2.3-.11-3.03-.13-8.86-.13s-6.56,.03-8.85,.13c-1.78,.04-3.54,.37-5.21,1-1.43,.55-2.72,1.4-3.8,2.48s-1.92,2.38-2.48,3.8c-.62,1.67-.96,3.43-1,5.21-.11,2.3-.13,3.03-.13,8.85s.03,6.56,.13,8.85c.04,1.78,.37,3.54,1,5.21,.55,1.43,1.4,2.72,2.48,3.8,1.08,1.08,2.38,1.93,3.8,2.48,1.67,.62,3.43,.96,5.21,1,2.29,.1,3.02,.13,8.85,.13s6.56-.02,8.85-.13c1.78-.04,3.54-.37,5.21-1,1.43-.55,2.72-1.4,3.8-2.48,1.08-1.08,1.93-2.38,2.48-3.8,.62-1.67,.96-3.43,1-5.21,.1-2.29,.13-3.02,.13-8.85s0-6.56-.11-8.85Zm-3.86,17.53c-.01,1.36-.26,2.71-.74,3.98-.36,.93-.9,1.77-1.61,2.47s-1.54,1.25-2.47,1.61c-1.28,.47-2.62,.72-3.98,.74-2.26,.1-2.94,.13-8.67,.13s-6.41-.02-8.67-.13c-1.36-.01-2.71-.26-3.98-.74-.93-.34-1.77-.89-2.46-1.6-.71-.69-1.26-1.53-1.6-2.46-.47-1.27-.72-2.62-.74-3.98-.1-2.26-.13-2.94-.13-8.67s.02-6.41,.13-8.67c.01-1.36,.26-2.71,.74-3.98,.34-.93,.89-1.78,1.61-2.46,.69-.71,1.53-1.26,2.46-1.6,1.27-.47,2.62-.72,3.98-.74,2.26-.1,2.94-.12,8.67-.12s6.41,.02,8.67,.12c1.36,.01,2.71,.26,3.98,.74,.93,.34,1.77,.89,2.46,1.6,.71,.69,1.26,1.54,1.6,2.46,.47,1.28,.72,2.62,.74,3.98,.1,2.26,.13,2.94,.13,8.67s-.02,6.4-.13,8.66Z"/>
      <path class="cls-14" d="M274.41,249.16c-2.18,0-4.31,.65-6.13,1.86-1.81,1.21-3.23,2.93-4.06,4.95-.84,2.02-1.05,4.23-.63,6.37,.43,2.14,1.48,4.1,3.02,5.65,1.54,1.54,3.51,2.59,5.65,3.02,2.14,.43,4.36,.21,6.37-.63,2.02-.83,3.74-2.25,4.95-4.06,1.21-1.81,1.86-3.95,1.86-6.13,0-2.92-1.16-5.73-3.23-7.8-2.07-2.07-4.87-3.23-7.8-3.23Zm0,18.18c-1.41,0-2.8-.42-3.97-1.21-1.18-.79-2.09-1.9-2.63-3.21-.54-1.31-.68-2.74-.41-4.13,.28-1.39,.96-2.66,1.96-3.66,1-1,2.27-1.68,3.66-1.96,1.39-.28,2.83-.14,4.13,.41,1.31,.54,2.42,1.46,3.21,2.63,.79,1.18,1.21,2.56,1.21,3.97,0,1.9-.75,3.72-2.1,5.06-1.34,1.34-3.16,2.1-5.06,2.1Z"/>
      <path class="cls-14" d="M288.44,248.73c0,.51-.15,1.01-.43,1.43-.28,.42-.68,.75-1.15,.95-.47,.19-.99,.25-1.49,.15-.5-.1-.96-.34-1.32-.7-.36-.36-.6-.82-.7-1.32-.1-.5-.05-1.02,.15-1.49,.2-.47,.52-.87,.95-1.15,.42-.28,.92-.43,1.43-.43,.68,0,1.34,.27,1.82,.75s.75,1.14,.75,1.82Z"/>
      <path class="cls-14" d="M280.9,167.8h3.74v-6.51c-1.81-.2-3.63-.29-5.45-.29-5.39,0-9.08,3.39-9.08,9.62v5.74h-5.95v7.28h5.95v18.32h7.29v-18.32h5.71l.91-7.28h-6.62v-5.02c0-2.1,.57-3.54,3.5-3.54h0Z"/>
      <path class="cls-9" d="M367.11,360.51h91.62"/>
    </g>
  </g>
</svg>