<?xml version="1.0" encoding="UTF-8"?>
<svg id="Layer_1" data-name="Layer 1" xmlns="http://www.w3.org/2000/svg" xmlns:xlink="http://www.w3.org/1999/xlink" viewBox="0 0 1440 1024">
  <defs>
    <style>
      .cls-1, .cls-2, .cls-3, .cls-4, .cls-5, .cls-6, .cls-7, .cls-8, .cls-9, .cls-10, .cls-11, .cls-12, .cls-13, .cls-14, .cls-15 {
        fill: none;
      }

      .cls-16 {
        fill: url(#linear-gradient);
      }

      .cls-17 {
        clip-path: url(#clippath);
      }

      .cls-18, .cls-19 {
        fill: #e56441;
      }

      .cls-20, .cls-21 {
        fill: #fff;
      }

      .cls-22 {
        fill: #fcba9f;
      }

      .cls-23 {
        fill: #ffccb3;
      }

      .cls-24 {
        fill: #ff967c;
      }

      .cls-25 {
        fill: #febb94;
      }

      .cls-26 {
        fill: #96bafd;
      }

      .cls-27 {
        fill: #bc775c;
      }

      .cls-28 {
        fill: #1f2d49;
      }

      .cls-29 {
        fill: #080b09;
      }

      .cls-30, .cls-31 {
        fill: #1c85e8;
      }

      .cls-32 {
        fill: #0d1b33;
      }

      .cls-33 {
        fill: #465393;
      }

      .cls-34 {
        fill: #5661ae;
      }

      .cls-35 {
        fill: #493212;
      }

      .cls-2 {
        stroke: #1c85e8;
      }

      .cls-2, .cls-3 {
        stroke-width: 17.19px;
      }

      .cls-2, .cls-3, .cls-7, .cls-8, .cls-9, .cls-10, .cls-11, .cls-12, .cls-13, .cls-14, .cls-15 {
        stroke-miterlimit: 10;
      }

      .cls-3, .cls-9, .cls-10, .cls-11, .cls-12, .cls-13, .cls-14, .cls-15 {
        stroke: #fff;
      }

      .cls-4 {
        stroke-width: 1.2px;
      }

      .cls-4, .cls-5, .cls-6, .cls-19 {
        stroke: #e56441;
      }

      .cls-4, .cls-5, .cls-6, .cls-9, .cls-11, .cls-12, .cls-13, .cls-14, .cls-15 {
        stroke-linecap: round;
      }

      .cls-5 {
        stroke-width: 1.21px;
      }

      .cls-6 {
        stroke-width: 1.22px;
      }

      .cls-36 {
        fill: url(#linear-gradient-3);
      }

      .cls-37 {
        fill: url(#linear-gradient-4);
      }

      .cls-38 {
        fill: url(#linear-gradient-2);
      }

      .cls-7 {
        stroke: #080b09;
      }

      .cls-8 {
        stroke: #96bafd;
      }

      .cls-9 {
        stroke-width: 5.16px;
      }

      .cls-10 {
        opacity: .6;
        stroke-width: 30px;
      }

      .cls-10, .cls-13, .cls-15 {
        isolation: isolate;
      }

      .cls-31, .cls-21 {
        fill-rule: evenodd;
      }

      .cls-11 {
        stroke-width: 5.05px;
      }

      .cls-12, .cls-13 {
        stroke-width: 6.73px;
      }

      .cls-13, .cls-15 {
        opacity: .4;
      }

      .cls-14, .cls-15 {
        stroke-width: 14.89px;
      }
    </style>
    <clipPath id="clippath">
      <rect class="cls-1" x="206.6" y="117.16" width="1005.64" height="831.19"/>
    </clipPath>
    <linearGradient id="linear-gradient" x1="193.76" y1="-1873.26" x2="293.84" y2="-2787.74" gradientTransform="translate(262 -1594.99) scale(1 -1)" gradientUnits="userSpaceOnUse">
      <stop offset="0" stop-color="#fff"/>
      <stop offset="1" stop-color="#94b9ff"/>
    </linearGradient>
    <linearGradient id="linear-gradient-2" x1="665.65" y1="-2112.07" x2="765.72" y2="-3026.54" xlink:href="#linear-gradient"/>
    <linearGradient id="linear-gradient-3" x1="310.25" y1="-1863.18" x2="287.37" y2="-1961.12" xlink:href="#linear-gradient"/>
    <linearGradient id="linear-gradient-4" x1="375.48" y1="-1902.73" x2="381.12" y2="-1942.14" xlink:href="#linear-gradient"/>
  </defs>
  <rect class="cls-20" x="-10.4" y="-4.84" width="1440" height="1024"/>
  <g class="cls-17">
    <g>
      <path class="cls-28" d="M991.38,237.14h-245.29c-5.54,0-10.03,4.49-10.03,10.03v173.06c0,5.54,4.49,10.03,10.03,10.03h245.29c5.53,0,10.02-4.49,10.02-10.03V247.17c0-5.54-4.49-10.03-10.02-10.03Z"/>
      <path class="cls-20" d="M771.3,271.94h-7.26l-1.25,3.54h-2.97l6.22-17.37h3.29l6.21,17.37h-2.99l-1.25-3.54Zm-.8-2.32l-2.82-8.06-2.84,8.06h5.66Zm6.8-1.07c0-1.38,.28-2.6,.85-3.67,.58-1.07,1.36-1.89,2.35-2.47,1-.6,2.1-.9,3.32-.9,.9,0,1.78,.2,2.65,.6,.88,.38,1.58,.9,2.1,1.55v-6.64h2.87v18.47h-2.87v-2.07c-.47,.67-1.11,1.21-1.95,1.65-.82,.43-1.76,.65-2.82,.65-1.2,0-2.3-.3-3.29-.9-.98-.62-1.76-1.46-2.35-2.55-.57-1.1-.85-2.34-.85-3.72Zm11.26,.05c0-.95-.2-1.77-.6-2.47-.38-.7-.89-1.23-1.52-1.6-.63-.37-1.31-.55-2.05-.55s-1.41,.18-2.05,.55c-.63,.35-1.15,.87-1.55,1.57-.38,.68-.57,1.5-.57,2.45s.19,1.78,.57,2.49c.4,.72,.92,1.27,1.55,1.65,.65,.37,1.33,.55,2.05,.55s1.41-.18,2.05-.55c.63-.37,1.14-.9,1.52-1.6,.4-.71,.6-1.55,.6-2.5Zm11.6,7.11c-1.08,0-2.05-.19-2.92-.57-.85-.4-1.52-.93-2.02-1.6-.5-.68-.77-1.44-.8-2.27h2.95c.05,.58,.33,1.07,.82,1.47,.52,.38,1.16,.57,1.92,.57s1.41-.15,1.85-.45c.45-.32,.67-.72,.67-1.2,0-.51-.25-.9-.75-1.15-.48-.25-1.26-.52-2.32-.82-1.03-.28-1.87-.56-2.52-.82s-1.22-.67-1.7-1.22c-.47-.55-.7-1.27-.7-2.17,0-.73,.22-1.4,.65-2,.43-.62,1.05-1.1,1.85-1.45,.82-.35,1.75-.52,2.8-.52,1.56,0,2.82,.4,3.77,1.2,.96,.78,1.48,1.86,1.55,3.22h-2.85c-.05-.62-.3-1.11-.75-1.47-.45-.37-1.06-.55-1.82-.55s-1.32,.14-1.72,.43c-.4,.28-.6,.66-.6,1.12,0,.37,.13,.67,.4,.92,.27,.25,.59,.45,.97,.6,.38,.13,.95,.31,1.7,.52,1,.27,1.81,.54,2.45,.82,.65,.27,1.21,.67,1.67,1.2,.47,.53,.71,1.24,.72,2.12,0,.78-.22,1.48-.65,2.1-.43,.61-1.05,1.1-1.85,1.45-.78,.35-1.71,.52-2.77,.52Z"/>
      <path class="cls-3" d="M919.27,345.28c0,9.99-2.96,19.76-8.52,28.07-5.55,8.31-13.44,14.79-22.68,18.61-9.23,3.83-19.39,4.83-29.2,2.88-9.8-1.95-18.8-6.76-25.87-13.83-7.07-7.07-11.88-16.07-13.83-25.87-1.95-9.8-.95-19.96,2.88-29.2,3.82-9.23,10.3-17.12,18.61-22.68,8.31-5.55,18.08-8.52,28.07-8.52"/>
      <path class="cls-2" d="M878.15,285.09c13.4,0,26.25,5.32,35.73,14.8,9.48,9.48,14.8,22.33,14.8,35.73"/>
      <path class="cls-12" d="M759.35,393.86h29.58"/>
      <path class="cls-13" d="M759.35,410.42h61.12"/>
      <path class="cls-12" d="M928.68,394.03h29.58"/>
      <path class="cls-13" d="M928.68,410.59h61.12"/>
      <path class="cls-30" d="M299.84,221.04h356.07c9.46,0,18.53,3.76,25.21,10.44,6.69,6.69,10.44,15.76,10.44,25.21v21.34H264.18v-21.34c0-9.46,3.76-18.53,10.44-25.21s15.76-10.44,25.21-10.44Z"/>
      <path class="cls-16" d="M264.18,278.04h427.39v403.08c0,7.51-2.98,14.72-8.3,20.03-5.31,5.31-12.52,8.3-20.03,8.3H292.51c-7.51,0-14.72-2.98-20.03-8.3-5.31-5.31-8.3-12.52-8.3-20.03V278.04h0Z"/>
      <path class="cls-10" d="M482.13,632.61c81.84,0,148.19-66.34,148.19-148.19s-66.35-148.19-148.19-148.19-148.19,66.35-148.19,148.19,66.35,148.19,148.19,148.19Z"/>
      <path class="cls-20" d="M303.65,259.7c4.83,0,8.75-3.92,8.75-8.75s-3.92-8.75-8.75-8.75-8.75,3.92-8.75,8.75,3.92,8.75,8.75,8.75Z"/>
      <path class="cls-20" d="M338.98,259.7c4.83,0,8.75-3.92,8.75-8.75s-3.92-8.75-8.75-8.75-8.75,3.92-8.75,8.75,3.92,8.75,8.75,8.75Z"/>
      <path class="cls-20" d="M372.17,259.7c4.83,0,8.75-3.92,8.75-8.75s-3.92-8.75-8.75-8.75-8.75,3.92-8.75,8.75,3.92,8.75,8.75,8.75Z"/>
      <path class="cls-30" d="M771.73,459.84h356.07c9.45,0,18.52,3.76,25.21,10.44,6.69,6.69,10.44,15.76,10.44,25.21v21.34h-427.38v-21.34c0-9.46,3.76-18.53,10.44-25.21,6.69-6.69,15.76-10.44,25.22-10.44Z"/>
      <path class="cls-38" d="M736.07,516.84h427.38v403.08c0,7.51-2.98,14.72-8.29,20.03-5.31,5.31-12.52,8.3-20.03,8.3h-370.74c-7.51,0-14.72-2.98-20.03-8.3s-8.3-12.52-8.3-20.03v-403.08Z"/>
      <path class="cls-10" d="M971.97,880.73c81.84,0,148.19-66.35,148.19-148.19s-66.34-148.19-148.19-148.19-148.19,66.35-148.19,148.19,66.35,148.19,148.19,148.19Z"/>
      <path class="cls-20" d="M775.54,498.51c4.83,0,8.75-3.92,8.75-8.75s-3.92-8.75-8.75-8.75-8.75,3.92-8.75,8.75,3.92,8.75,8.75,8.75Z"/>
      <path class="cls-20" d="M810.87,498.51c4.83,0,8.75-3.92,8.75-8.75s-3.92-8.75-8.75-8.75-8.75,3.92-8.75,8.75,3.92,8.75,8.75,8.75Z"/>
      <path class="cls-20" d="M844.06,498.51c4.83,0,8.75-3.92,8.75-8.75s-3.92-8.75-8.75-8.75-8.75,3.92-8.75,8.75,3.92,8.75,8.75,8.75Z"/>
      <path class="cls-28" d="M906.61,769.84l-21.07,178.51h84.67l48.32-177.45-111.92-1.06Z"/>
      <path class="cls-32" d="M972.86,938.59l-9.96-54.8,19.74-59.83h30.59l-40.38,114.63Z"/>
      <path class="cls-28" d="M1063.46,770.9c-.6,10.71-.6,21.45,0,32.17,2.47,34.63-4.59,131.98-4.53,145.28h-75.18c-.32-18.43-5-176.69-5-176.69l84.71-.76Z"/>
      <path class="cls-32" d="M905,782.63l158.46,20.43v-32.17l-156.85-1.06-1.6,12.79Z"/>
      <path class="cls-25" d="M935.04,588.8c4.42-21.83-5.98-21.27-9.44-24.74,0,0-12.98-10.71-22.88-.73-10.47,10.56-70.51,92.58-70.51,92.58l37.57,34.55,7.06-8.43,18.29-21.81,19.56-23.32,2.43-2.65,26.39-29.89s-10.97-4.06-8.47-15.55Z"/>
      <path class="cls-25" d="M950.75,592.52c5.06-15.12-3.09-31.48-18.21-36.54-15.12-5.06-31.48,3.09-36.54,18.21-5.06,15.12,3.09,31.48,18.21,36.54,15.12,5.06,31.48-3.09,36.54-18.21Z"/>
      <path class="cls-24" d="M916.77,634.13c.76-4.56,2.27-13.69,3.9-22.01l8.67-40.26s-23.28,34.4-34,58.37c-7.94,17.96-17.15,36.26-18.68,51.74l18.29-21.81,19.56-23.32,2.26-2.71Z"/>
      <path class="cls-23" d="M841.33,549.59c-1.95-18.46,3.07-19.36,3.14-29.37,.04-9.78,14.81-27.89,7.76-27.53-7.05,.37-11.99,7.1-11.99,7.1-1.05-8.78,.72-23.38-8.26-28.89-8.98-5.51-11.1-2.84-18.41-.65-19.52,5.99-8.62,31.83-8.42,40.01,.18,5.15,9.24,24.42,9.65,27.98l2.89,13.71,23.65-2.36Z"/>
      <path class="cls-18" d="M830.21,496.69l-2.67-26.5,2.67,26.5Z"/>
      <path class="cls-4" d="M830.21,496.69l-2.67-26.5"/>
      <path class="cls-18" d="M821.08,496.98l-4.34-25.46,4.34,25.46Z"/>
      <path class="cls-4" d="M821.08,496.98l-4.34-25.46"/>
      <path class="cls-18" d="M810.35,497.04l-2.19-15.24,2.19,15.24Z"/>
      <path class="cls-4" d="M810.35,497.04l-2.19-15.24"/>
      <path class="cls-18" d="M825.15,516.92c3.19-7.46,11.47-14.63,11.47-14.63l-11.47,14.63Z"/>
      <path class="cls-4" d="M825.15,516.92c3.19-7.46,11.47-14.63,11.47-14.63"/>
      <path class="cls-25" d="M875.54,663.27l-31.24-123.32c-.22-.74-.7-1.37-1.36-1.77-.66-.4-1.44-.55-2.2-.41l-23.56,4.49c-1.13,.23-2.13,.86-2.81,1.79-.68,.92-.99,2.07-.88,3.21l12.98,128.21,49.06-12.2Z"/>
      <path class="cls-25" d="M851.71,697.73c14.13,0,25.58-11.45,25.58-25.58s-11.45-25.58-25.58-25.58-25.58,11.45-25.58,25.58,11.45,25.58,25.58,25.58Z"/>
      <path class="cls-25" d="M954.97,543.16s-29.24,8.63-36.6,11.71c-7.36,3.08-7.85,15.39-8.34,24.11-.34,6.11-1.5,98.54-1.05,156.66,.1,12.41-2.22,20.29-3.7,27.19-.41,1.84-.63,3.71-.66,5.6-.01,.66,.11,1.32,.36,1.93s.61,1.17,1.07,1.65c.46,.47,1.01,.85,1.62,1.11,.61,.26,1.26,.4,1.92,.41l149.71,1.4s6.64,.97,5.04-6.61c-1.59-8.28-2.46-16.69-2.6-25.12-1.5-60.36-1.78-161.44-2.43-166.23-.98-7.18,6.73-13.37-1.63-16.98l-40.37-14.69-62.34-2.13Z"/>
      <path class="cls-24" d="M1029.75,609.88s2.27,83.66,1.79,111.55c-.29,17.38-20.16,24.74-20.22,34.8-.03,5.95,16.06,2.25,23.16-.07,15.97-5.2,26.48,1.86,26.48,1.86l-4.26-152.45-26.95,4.31Z"/>
      <path class="cls-23" d="M961.73,513.6l8.93,46.63,3.15,3.34s-1.25,1.49,2.34-2.1c8.46-8.48,30.73-18.82,29.81-22.15-1.32-4.77-5.15-34.49-5.15-34.49l-39.08,8.78Z"/>
      <path class="cls-24" d="M961.36,516.7h23.52l-25.83,40.13,2.32-40.13Z"/>
      <path class="cls-23" d="M1029.47,496.39c6.87-17.02-14.12-19.18-17.75-19.4-3.63-.23-1.2-27.76-1.2-27.76,0,0-37.09-18.69-47.57-14.23,0,0-15.04,31.13-22.15,51.82-7.11,20.69-4.04,31.83,3.43,34.84,9.9,5,22.9,6.59,32.2,4.29,16.56-4.09,27.07-17.31,27.07-17.31,.28-.04,.44-.06,.44-.06,0,0,19.05,3.9,25.53-12.17Z"/>
      <path class="cls-27" d="M1019.5,511.35c13.39-9.35,24.65-19.79,26.78-33.05,4.3-26.72-10.69-33.18-10.69-33.18,9.97-18.93-12.77-29.16-24.5-32.98-38.77-12.62-62.41,1.07-64.06,16.08-.7,6.28,.31,12.17,3.49,17-.11,4.63,.37,9.26,1.43,13.77l6.41-11.86c1.26,1.61,2.9,2.87,4.78,3.66,21.06,10.03,42.66-1.09,42.66-1.09-8.42,9.73-8.48,31.27-7.94,35.77,.78,6.49,4.79,1.75,4.79,1.75,3.95-6.38,18.63-11.03,22.47,2.2,3,10.31-24.04,20.45-24.04,20.45l2.71,16.06c5.04,1.03,4.29-4.3,5.63-2.52,1.34,1.78,4.18,2.92,4.73-2.53,.55-5.46,5.35-9.54,5.35-9.54h-.01Z"/>
      <path class="cls-29" d="M977.56,480.82c1.21-2.34,.95-4.88-.59-5.68-1.53-.79-3.76,.46-4.97,2.8-1.21,2.34-.95,4.88,.58,5.68,1.54,.79,3.76-.46,4.97-2.8Z"/>
      <path class="cls-29" d="M956.48,469.75c1.21-2.34,.95-4.88-.59-5.68-1.53-.79-3.76,.46-4.97,2.8-1.21,2.34-.95,4.88,.59,5.68,1.53,.79,3.76-.46,4.97-2.8Z"/>
      <path class="cls-4" d="M959.14,477.55s1.35,6.11-2.7,5.11c-3.83-1.09-6.68,.57-3.68,4.88"/>
      <path class="cls-19" d="M952.05,492.61h.02s.01,.01,.01,.01c2.34,.81,7.01,2.43,10.1,3.56h0c.1,.04,.19,.1,.26,.18,.07,.08,.11,.18,.13,.29,.02,.1,0,.21-.04,.31-.04,.09-.1,.18-.19,.24-.9,.58-2.07,1.25-3.3,1.77-1.25,.52-2.53,.87-3.66,.84-1.12-.03-2.08-.42-2.78-1.37-.72-.98-1.2-2.62-1.19-5.24v-.04s0-.04,0-.04c-.01-.08,0-.17,.03-.24s.08-.15,.15-.2c.07-.05,.14-.08,.23-.1s.17,0,.24,.03Z"/>
      <path class="cls-29" d="M987.57,474.72l-.34,.39c-.45,.61-1.13,1.02-1.88,1.14-.75,.12-1.52-.07-2.14-.52l-10.39-7.98c-.52-.36-.88-.91-1.02-1.53-.14-.62-.03-1.27,.29-1.81,.18-.35,.43-.65,.74-.89,.31-.24,.66-.41,1.04-.51,.38-.09,.77-.11,1.15-.04,.38,.07,.75,.22,1.07,.44l10.73,7.58c.3,.19,.55,.44,.76,.73,.2,.29,.34,.62,.41,.97,.07,.35,.07,.7,0,1.05-.07,.35-.21,.68-.41,.97Z"/>
      <path class="cls-29" d="M951.06,453.26l12.89,2.55c.38,.08,.74,.24,1.05,.47,.31,.23,.58,.52,.77,.86,.19,.34,.31,.71,.35,1.1s0,.78-.13,1.15c-.18,.61-.57,1.13-1.12,1.46-.54,.33-1.19,.44-1.81,.32l-12.94-2.03c-.75-.14-1.41-.57-1.85-1.19-.43-.63-.6-1.4-.47-2.15l.04-.52c.07-.35,.21-.67,.42-.96,.2-.29,.46-.54,.76-.73,.3-.19,.63-.31,.98-.37,.35-.06,.71-.04,1.05,.04Z"/>
      <path class="cls-30" d="M1014.14,613.93l-95.69,8.29c-2.97,.26-5.17,2.88-4.92,5.85l10.41,120.24c.26,2.97,2.88,5.17,5.85,4.92l95.69-8.29c2.98-.26,5.18-2.88,4.92-5.85l-10.41-120.24c-.26-2.97-2.88-5.17-5.85-4.92Z"/>
      <path class="cls-11" d="M928.44,636.24l39.46-3.42"/>
      <path class="cls-11" d="M929.96,650.46l17.99-1.56"/>
      <path class="cls-25" d="M1060,583.51c-14.73-18.44-21.35-9.61-26.53-9.16,0,0-17.53,3.27-16.15,18.09,1.46,15.69,27.26,120.25,27.26,120.25l54.14-4.07-2.57-14.42-5.28-29.7-5.63-31.75-.51-3.78-6.33-41.77s-10.77,6.15-18.4-3.7Z"/>
      <path class="cls-25" d="M1063.64,615.35c14.4-8.84,18.9-27.67,10.07-42.07-8.84-14.4-27.68-18.9-42.08-10.06-14.39,8.84-18.9,27.67-10.06,42.07,8.84,14.4,27.67,18.9,42.07,10.06Z"/>
      <path class="cls-23" d="M934.04,717.04l-34.14,2.54-8.07,19.03,2.76,23.5s5.88-2.39,6.48-10.71c.61-8.31,27.79-2.41,34.89-11.54"/>
      <path class="cls-25" d="M1064.26,686.25l-132.46,24.97c-.8,.18-1.5,.65-1.97,1.32-.47,.67-.67,1.49-.58,2.3l3.21,25.21c.17,1.21,.78,2.3,1.71,3.09,.93,.78,2.12,1.19,3.34,1.14l136.44-5.34-9.7-52.68Z"/>
      <path class="cls-25" d="M1072.1,739.14c14.97,0,27.1-12.14,27.1-27.1s-12.13-27.1-27.1-27.1-27.11,12.14-27.11,27.1,12.14,27.1,27.11,27.1Z"/>
      <path class="cls-28" d="M528.72,486.31l46.08,194.58,3.32,28.56h-78.57l-51.95-125.66,9.6-94.15,71.53-3.33Z"/>
      <path class="cls-32" d="M479.94,662.02l11.36-96.14,3.76,132.72-15.12-36.58Z"/>
      <path class="cls-28" d="M404.34,485.7s-21.49,36.09-21.77,66.32c-.42,45.36-3.66,157.43-3.66,157.43h94.8l17.59-143.56-25.4-80.18h-61.56Z"/>
      <path class="cls-32" d="M528.72,486.31l-125.12,1.29-12.16,25.16,139.39-17.52-2.11-8.93Z"/>
      <path class="cls-23" d="M673.02,285.62l6.66-13.96c1.33-3.22,3.41-6.07,6.08-8.31,4.07-3.3,10.14-9.13,11.63-13.95,2.53-7.68,14.39-29.55-2.58-40.75-6.28-4.13-4.73-3.17-14.91-.74-10.18,2.42-9.4,13.37-12.97,21.45,0,0-2.92-7.75-9.38-10.16-6.46-2.41,2.24,19.11-.22,28.54-2.47,9.43,1.75,11.85-5.24,29.01l20.94,8.87Z"/>
      <path class="cls-18" d="M681.72,208.79l-4.13,20.68,4.13-20.68Z"/>
      <path class="cls-5" d="M681.72,208.79l-4.13,20.68"/>
      <path class="cls-18" d="M693.3,209.74l-7.06,22.61,7.06-22.61Z"/>
      <path class="cls-5" d="M693.3,209.74l-7.06,22.61"/>
      <path class="cls-18" d="M703.02,221.43l-6.41,13.99,6.41-13.99Z"/>
      <path class="cls-5" d="M703.02,221.43l-6.41,13.99"/>
      <path class="cls-18" d="M670.01,233.16s5.74,9.29,6.9,17.36l-6.9-17.36Z"/>
      <path class="cls-5" d="M670.01,233.16s5.74,9.29,6.9,17.36"/>
      <path class="cls-34" d="M493.8,304.93c10.11-2.21,25.32-3.46,32.48,1.15l71.2,49.22,55.58-90.83,24.88,13.76-51.14,114.33c-7.52,19.49-26.26,19.19-37.72,12.55l-37.15-18.16-58.12-82.02Z"/>
      <path class="cls-33" d="M539.02,352.19s-.14-5.86,13.67,16.71l36.38,36.2-37.15-18.16c-33.97-13.65-23.34-29.35-12.9-34.76Z"/>
      <path class="cls-34" d="M493.05,291.32s25.22,9.98,29.07,13.06c3.85,3.08,7.51,28.22,14.05,40.16,6.55,11.94,16.12,33.97,2.14,54.21-13.99,20.24-12.5,36.31-12.5,36.31l2.98,50.77-120.55,2.22c-1.06,.03-2.12-.16-3.1-.57-.98-.4-1.87-1.01-2.59-1.79-.73-.77-1.29-1.69-1.63-2.7-.35-1-.48-2.07-.38-3.13,1.34-14.8,7.46-35.59,7.94-59.16,.65-31.94,1.14-138.68,1.14-138.68l52.52-1.65c10.58,1.82,30.93,10.93,30.93,10.93Z"/>
      <path class="cls-33" d="M537.5,399.96s-16.45,3.54-30.09,4.25c-13.65,.71-6.56,11.34,5.98,12.65,12.53,1.31,14.96,2.2,14.96,2.2,2.27-6.71,5.34-13.12,9.15-19.09Z"/>
      <path class="cls-33" d="M406.49,443.25l-4.22,24.47s2.78,7.3,15.77,11.78c12.99,4.48,24.63,3.13,32.24-5.38,7.61-8.51,34.14-47.81,34.14-47.81l-77.93,16.93Z"/>
      <path class="cls-33" d="M430.28,325.68s17.57,16.02,18.6,27.9c1.03,11.89,3.42,45.02,26,48.33,27.67,4.05,34.92,8,22.09,11.1-12.83,3.1-41.95-1.92-41.95,11.37,0,9.46-11.31,16.54-17,11.37-5.68-5.17-50.96-83.71-7.75-110.06Z"/>
      <path class="cls-26" d="M547.12,302.67l-13.71,29.63,24.81,10.61,14.82-33.64-25.92-6.6Z"/>
      <path class="cls-26" d="M542.64,317.39l25.16,4.41-3.17,5.94-21.99-7.67v-2.68Z"/>
      <path class="cls-30" d="M556.7,270.45h0c-6.59-2.51-13.97,.8-16.48,7.39l-2.24,5.89c-2.51,6.59,.8,13.97,7.39,16.48h0c6.59,2.51,13.97-.8,16.48-7.39l2.24-5.89c2.51-6.59-.8-13.97-7.39-16.48Z"/>
      <path class="cls-26" d="M587.22,273.79c35,14.49,70.59,2.23,70.59,2.23l-34.49,90.29s-22.93-36.89-52.94-48.3c-11.06-4.2,16.83-44.22,16.83-44.22Z"/>
      <path class="cls-20" d="M652.76,325.87c9.59-25.18,12.58-47.42,6.68-49.67-5.9-2.25-18.46,16.35-28.04,41.53-9.59,25.18-12.58,47.42-6.68,49.67,5.9,2.25,18.46-16.35,28.04-41.53Z"/>
      <path class="cls-30" d="M652.76,325.87c9.59-25.18,13.27-47.16,8.22-49.08-5.05-1.92-16.92,16.93-26.5,42.12-9.59,25.18-13.27,47.16-8.22,49.08,5.05,1.92,16.92-16.93,26.5-42.12Z"/>
      <path class="cls-36" d="M568.11,266.52l24.16,9.2-16.83,44.22-24.16-9.2c-1.48-.57-2.84-1.42-4-2.51-1.16-1.09-2.09-2.4-2.74-3.85-.65-1.45-1.01-3.01-1.05-4.6-.05-1.59,.22-3.17,.79-4.65l8.23-21.61c.57-1.48,1.42-2.84,2.51-4,1.09-1.15,2.4-2.08,3.85-2.74,1.45-.65,3.01-1.01,4.6-1.05,1.59-.05,3.17,.22,4.65,.79Z"/>
      <path class="cls-20" d="M574.38,278.49l-12.2-4.65c-1.04-.39-2.2,.13-2.59,1.16-.4,1.04,.13,2.2,1.16,2.59l12.2,4.65c1.04,.4,2.2-.13,2.59-1.16,.4-1.04-.13-2.2-1.16-2.59Z"/>
      <path class="cls-20" d="M570.32,286.84l-12.2-4.65c-1.04-.4-2.2,.13-2.59,1.16-.4,1.04,.13,2.2,1.16,2.59l12.2,4.65c1.04,.39,2.2-.13,2.59-1.16s-.13-2.2-1.16-2.59Z"/>
      <path class="cls-37" d="M639.13,307.57l1.49,.62c2.24,.93,4.03,2.68,5.01,4.9,.98,2.22,1.06,4.72,.24,7-.44,1.22-1.13,2.34-2.02,3.28-.89,.94-1.97,1.69-3.17,2.2-1.2,.51-2.49,.76-3.78,.74-1.3-.02-2.58-.3-3.77-.84l-.9-.41s2.66-10.23,6.9-17.5Z"/>
      <path class="cls-23" d="M515.05,354.2l11.58-13.06s-1.05-11.58,0-16.01c1.05-4.42,1.05-6.32,4-8.63,2.95-2.32,12-6.95,12-6.95v10.53l27.3,7.48s3.99,6.34-2.14,9.8c3.42,5.15-.79,9.44-.79,9.44,0,0,2.16,5.89-3.2,7.01,0,0,.95,4.42-4.86,6.28,0,0-1.72,2.9-8.65,3.76-1.91,.24-7.65,.76-7.65,.76l-10.95,10.86-16.64-21.27Z"/>
      <path class="cls-22" d="M517.9,350.98l20.23,18.1,2.28-2.26-21.15-17.37-1.36,1.54Z"/>
      <path class="cls-18" d="M567.25,337.37s-6.04-.56-8.9-1.58l8.9,1.58Z"/>
      <path class="cls-5" d="M567.25,337.37s-6.04-.56-8.9-1.58"/>
      <path class="cls-18" d="M566.12,346.61s-6.04-.56-8.9-1.58l8.9,1.58Z"/>
      <path class="cls-5" d="M566.12,346.61s-6.04-.56-8.9-1.58"/>
      <path class="cls-18" d="M563.75,353.65s-6.04-.56-8.9-1.58l8.9,1.58Z"/>
      <path class="cls-5" d="M563.75,353.65s-6.04-.56-8.9-1.58"/>
      <path class="cls-18" d="M558.35,360.05s-6.04-.56-8.9-1.58l8.9,1.58Z"/>
      <path class="cls-5" d="M558.35,360.05s-6.04-.56-8.9-1.58"/>
      <path class="cls-34" d="M436.26,307.04s-5.26-29.6-28.95-25.21c-15.88,2.95-22.1,11.81-19.8,35.42,1.6,16.51,13.57,90.15,17.87,120.23,4.42,30.87,31.89,36.32,50.44,20.97l86.05-86.03-26.48-23.69-66.54,54.73-12.59-96.43Z"/>
      <path class="cls-21" d="M519.26,302.67l-24.02-10.47c-4.31,21.28-2.47,16.79-5.43,18.39,0,0-25.34,.97-31.88-29.96l-27.82,.92s-7.8,21.28,25.36,31.61c-5.22,12.47,13.13,33.8,36.56,9.77,16.23,24.2,27.15,1.63,19.31-7.13,11.72-6.82,7.93-13.13,7.93-13.13Z"/>
      <path class="cls-23" d="M496.25,264.73l-1.42,39.69s1.94,8.69-6.98,7.73c-8.92-.96-20.93-7.99-27.68-15.7-6.75-7.71-6.29-8.33-3.4-13.39,2.89-5.06,16.48-43.64,16.48-43.64l22.99,25.33Z"/>
      <path class="cls-22" d="M496.04,268.06l-16.44-10.47s7.29,31.98,15.23,46.83l1.21-36.36Z"/>
      <path class="cls-35" d="M477.67,159.88c.45-7.62-1.21-15.22-4.8-21.96-5.95-10.75-18.3-25.62-37.06-19.21-18.76,6.4-32.48,20.82-25.39,41.17,7.09,20.36,26.79,26.87,36.83,24.7,10.04-2.17,30.42-24.7,30.42-24.7Z"/>
      <path class="cls-30" d="M483.71,162.71c-1.08-1.82-2.7-3.26-4.63-4.13-1.93-.87-4.09-1.12-6.16-.71-7.42,1.37-15.23,7.23-21.88,14.26-6.64,7.03-6.43,12.13-3.41,15.25,3.02,3.11,36.08-24.66,36.08-24.66Z"/>
      <path class="cls-23" d="M538.94,209.23s-3.96,38.24-22.56,55.65c-12.13,11.36-23.26,8.45-39.85-14.28-15.21-20.84-16.55-30.97-16.55-30.97l16.08-36.17s64.77-9.22,62.88,25.77Z"/>
      <path class="cls-35" d="M532.36,201.75s-9.15,14.57-25.92,14.81c0,0-10.1,9.47-25.5,4.49,0,0,6.69-10.14,0-13.7-11.35-6.04-15.27,14.09-9.21,21.1,4.11,4.76,4.35,13.4,1.28,18.36-3.07,4.96-7.5,14.15-7.5,14.15,0,0-8.91-7.28-13.61-12.28-16.36-17.39-19.04-58.38,7.99-77.95,27.03-19.57,55.49-3.91,60.83,0,0,0,28.41,4.96,28.46,34.5,.04,25.26-17.93,31.26-17.93,31.26l5.36-20.39s-3.32,.36-4.24-14.36Z"/>
      <path class="cls-19" d="M502.49,249.57l12.06,5.92c-.05,.06-.11,.13-.18,.2-.37,.4-.91,.91-1.6,1.37-1.36,.92-3.23,1.63-5.43,.92-3.38-1.45-4.53-3.7-4.87-5.56-.17-.95-.14-1.81-.05-2.43,.02-.15,.04-.29,.06-.41Z"/>
      <path class="cls-29" d="M530.73,235.95c.54-2.18-.22-4.25-1.71-4.61-1.48-.37-3.12,1.11-3.65,3.29-.54,2.18,.22,4.25,1.71,4.61,1.48,.37,3.12-1.11,3.65-3.29Z"/>
      <path class="cls-29" d="M508.78,230.86c.54-2.18-.23-4.25-1.71-4.61-1.48-.37-3.12,1.11-3.65,3.29-.54,2.18,.22,4.25,1.7,4.61,1.48,.37,3.12-1.11,3.66-3.29Z"/>
      <path class="cls-29" d="M535.59,227.47l-11.17-2.56c-.19-.06-.34-.18-.45-.35-.1-.17-.14-.37-.1-.56,.12-.33,.31-.63,.56-.88,.24-.25,.54-.45,.86-.59,.32-.14,.67-.21,1.02-.21,.35,0,.7,.07,1.02,.21l8.76,3.71c.73,.18,.41,1.46-.5,1.23Z"/>
      <path class="cls-29" d="M498.09,217.48l14.55,4.56c.1-.45,.1-.92,0-1.38-.1-.45-.29-.88-.56-1.26-.27-.38-.62-.69-1.02-.93s-.85-.38-1.31-.43l-11.62-1.51c-.36-.09-.59,.82-.04,.96Z"/>
      <path class="cls-6" d="M519.24,231.94l1.58,11.78-4.16,2.01"/>
      <path class="cls-26" d="M676.98,739.15H276.96c-7.06,0-12.78,5.72-12.78,12.78v124.92c0,7.06,5.72,12.79,12.78,12.79h400.02c7.06,0,12.78-5.72,12.78-12.79v-124.92c0-7.06-5.72-12.78-12.78-12.78Z"/>
      <path class="cls-30" d="M356.67,504.5H213.36c-3.73,0-6.76,3.03-6.76,6.76v47.86c0,3.73,3.03,6.76,6.76,6.76h143.31c3.73,0,6.76-3.03,6.76-6.76v-47.86c0-3.73-3.03-6.76-6.76-6.76Z"/>
      <path class="cls-20" d="M396.47,813.65h10.03c.88,0,1.72-.35,2.34-.97,.62-.62,.97-1.46,.97-2.34s-.35-1.72-.97-2.34c-.62-.62-1.46-.97-2.34-.97h-10.03c-.88,0-1.72,.35-2.34,.97-.62,.62-.97,1.46-.97,2.34s.35,1.72,.97,2.34c.62,.62,1.46,.97,2.34,.97Z"/>
      <path class="cls-20" d="M377.22,777.75c0-.53-.13-1.05-.37-1.52-.24-.47-.6-.88-1.03-1.18-.43-.31-.94-.5-1.46-.57s-1.06-.01-1.56,.17l-62.13,22.37h-14.46c-.88,0-1.72,.35-2.34,.97-.62,.62-.97,1.46-.97,2.34v20.05c0,.88,.35,1.72,.97,2.34,.62,.62,1.46,.97,2.34,.97h11.73v26.77c0,.43,.09,.87,.25,1.27,.17,.4,.41,.77,.72,1.07,.31,.31,.67,.55,1.07,.72,.4,.17,.83,.25,1.27,.25h17.55c.43,0,.87-.09,1.27-.25,.4-.17,.77-.41,1.07-.72,.31-.31,.55-.67,.72-1.07,.17-.4,.25-.83,.25-1.27v-19.05l40.69,14.65c.5,.18,1.04,.24,1.56,.17,.53-.07,1.03-.27,1.46-.57,.43-.31,.79-.71,1.04-1.18,.24-.47,.37-.99,.37-1.52v-65.18Zm-77.71,39.31v-13.43h8.42v13.43h-8.42Zm25.97,30.08h-10.93v-22.06l10.93,3.93v18.13Zm-10.93-29.1v-15.4l56.05-20.18v55.76l-56.05-20.18Z"/>
      <path class="cls-20" d="M396.31,835.57l-5.01-5.01c-.31-.31-.67-.55-1.07-.72-.4-.17-.83-.25-1.27-.25s-.87,.09-1.27,.25c-.4,.17-.77,.41-1.07,.72-.31,.31-.55,.67-.72,1.07-.17,.4-.25,.83-.25,1.27s.09,.87,.25,1.27c.17,.4,.41,.77,.72,1.07l5.01,5.01c.31,.31,.67,.55,1.07,.72,.4,.17,.83,.25,1.27,.25s.87-.09,1.27-.25c.4-.17,.77-.41,1.07-.72,.31-.31,.55-.67,.72-1.07,.17-.4,.25-.83,.25-1.27s-.09-.86-.25-1.27c-.17-.4-.41-.77-.72-1.07Z"/>
      <path class="cls-20" d="M386.61,790.12c.62,.62,1.46,.97,2.34,.97s1.72-.35,2.34-.97l5.01-5.01c.62-.62,.97-1.46,.97-2.34s-.35-1.72-.97-2.34c-.62-.62-1.46-.97-2.34-.97s-1.72,.35-2.34,.97l-5.01,5.01c-.62,.62-.97,1.46-.97,2.34s.35,1.72,.97,2.34Z"/>
      <path class="cls-14" d="M451.23,780.41h65.46"/>
      <path class="cls-14" d="M451.23,853.71h121.31"/>
      <path class="cls-15" d="M451.23,817.06h155.29"/>
      <path class="cls-30" d="M1204.93,606.58h-73.77c-4.03,0-7.3,3.27-7.3,7.3v67.31c0,4.03,3.27,7.3,7.3,7.3h73.77c4.04,0,7.31-3.27,7.31-7.3v-67.31c0-4.03-3.27-7.3-7.31-7.3Z"/>
      <path class="cls-20" d="M274.63,548.13c-1.15,0-2.18-.2-3.1-.59-.92-.41-1.64-.98-2.16-1.72-.52-.74-.79-1.6-.79-2.58h3c.07,.74,.35,1.34,.86,1.82,.52,.48,1.25,.71,2.19,.71s1.72-.23,2.26-.69c.54-.47,.81-1.08,.81-1.82,0-.57-.17-1.04-.52-1.4-.33-.36-.75-.64-1.25-.84-.49-.2-1.18-.41-2.07-.64-1.11-.29-2.02-.59-2.73-.89-.69-.31-1.28-.79-1.77-1.43-.49-.64-.74-1.49-.74-2.56,0-.98,.25-1.85,.74-2.58,.49-.74,1.18-1.3,2.07-1.7,.89-.39,1.91-.59,3.07-.59,1.66,0,3.01,.42,4.06,1.25,1.07,.82,1.66,1.95,1.77,3.39h-3.1c-.05-.62-.34-1.16-.89-1.6-.54-.44-1.25-.66-2.14-.66-.8,0-1.46,.21-1.97,.61-.51,.41-.76,1-.76,1.77,0,.52,.16,.96,.47,1.3,.33,.33,.74,.59,1.23,.79,.49,.2,1.16,.41,2.02,.64,1.13,.31,2.05,.62,2.75,.93,.72,.31,1.33,.79,1.82,1.45,.51,.64,.76,1.5,.76,2.58,0,.87-.24,1.69-.71,2.46-.46,.77-1.14,1.39-2.04,1.87-.88,.46-1.93,.69-3.15,.69Zm16.22-13.94c1.03,0,1.95,.22,2.75,.66,.82,.44,1.46,1.1,1.92,1.97,.47,.87,.71,1.92,.71,3.15v7.99h-2.78v-7.57c0-1.21-.3-2.14-.91-2.78-.61-.66-1.43-.98-2.48-.98s-1.89,.33-2.51,.98c-.61,.64-.91,1.57-.91,2.78v7.57h-2.8v-18.2h2.8v6.22c.48-.57,1.07-1.02,1.79-1.33,.74-.31,1.54-.47,2.41-.47Zm8.03,6.93c0-1.36,.28-2.57,.84-3.61,.57-1.05,1.34-1.86,2.31-2.43,.98-.59,2.07-.89,3.25-.89,1.07,0,1.99,.21,2.78,.64,.8,.41,1.44,.93,1.92,1.55v-1.97h2.83v13.55h-2.83v-2.02c-.48,.64-1.12,1.17-1.94,1.6-.82,.43-1.75,.64-2.8,.64-1.16,0-2.23-.29-3.2-.89-.97-.61-1.74-1.44-2.31-2.51-.56-1.08-.84-2.3-.84-3.66Zm11.09,.05c0-.93-.2-1.75-.59-2.43-.38-.69-.88-1.21-1.5-1.57-.62-.36-1.3-.54-2.02-.54s-1.39,.18-2.02,.54c-.62,.34-1.13,.86-1.52,1.55-.38,.67-.57,1.47-.57,2.41s.19,1.75,.57,2.46c.39,.71,.9,1.25,1.52,1.62,.64,.36,1.31,.54,2.02,.54s1.39-.18,2.02-.54c.62-.36,1.12-.89,1.5-1.57,.39-.71,.59-1.53,.59-2.46Zm9.31-4.79c.41-.69,.95-1.22,1.62-1.6,.69-.39,1.5-.59,2.43-.59v2.9h-.71c-1.1,0-1.93,.28-2.51,.84-.56,.56-.84,1.52-.84,2.9v7.13h-2.8v-13.55h2.8v1.97Zm19.05,4.47c0,.51-.03,.97-.1,1.38h-10.35c.08,1.08,.48,1.95,1.2,2.61,.72,.66,1.61,.98,2.65,.98,1.51,0,2.57-.63,3.2-1.89h3.02c-.41,1.24-1.15,2.27-2.24,3.07-1.07,.79-2.39,1.18-3.98,1.18-1.29,0-2.46-.29-3.49-.86-1.02-.59-1.82-1.41-2.41-2.46-.57-1.07-.86-2.29-.86-3.69s.28-2.61,.84-3.66c.57-1.07,1.37-1.89,2.39-2.46,1.03-.57,2.21-.86,3.54-.86s2.42,.28,3.42,.84c1,.56,1.78,1.34,2.34,2.36,.56,1,.84,2.16,.84,3.47Zm-2.93-.88c-.02-1.03-.38-1.86-1.11-2.48-.72-.62-1.61-.93-2.68-.93-.97,0-1.79,.31-2.48,.93-.69,.61-1.1,1.43-1.23,2.48h7.5Z"/>
      <path class="cls-20" d="M248,539.48c-.97,0-1.93,.21-2.8,.63-.88,.41-1.65,1.01-2.27,1.76l-7.88-4.47c.51-1.42,.51-2.98,0-4.4l7.88-4.47c1.05,1.27,2.54,2.09,4.17,2.32,1.63,.22,3.29-.17,4.64-1.11,1.36-.94,2.31-2.35,2.67-3.95,.37-1.61,.12-3.29-.7-4.72-.82-1.43-2.14-2.51-3.7-3.01-1.57-.51-3.27-.41-4.76,.28-1.5,.68-2.68,1.91-3.32,3.42-.64,1.52-.69,3.22-.14,4.77l-7.88,4.47c-.87-1.05-2.03-1.8-3.34-2.15-1.31-.36-2.7-.3-3.97,.16-1.28,.46-2.38,1.3-3.16,2.41s-1.2,2.43-1.2,3.79,.42,2.68,1.2,3.79c.78,1.11,1.88,1.95,3.16,2.41,1.28,.46,2.66,.52,3.97,.16,1.31-.36,2.48-1.11,3.34-2.15l7.88,4.47c-.47,1.32-.5,2.75-.1,4.09,.4,1.34,1.22,2.52,2.34,3.36,1.12,.84,2.47,1.31,3.87,1.34,1.4,.02,2.77-.4,3.91-1.21,1.14-.81,2-1.96,2.45-3.28,.44-1.33,.46-2.76,.03-4.1-.42-1.33-1.26-2.5-2.39-3.33-1.13-.83-2.49-1.27-3.89-1.27Zm0-19.46c.85,0,1.68,.25,2.38,.72,.71,.47,1.26,1.14,1.58,1.92,.32,.78,.41,1.65,.24,2.48-.17,.83-.57,1.6-1.17,2.2-.6,.6-1.36,1.01-2.2,1.17-.83,.16-1.69,.08-2.48-.24-.78-.33-1.45-.88-1.92-1.58-.47-.71-.72-1.53-.72-2.38,0-1.14,.45-2.23,1.26-3.03,.8-.8,1.89-1.26,3.03-1.26Zm-19.16,19.46c-.85,0-1.68-.25-2.38-.72-.71-.47-1.26-1.14-1.58-1.92-.32-.78-.41-1.65-.24-2.48,.17-.83,.57-1.6,1.17-2.19,.6-.6,1.36-1.01,2.2-1.17,.83-.17,1.69-.08,2.48,.24,.78,.33,1.45,.87,1.92,1.58,.47,.71,.72,1.53,.72,2.38,0,1.14-.45,2.23-1.26,3.03-.8,.8-1.89,1.26-3.03,1.26h0Zm19.16,10.88c-.85,0-1.68-.25-2.38-.72-.71-.47-1.26-1.14-1.58-1.92-.32-.78-.41-1.65-.24-2.48,.17-.83,.57-1.6,1.17-2.2,.6-.6,1.36-1.01,2.19-1.17,.83-.16,1.69-.08,2.48,.24,.78,.33,1.45,.87,1.92,1.58,.47,.71,.72,1.53,.72,2.38,0,1.14-.45,2.23-1.26,3.03-.8,.8-1.89,1.26-3.03,1.26Z"/>
      <path class="cls-9" d="M1140.54,659.99l12.84-12.84c.84-.84,1.98-1.31,3.16-1.31s2.33,.47,3.17,1.31l10.04,10.04c.84,.84,1.98,1.31,3.17,1.31s2.32-.47,3.16-1.31l16.42-16.42"/>
      <path class="cls-9" d="M1184.88,637.82h9.13c.41,0,.81,.16,1.1,.46,.29,.29,.45,.69,.45,1.1v8.26"/>
      <path class="cls-7" d="M982.88,482.56c2.3-5.25,.94-10.92-3.05-12.67-3.99-1.75-9.09,1.08-11.39,6.33-2.3,5.25-.93,10.92,3.05,12.67,3.99,1.75,9.09-1.08,11.39-6.33Z"/>
      <path class="cls-7" d="M959.98,472.78c2.3-5.25,.93-10.92-3.05-12.67-3.99-1.75-9.09,1.08-11.4,6.33s-.93,10.92,3.06,12.67c3.99,1.75,9.09-1.08,11.4-6.33Z"/>
      <path class="cls-7" d="M959.99,472.78s5.51-.1,8.44,3.43"/>
      <path class="cls-7" d="M982.21,483.87h23.75"/>
      <path class="cls-8" d="M492.03,322.93s1.63,21.94,0,39.33"/>
      <path class="cls-31" d="M977.95,548.47c22.18-13.89,25.86-22.53,25.86-22.53l9.34,18.1-25.91,19.53c-1.04-2.74-2.31-5.39-3.8-7.91l-7.29,5.81,1.8-12.99Zm-26.83-4.55l9.57-7.16s-.75,6.63,9.15,11.15l.82,12.32-4.8-4.65-6.38,8.43-8.36-20.08Z"/>
      <path class="cls-30" d="M976.15,561.46l1.8-12.99,5.49,7.18-7.29,5.81Z"/>
      <path class="cls-30" d="M969.83,547.9l-3.97,7.67,4.8,4.65-.82-12.32Z"/>
      <path class="cls-30" d="M970.66,560.22l3.02,37.33c.04,.52,.26,1.01,.62,1.4,.36,.38,.84,.63,1.35,.71,.34,.05,.69,.02,1.02-.08,.33-.1,.63-.28,.89-.51,.25-.23,.45-.52,.58-.84,.13-.32,.18-.66,.16-1.01l-2.15-35.77-2.34,2.1-3.15-3.34Z"/>
      <path class="cls-30" d="M983.94,576.49c1.59,0,2.89-1.29,2.89-2.89s-1.29-2.89-2.89-2.89-2.89,1.29-2.89,2.89,1.29,2.89,2.89,2.89Z"/>
      <path class="cls-30" d="M984.88,593.5c1.6,0,2.89-1.29,2.89-2.89s-1.29-2.89-2.89-2.89-2.89,1.29-2.89,2.89,1.29,2.89,2.89,2.89Z"/>
    </g>
  </g>
</svg>