<?xml version="1.0" encoding="UTF-8"?>
<svg id="Layer_1" data-name="Layer 1" xmlns="http://www.w3.org/2000/svg" xmlns:xlink="http://www.w3.org/1999/xlink" viewBox="0 0 1440 1024">
  <defs>
    <style>
      .cls-1, .cls-2, .cls-3, .cls-4, .cls-5, .cls-6, .cls-7, .cls-8, .cls-9, .cls-10, .cls-11, .cls-12, .cls-13, .cls-14 {
        fill: none;
      }

      .cls-2, .cls-3, .cls-4, .cls-5, .cls-6, .cls-7, .cls-9, .cls-10, .cls-11, .cls-12, .cls-13, .cls-14 {
        stroke-miterlimit: 10;
      }

      .cls-2, .cls-3, .cls-5, .cls-6, .cls-8, .cls-9, .cls-10, .cls-11, .cls-13, .cls-14 {
        stroke-linecap: round;
      }

      .cls-2, .cls-3, .cls-6, .cls-9, .cls-10, .cls-11, .cls-13, .cls-14 {
        stroke: #fff;
      }

      .cls-2, .cls-9 {
        stroke-width: 12px;
      }

      .cls-3, .cls-10 {
        stroke-width: 5.98px;
      }

      .cls-15 {
        fill: url(#linear-gradient);
      }

      .cls-16 {
        clip-path: url(#clippath);
      }

      .cls-17 {
        fill: #fff;
      }

      .cls-18 {
        fill: #fcba9f;
      }

      .cls-19 {
        fill: #ffccb3;
      }

      .cls-20 {
        fill: #febb94;
      }

      .cls-21 {
        fill: #9bb8ff;
      }

      .cls-22 {
        fill: #1c85e8;
      }

      .cls-23 {
        fill: #5661ae;
      }

      .cls-4 {
        stroke-width: 1.43px;
      }

      .cls-4, .cls-12 {
        stroke: #d1e8f7;
      }

      .cls-24 {
        fill: url(#linear-gradient-3);
      }

      .cls-25 {
        fill: url(#linear-gradient-4);
      }

      .cls-26 {
        fill: url(#linear-gradient-2);
      }

      .cls-27 {
        fill: url(#linear-gradient-5);
      }

      .cls-5, .cls-6, .cls-7 {
        stroke-width: 11.69px;
      }

      .cls-5, .cls-7 {
        stroke: #ef6a77;
      }

      .cls-8 {
        stroke: #ff967c;
        stroke-width: 3px;
      }

      .cls-9, .cls-10, .cls-13 {
        isolation: isolate;
        opacity: .4;
      }

      .cls-11 {
        stroke-width: 7.57px;
      }

      .cls-12 {
        stroke-width: 1.92px;
      }

      .cls-13, .cls-14 {
        stroke-width: 12px;
      }
    </style>
    <clipPath id="clippath">
      <rect class="cls-1" x="245" y="93" width="843.53" height="837.01"/>
    </clipPath>
    <linearGradient id="linear-gradient" x1="586.13" y1="1022.07" x2="869.97" y2="-400.31" gradientTransform="translate(0 1024) scale(1 -1)" gradientUnits="userSpaceOnUse">
      <stop offset="0" stop-color="#fff"/>
      <stop offset="1" stop-color="#94b9ff"/>
    </linearGradient>
    <linearGradient id="linear-gradient-2" x1="669.67" y1="789.9" x2="697.19" y2="361.49" gradientTransform="translate(0 1024) scale(1 -1)" gradientUnits="userSpaceOnUse">
      <stop offset="0" stop-color="#fff"/>
      <stop offset="1" stop-color="#94b9ff"/>
    </linearGradient>
    <linearGradient id="linear-gradient-3" x1="742.82" y1="569.51" x2="787.84" y2="196.75" gradientTransform="translate(0 1024) scale(1 -1)" gradientUnits="userSpaceOnUse">
      <stop offset="0" stop-color="#fff"/>
      <stop offset="1" stop-color="#94b9ff"/>
    </linearGradient>
    <linearGradient id="linear-gradient-4" x1="658.7" y1="380.99" x2="666.63" y2="161.44" gradientTransform="translate(0 1024) scale(1 -1)" gradientUnits="userSpaceOnUse">
      <stop offset="0" stop-color="#fff"/>
      <stop offset="1" stop-color="#94b9ff"/>
    </linearGradient>
    <linearGradient id="linear-gradient-5" x1="998.12" y1="821.4" x2="1004.88" y2="732.83" gradientTransform="translate(0 1024) scale(1 -1)" gradientUnits="userSpaceOnUse">
      <stop offset="0" stop-color="#fff"/>
      <stop offset="1" stop-color="#94b9ff"/>
    </linearGradient>
  </defs>
  <rect class="cls-17" width="1440" height="1024"/>
  <g class="cls-16">
    <g>
      <path class="cls-12" d="M681.72,839.62c198.08,0,358.66-160.58,358.66-358.66S879.81,122.3,681.72,122.3s-358.66,160.58-358.66,358.66,160.58,358.66,358.66,358.66Z"/>
      <path class="cls-20" d="M389.95,283c6.98,0,12.63-5.66,12.63-12.63s-5.66-12.63-12.63-12.63-12.63,5.65-12.63,12.63,5.66,12.63,12.63,12.63Z"/>
      <path class="cls-23" d="M1040.38,507.26c6.98,0,12.64-5.65,12.64-12.63s-5.66-12.63-12.64-12.63-12.63,5.66-12.63,12.63,5.66,12.63,12.63,12.63Z"/>
      <path class="cls-22" d="M696.44,852.26c6.98,0,12.63-5.66,12.63-12.63s-5.66-12.63-12.63-12.63-12.63,5.66-12.63,12.63,5.66,12.63,12.63,12.63Z"/>
      <path class="cls-4" d="M690.03,750.88c147.76,0,267.55-119.79,267.55-267.55s-119.79-267.55-267.55-267.55-267.55,119.79-267.55,267.55,119.79,267.55,267.55,267.55Z"/>
      <path class="cls-20" d="M953,546.64c5.2,0,9.42-4.22,9.42-9.42s-4.22-9.42-9.42-9.42-9.42,4.22-9.42,9.42,4.22,9.42,9.42,9.42Z"/>
      <path class="cls-23" d="M441.89,593.3c5.2,0,9.42-4.22,9.42-9.42s-4.22-9.42-9.42-9.42-9.42,4.22-9.42,9.42,4.22,9.42,9.42,9.42Z"/>
      <path class="cls-22" d="M570.19,253.29c5.2,0,9.42-4.22,9.42-9.42s-4.22-9.42-9.42-9.42-9.42,4.22-9.42,9.42,4.22,9.42,9.42,9.42Z"/>
      <path class="cls-22" d="M829.28,779.6h-308.98c-13.4,0-23.23-10.87-21.94-24.27l52.74-548.69c1.29-13.4,13.2-24.27,26.6-24.27h308.98c13.4,0,23.23,10.87,21.94,24.27l-52.74,548.69c-1.29,13.41-13.2,24.27-26.6,24.27Z"/>
      <path class="cls-15" d="M807.51,779.6H498.53c-13.4,0-23.23-10.87-21.94-24.27l52.74-548.69c1.29-13.4,13.2-24.27,26.6-24.27h308.98c13.4,0,23.23,10.87,21.94,24.27l-52.74,548.69c-1.29,13.41-13.2,24.27-26.6,24.27Z"/>
      <path class="cls-17" d="M795.8,761.36h-282.05c-12.42,0-21.53-10.07-20.33-22.49l49.58-515.77c1.2-12.42,12.23-22.49,24.66-22.49h282.05c12.42,0,21.53,10.07,20.33,22.49l-49.58,515.77c-1.2,12.42-12.23,22.49-24.66,22.49Z"/>
      <path class="cls-26" d="M818.42,435.24l-302.57-.27c-1.24,.03-2.46-.2-3.6-.68-1.14-.48-2.16-1.2-3-2.1-.84-.91-1.48-1.98-1.87-3.15-.39-1.17-.53-2.42-.4-3.65l16.31-181.13c.29-2.61,1.54-5.03,3.49-6.79,1.95-1.76,4.48-2.75,7.11-2.77l302.57,.27c1.24-.03,2.47,.2,3.6,.68,1.14,.48,2.16,1.2,3,2.1,.84,.91,1.48,1.98,1.87,3.15,.39,1.17,.53,2.41,.4,3.65l-16.31,181.13c-.29,2.61-1.54,5.03-3.49,6.79-1.95,1.76-4.48,2.75-7.11,2.77Z"/>
      <path class="cls-24" d="M808.89,630.41h-127.89c-.94,.02-1.88-.17-2.75-.54-.87-.37-1.64-.93-2.27-1.63-.63-.7-1.11-1.53-1.39-2.43-.29-.9-.37-1.85-.26-2.79l15.53-161.54c.22-2,1.17-3.86,2.66-5.21s3.42-2.13,5.43-2.17h127.89c.94-.02,1.88,.17,2.74,.54,.87,.37,1.64,.93,2.27,1.63,.63,.7,1.11,1.53,1.39,2.43,.29,.9,.37,1.85,.26,2.79l-15.53,161.54c-.22,2-1.17,3.86-2.66,5.21-1.49,1.36-3.42,2.13-5.43,2.17Z"/>
      <path class="cls-7" d="M778.4,541.29c14.42-13.74,15.99-35.51,3.51-48.61-12.49-13.1-34.3-12.58-48.72,1.17-14.42,13.75-15.99,35.51-3.51,48.61,12.49,13.1,34.3,12.58,48.72-1.17Z"/>
      <path class="cls-6" d="M739.58,549.35c-11.96-5.17-19.55-17.45-18.17-31.78,1.82-18.99,18.7-34.38,37.69-34.38"/>
      <path class="cls-3" d="M736.74,578.9h26.31"/>
      <path class="cls-3" d="M733.88,608.7h26.31"/>
      <path class="cls-10" d="M721.3,593.63h54.37"/>
      <path class="cls-21" d="M652.49,630.41h-127.89c-.94,.02-1.88-.17-2.75-.54-.86-.37-1.64-.93-2.27-1.63-.63-.7-1.11-1.53-1.39-2.43-.29-.9-.37-1.85-.26-2.79l15.53-161.54c.22-2,1.17-3.86,2.66-5.21s3.42-2.13,5.43-2.17h127.89c.94-.02,1.88,.17,2.74,.54,.87,.37,1.64,.93,2.27,1.63s1.11,1.53,1.39,2.43c.29,.9,.37,1.85,.26,2.79l-15.53,161.54c-.22,2-1.17,3.86-2.66,5.21-1.49,1.36-3.42,2.13-5.43,2.17Z"/>
      <path class="cls-7" d="M622.01,541.29c14.42-13.74,15.99-35.51,3.51-48.61-12.49-13.1-34.3-12.58-48.72,1.17-14.42,13.75-15.99,35.51-3.51,48.61,12.49,13.1,34.3,12.58,48.72-1.17Z"/>
      <path class="cls-6" d="M633.78,517.57c-1.83,18.99-18.7,34.38-37.69,34.38s-32.9-15.39-31.08-34.38c1.82-18.99,18.7-34.38,37.69-34.38"/>
      <path class="cls-3" d="M580.35,578.9h26.31"/>
      <path class="cls-3" d="M577.48,608.7h26.31"/>
      <path class="cls-10" d="M564.9,593.63h54.37"/>
      <path class="cls-25" d="M798.17,745.94h-285.05c-.89,.02-1.78-.16-2.6-.51-.82-.35-1.56-.88-2.16-1.54-.6-.66-1.05-1.45-1.32-2.3-.27-.85-.35-1.75-.25-2.64l8.51-88.49c.21-1.9,1.11-3.65,2.52-4.94,1.41-1.29,3.24-2.02,5.15-2.05h285.05c.89-.02,1.78,.16,2.6,.51,.82,.35,1.55,.88,2.15,1.54,.6,.66,1.05,1.45,1.32,2.3,.27,.85,.35,1.75,.25,2.64l-8.51,88.49c-.21,1.9-1.11,3.65-2.52,4.94-1.41,1.29-3.24,2.02-5.15,2.06Z"/>
      <path class="cls-6" d="M532.97,725.43l4.02-41.83"/>
      <path class="cls-6" d="M562.47,696.12l-2.82,29.3"/>
      <path class="cls-6" d="M588.2,706.13l-1.85,19.3"/>
      <path class="cls-6" d="M618.1,672.72l-5.07,52.7"/>
      <path class="cls-6" d="M641.58,706.13l-1.86,19.3"/>
      <path class="cls-6" d="M671.25,675.05l-4.84,50.38"/>
      <path class="cls-6" d="M695.11,704.51l-2.01,20.92"/>
      <path class="cls-6" d="M720.85,714.28l-1.07,11.14"/>
      <path class="cls-6" d="M750.49,683.59l-4.02,41.83"/>
      <path class="cls-6" d="M778.71,667.67l-5.55,57.76"/>
      <path class="cls-19" d="M540.35,407.46l16.02,25.1c.72,1.13,.97,2.51,.68,3.82-.28,1.31-1.08,2.46-2.2,3.19l-2.59,1.68c-4.33,2.82-9.54,3.96-14.66,3.23-5.12-.74-9.79-3.3-13.16-7.23l-21.26-24.79,37.16-5Z"/>
      <path class="cls-18" d="M528.13,417.12s5.93,20.37,17.85,26.9c3.09-1.2,6.07-2.69,8.88-4.45l-13.36-22.45"/>
      <path class="cls-19" d="M254.06,508.71l62.93-30.15c5.93-2.84,10.94-7.29,14.47-12.84l60.79-95.62c3.78-5.95,9.27-10.63,15.75-13.42l87.55-37.72-18.74,141.75-.33,5.24s-23.16,59.98-79.92,81.77l-90.74,55.5-51.75-94.5Z"/>
      <path class="cls-18" d="M322.54,475.23s29.77,74.3,74.02,72.48l-28.25,17.28s-95.9-17.79-60-82.41l14.24-7.34Z"/>
      <path class="cls-18" d="M482,345.19s-30.96,18.76-29.31,62.27l37.17-13.89-7.86-48.38Z"/>
      <path class="cls-19" d="M559.76,407.46l16.02,25.1c.72,1.13,.97,2.51,.68,3.82-.28,1.31-1.08,2.46-2.2,3.19l-2.59,1.68c-4.33,2.82-9.54,3.96-14.66,3.23-5.12-.74-9.79-3.3-13.16-7.23l-21.26-24.79,37.16-5Z"/>
      <path class="cls-22" d="M796.6,417.36l-302.57-.27c-1.24,.03-2.46-.2-3.6-.68-1.14-.48-2.16-1.2-3.01-2.1-.84-.91-1.48-1.98-1.87-3.15s-.53-2.42-.4-3.64l16.31-181.13c.3-2.61,1.54-5.03,3.49-6.79,1.95-1.76,4.48-2.75,7.11-2.77l302.57,.27c1.24-.03,2.47,.2,3.61,.68,1.14,.48,2.16,1.2,3,2.1,.84,.91,1.48,1.98,1.87,3.15,.39,1.17,.53,2.42,.4,3.65l-16.31,181.13c-.3,2.61-1.54,5.03-3.49,6.79-1.95,1.76-4.48,2.75-7.11,2.77Z"/>
      <path class="cls-11" d="M514.06,324.27s27.16-5.49,34.47,7.25c7.31,12.74,13.61,36.68,33.06,33.59,19.45-3.09,34.33-65.66,53.45-65.09,19.12,.57,12.38,41.55,33.19,42.12,20.81,.57,17.11-22.89,30.98-22.24,16.83,.79,10.55,49.41,32.49,49.99,21.94,.57,25.52-64.22,58.68-63.08"/>
      <path class="cls-14" d="M529.51,247.15l53.23,.05"/>
      <path class="cls-13" d="M527.31,271.56l110.01,.1"/>
      <path class="cls-19" d="M424.31,416.46l38.81-17.1,39.69-27.1c10.44-7.12,32.24-10.33,40.09-.43,7.98,10.08-.98,30.01-10.67,38.46l-36.68,32.03-19.08,23.61-52.17-49.48Z"/>
      <path class="cls-8" d="M503.19,382.56s5.24,20.21,18.83,23.7l14.41-12.17c1.46-1.09,2.68-2.46,3.6-4.04,.91-1.58,1.49-3.32,1.71-5.13,.22-1.81,.06-3.64-.45-5.39-.52-1.75-1.38-3.37-2.55-4.77h0c-2.03-2.45-4.87-4.09-8-4.64-3.13-.55-6.36,.03-9.11,1.64l-18.44,10.8Z"/>
      <path class="cls-22" d="M319.38,476.06s-7.52,53.79,57.94,84.6c0,0-47.02,43.13-65.15,50.39-18.13,7.25-86.24-66.86-62.02-108.93,6.79-11.8,69.23-26.05,69.23-26.05Z"/>
      <path class="cls-18" d="M567.4,419.42s-25.51,.52-34.39,5.17l-6.41-7.47h39.33s1.47,2.31,1.47,2.31Z"/>
      <path class="cls-21" d="M1037.16,417.36h-181.41c-13.66,0-23.76-11.08-22.55-24.74l24.34-274.87c1.21-13.66,13.27-24.74,26.93-24.74h181.41c13.67,0,23.76,11.08,22.55,24.74l-24.34,274.87c-1.21,13.67-13.27,24.74-26.93,24.74Z"/>
      <path class="cls-17" d="M1011.19,248.21c28.73-27.48,31.62-71.07,6.47-97.36-25.15-26.29-68.83-25.33-97.55,2.15-28.72,27.48-31.62,71.07-6.47,97.36,25.15,26.29,68.83,25.33,97.55-2.15Z"/>
      <path class="cls-27" d="M969.49,202.74l45.54,41.53s10.36-11.13,13.45-19.09l-58.99-22.44Z"/>
      <path class="cls-22" d="M972.53,122.96l-6.47,73.08c-.14,1.33,.1,2.68,.72,3.87,.61,1.19,1.56,2.18,2.72,2.84l61.79,34.4s36.69-102.36-58.76-114.18Z"/>
      <path class="cls-2" d="M875.81,320.07h75.15"/>
      <path class="cls-2" d="M870.31,382.2h75.15"/>
      <path class="cls-9" d="M873.09,350.78h155.31"/>
      <path class="cls-19" d="M814.07,619.85s24.22-6.46,37.12,7.42c0,0,23.17-4.21,32.6,8.68,0,0,20.54,1.19,26.49,9.57,4.95,.68,9.63,2.66,13.56,5.74,3.93,3.08,6.98,7.14,8.83,11.78,5.62,13.24,.85,89.79-4.73,117.22-1.4,6.86-.92,13.97,1.39,20.58l14.2,40.82-98.28,41.08-23.33-60.86s-28.4-45.64-32.46-53.76c-4.06-8.11,2.82-75.45-11.03-117.51l35.64-30.79Z"/>
      <path class="cls-18" d="M834.59,854.97l-2.84-7.4s50.99-3.26,97.56-46.71l4.45,12.8s-5.75,26.44-31.94,38.9c-26.19,12.46-67.24,2.41-67.24,2.41Z"/>
      <path class="cls-23" d="M834.59,854.97s61.73,5.62,99.18-41.31c0,0,13.83,7.25,35.06,60.33,6.52,16.3-102.39,74.35-120,50.22,0,0-15.2-32.16-14.25-69.24Z"/>
      <path class="cls-19" d="M784.47,676.03s-2.13,11.3-12.2,11.3c-6.57,0-35.04-8.6-54.04-14.58-5.17-1.63-10.72-1.63-15.89,0-5.17,1.63-9.72,4.8-13.02,9.1l-1.16,1.5c-.57,.74-.99,1.59-1.22,2.51-.24,.91-.28,1.86-.14,2.78,.14,.93,.47,1.82,.97,2.61,.5,.8,1.15,1.49,1.92,2.02,16.09,11.23,59.53,41.71,65.08,47.27,6.84,6.84,44.91,45.17,44.91,45.17l-15.22-109.68Z"/>
      <path class="cls-18" d="M782.15,664.72s20.58,27.85,17.53,33.95c-3.05,6.1-34.95-12.54-34.95-12.54,0,0,25.75,6.62,17.42-21.41Z"/>
      <path class="cls-19" d="M778.42,650.64l-34.62-105.15c-1.19-3.61-1.64-7.42-1.33-11.2,.31-3.78,1.38-7.47,3.14-10.83,1.76-3.36,4.18-6.34,7.11-8.75,2.93-2.41,6.32-4.21,9.96-5.29,2.98-.88,6.18-.64,9,.67,2.82,1.31,5.06,3.61,6.3,6.46l48.57,111.66-48.14,22.42Z"/>
      <path class="cls-8" d="M763.41,605.04c.98,1.61,2.29,3,3.83,4.09,1.54,1.09,3.3,1.84,5.15,2.21"/>
      <path class="cls-8" d="M775.87,551.22c4.21-1.87,8.86-4.48,10.86-7.52l-12.89-30.61c-.28-.66-.69-1.25-1.21-1.74-.52-.49-1.14-.86-1.82-1.09-.68-.23-1.4-.31-2.11-.24-.71,.07-1.4,.29-2.02,.64-4.59,2.65-10.64,7.43-10.88,14.29l8.72,21.7c.43,1.06,1.07,2.02,1.87,2.83,.81,.81,1.77,1.45,2.83,1.87,1.06,.43,2.2,.64,3.34,.62,1.14-.02,2.27-.27,3.31-.74Z"/>
      <path class="cls-8" d="M822.65,619.24l11.94,26.29"/>
      <path class="cls-8" d="M851.66,627.82c6.07,8.7,9.32,19.04,9.31,29.65"/>
      <path class="cls-8" d="M884.35,636.45s6.01,13.78,6.51,24.68"/>
      <path class="cls-8" d="M911.11,646.35c2.37,5.82,3.29,12.12,2.67,18.37"/>
      <path class="cls-8" d="M715.11,706.13s7.11-9.03,4.67-13.56-13.29-10.93-19.56-10.24c-2.99,.45-5.88,1.43-8.52,2.9-.48,.25-.89,.62-1.18,1.08-.29,.46-.46,.98-.49,1.52-.03,.54,.09,1.08,.34,1.57,.25,.48,.61,.9,1.07,1.19l23.67,15.53Z"/>
      <path class="cls-21" d="M592.84,816.23h-216.61c-.89,.02-1.78-.16-2.6-.51-.82-.35-1.56-.88-2.15-1.54-.6-.66-1.05-1.45-1.32-2.3-.27-.85-.35-1.75-.25-2.64l8.51-88.49c.21-1.9,1.11-3.65,2.52-4.94,1.41-1.29,3.24-2.02,5.15-2.05h216.62c.89-.02,1.78,.16,2.6,.51,.82,.35,1.56,.88,2.16,1.54,.6,.66,1.05,1.45,1.32,2.3,.27,.85,.35,1.75,.25,2.64l-8.51,88.49c-.21,1.9-1.11,3.65-2.52,4.94-1.41,1.29-3.24,2.02-5.15,2.06Z"/>
      <path class="cls-5" d="M396.56,736.83h133.68"/>
      <path class="cls-6" d="M396.56,736.83h92.9"/>
      <path class="cls-5" d="M394.56,764.99h133.68"/>
      <path class="cls-6" d="M394.56,764.99h55.54"/>
      <path class="cls-5" d="M390.19,793.16h133.68"/>
      <path class="cls-6" d="M390.19,793.16h33.97"/>
      <path class="cls-17" d="M577.57,744.82c4.41,0,7.99-3.58,7.99-7.99s-3.58-7.99-7.99-7.99-7.99,3.58-7.99,7.99,3.58,7.99,7.99,7.99Z"/>
      <path class="cls-17" d="M574.98,771.75c4.41,0,7.99-3.58,7.99-7.99s-3.58-7.99-7.99-7.99-7.99,3.58-7.99,7.99,3.58,7.99,7.99,7.99Z"/>
      <path class="cls-17" d="M572.09,801.15c4.41,0,7.99-3.58,7.99-7.99s-3.58-7.99-7.99-7.99-7.99,3.58-7.99,7.99,3.58,7.99,7.99,7.99Z"/>
    </g>
  </g>
</svg>