<?xml version="1.0" encoding="UTF-8"?>
<svg id="Layer_1" data-name="Layer 1" xmlns="http://www.w3.org/2000/svg" xmlns:xlink="http://www.w3.org/1999/xlink" viewBox="0 0 1440 1024">
  <defs>
    <style>
      .cls-1, .cls-2, .cls-3, .cls-4, .cls-5, .cls-6, .cls-7, .cls-8, .cls-9, .cls-10, .cls-11 {
        fill: none;
      }

      .cls-12 {
        fill: url(#linear-gradient);
      }

      .cls-13 {
        clip-path: url(#clippath);
      }

      .cls-2 {
        stroke-width: .95px;
      }

      .cls-2, .cls-3, .cls-4, .cls-5, .cls-6, .cls-7, .cls-8, .cls-9, .cls-10, .cls-11 {
        stroke-linecap: round;
      }

      .cls-2, .cls-14 {
        stroke: #e56441;
      }

      .cls-15 {
        fill: #f5f8ff;
      }

      .cls-16, .cls-14 {
        fill: #e56441;
      }

      .cls-17 {
        fill: #fff;
      }

      .cls-18 {
        fill: #fcba9f;
      }

      .cls-19 {
        fill: #ffccb3;
      }

      .cls-20 {
        fill: #ff967c;
      }

      .cls-21 {
        fill: #febb94;
      }

      .cls-22 {
        fill: #71c8ea;
      }

      .cls-23 {
        fill: #96bafd;
      }

      .cls-24 {
        fill: #93523e;
      }

      .cls-25 {
        fill: #d1e8f7;
      }

      .cls-26 {
        fill: #1f2d49;
      }

      .cls-27 {
        fill: #233b62;
      }

      .cls-28 {
        fill: #080b09;
      }

      .cls-29 {
        fill: #1c85e8;
      }

      .cls-30 {
        fill: #0d1b33;
      }

      .cls-31 {
        fill: #465393;
      }

      .cls-32 {
        fill: #5661ae;
      }

      .cls-33 {
        fill: #5ca4e6;
      }

      .cls-34 {
        fill: #45e591;
      }

      .cls-3 {
        stroke-linejoin: round;
        stroke-width: 6.5px;
      }

      .cls-3, .cls-4, .cls-6, .cls-7, .cls-8, .cls-9, .cls-10, .cls-11 {
        stroke: #fff;
      }

      .cls-4, .cls-5, .cls-6, .cls-7, .cls-8, .cls-9, .cls-10, .cls-11 {
        stroke-miterlimit: 10;
      }

      .cls-4, .cls-8 {
        stroke-width: 10px;
      }

      .cls-4, .cls-10 {
        opacity: .6;
      }

      .cls-4, .cls-10, .cls-11 {
        isolation: isolate;
      }

      .cls-5 {
        stroke: #45e591;
      }

      .cls-5, .cls-6 {
        stroke-width: 16.52px;
      }

      .cls-7 {
        stroke-width: 4px;
      }

      .cls-35 {
        fill: url(#linear-gradient-3);
      }

      .cls-36 {
        fill: url(#linear-gradient-4);
      }

      .cls-37 {
        fill: url(#linear-gradient-2);
      }

      .cls-9, .cls-11 {
        stroke-width: 5px;
      }

      .cls-10 {
        stroke-width: 6px;
      }

      .cls-11 {
        opacity: .5;
      }
    </style>
    <clipPath id="clippath">
      <rect class="cls-1" x="247.68" y="62.67" width="935.8" height="884.42"/>
    </clipPath>
    <linearGradient id="linear-gradient" x1="405.11" y1="-1830.47" x2="423.38" y2="-2140.51" gradientTransform="translate(262 -1594.99) scale(1 -1)" gradientUnits="userSpaceOnUse">
      <stop offset="0" stop-color="#fff"/>
      <stop offset="1" stop-color="#94b9ff"/>
    </linearGradient>
    <linearGradient id="linear-gradient-2" x1="355.18" y1="-1922.33" x2="431.61" y2="-2458.08" xlink:href="#linear-gradient"/>
    <linearGradient id="linear-gradient-3" x1="553.01" y1="-1922.33" x2="629.44" y2="-2458.08" xlink:href="#linear-gradient"/>
    <linearGradient id="linear-gradient-4" x1="186.7" y1="-2256.62" x2="205.33" y2="-2486.03" xlink:href="#linear-gradient"/>
  </defs>
  <rect class="cls-17" x="-4.32" y="-7.33" width="1440" height="1024"/>
  <g class="cls-13">
    <g>
      <path class="cls-15" d="M722.88,828.22c196.01,0,354.9-4.67,354.9-10.44s-158.9-10.44-354.9-10.44-354.9,4.67-354.9,10.44,158.9,10.44,354.9,10.44Z"/>
      <path class="cls-33" d="M771.38,813.56h-240.97c-19.54,0-32.7-15.84-29.39-35.39l97.05-572.35c3.31-19.55,21.85-35.39,41.39-35.39h240.97c19.54,0,32.7,15.85,29.39,35.39l-97.05,572.35c-3.31,19.54-21.85,35.39-41.39,35.39Z"/>
      <path class="cls-25" d="M741.28,813.56h-240.97c-19.54,0-32.7-15.84-29.39-35.39l97.05-572.35c3.31-19.55,21.84-35.39,41.39-35.39h240.97c19.55,0,32.7,15.85,29.39,35.39l-97.05,572.35c-3.31,19.54-21.85,35.39-41.39,35.39Z"/>
      <path class="cls-17" d="M742.67,794.42h-237.25c-10.15,0-16.98-8.23-15.26-18.38l96.33-568.11c1.72-10.15,11.34-18.38,21.49-18.38h237.25c10.15,0,16.98,8.23,15.26,18.38l-96.33,568.11c-1.72,10.15-11.34,18.38-21.49,18.38Z"/>
      <path class="cls-12" d="M765.12,380.97h-226.85l23.64-130.62c1.55-7.96,9.26-14.42,17.22-14.42h214.19c7.96,0,13.16,6.46,11.61,14.42l-22.6,116.2c-1.55,7.96-9.26,14.42-17.22,14.42Z"/>
      <path class="cls-29" d="M746.84,364.17H407.23c-7.96,0-13.16-6.46-11.61-14.42l22.6-116.2c1.55-7.96,9.26-14.42,17.22-14.42h339.61c7.96,0,13.16,6.46,11.61,14.42l-22.6,116.2c-1.55,7.96-9.26,14.42-17.22,14.42Z"/>
      <path class="cls-23" d="M725.17,779.61l-210.63,1c-7.96,0-13.16-6.46-11.61-14.42l22.6-116.2c1.55-7.96,9.26-14.42,17.22-14.42l210.63-1c7.96,0,13.16,6.46,11.62,14.42l-22.6,116.2c-1.55,7.96-9.26,14.42-17.22,14.42Z"/>
      <path class="cls-5" d="M537.7,744.42c5.99-46.88,50.53-84.88,99.48-84.88s83.77,38,77.78,84.88"/>
      <path class="cls-6" d="M537.7,744.42c5.99-46.88,50.53-84.88,99.48-84.88,24.23,0,44.99,9.31,59.06,24.4"/>
      <path class="cls-37" d="M699.98,618.15h-150.82c-8.05,0-13.49-6.53-12.15-14.58l31.85-191.59c1.34-8.05,8.95-14.58,17-14.58h150.82c8.05,0,13.49,6.52,12.15,14.58l-31.85,191.59c-1.34,8.05-8.95,14.58-17,14.58Z"/>
      <path class="cls-17" d="M595.61,498.72h-20.56c-1.13,.04-2.22,.46-3.08,1.2-.86,.74-1.44,1.75-1.65,2.86l-11.17,67.18c-.11,.5-.1,1.01,.02,1.51,.12,.49,.35,.95,.68,1.34,.33,.39,.74,.7,1.2,.91,.46,.21,.97,.31,1.48,.29h20.56c1.13-.04,2.22-.46,3.08-1.2,.86-.74,1.44-1.74,1.65-2.86l11.17-67.18c.11-.5,.1-1.01-.02-1.51-.12-.49-.35-.95-.68-1.35-.33-.39-.74-.7-1.2-.91-.46-.21-.97-.31-1.48-.29Z"/>
      <path class="cls-17" d="M633.12,521.7h-20.56c-1.13,.04-2.22,.46-3.08,1.2-.86,.74-1.44,1.74-1.65,2.86l-7.35,44.19c-.11,.5-.1,1.01,.02,1.51,.12,.49,.35,.95,.68,1.34,.33,.39,.74,.7,1.2,.91,.46,.21,.97,.31,1.48,.29h20.56c1.13-.04,2.22-.46,3.08-1.2s1.44-1.74,1.65-2.86l7.35-44.19c.11-.5,.1-1.01-.02-1.51-.12-.49-.35-.95-.68-1.34s-.74-.7-1.2-.91c-.47-.21-.97-.31-1.48-.29Z"/>
      <path class="cls-17" d="M682.79,457.03h-20.56c-1.13,.04-2.21,.46-3.08,1.2-.86,.74-1.44,1.74-1.65,2.86l-18.1,108.86c-.11,.5-.1,1.01,.02,1.51,.12,.49,.35,.95,.68,1.34,.33,.39,.74,.7,1.2,.91,.46,.21,.97,.31,1.48,.29h20.56c1.13-.04,2.22-.46,3.08-1.2,.86-.74,1.44-1.74,1.65-2.86l18.1-108.86c.11-.5,.1-1.01-.02-1.51-.12-.49-.35-.95-.68-1.35-.33-.39-.74-.7-1.2-.91-.46-.21-.97-.31-1.48-.29Z"/>
      <path class="cls-17" d="M718.18,485.25h-20.56c-1.13,.04-2.22,.46-3.07,1.2-.86,.74-1.44,1.74-1.65,2.86l-13.41,80.64c-.11,.5-.1,1.01,.02,1.51,.12,.49,.35,.95,.68,1.34,.33,.39,.74,.7,1.2,.91,.47,.21,.97,.31,1.48,.29h20.56c1.13-.04,2.22-.46,3.08-1.2,.86-.74,1.44-1.74,1.65-2.86l13.41-80.64c.11-.5,.1-1.01-.02-1.51-.12-.49-.35-.95-.68-1.35-.33-.39-.74-.7-1.2-.91-.46-.21-.97-.31-1.48-.29Z"/>
      <path class="cls-8" d="M583.92,420.97h55.67"/>
      <path class="cls-8" d="M580.77,439.88h27.84"/>
      <path class="cls-10" d="M565.15,587.69h10.77"/>
      <path class="cls-10" d="M606.49,587.69h10.77"/>
      <path class="cls-10" d="M645.4,587.69h10.77"/>
      <path class="cls-10" d="M685.48,587.69h10.77"/>
      <path class="cls-35" d="M897.81,618.15h-150.82c-8.05,0-13.49-6.53-12.15-14.58l31.85-191.59c1.34-8.05,8.95-14.58,17-14.58h150.82c8.05,0,13.49,6.52,12.15,14.58l-31.85,191.59c-1.34,8.05-8.95,14.58-17,14.58Z"/>
      <path class="cls-17" d="M789.53,527.6h-20.56c-1.13,.04-2.22,.46-3.08,1.2s-1.44,1.74-1.65,2.86l-7.26,38.29c-.11,.5-.1,1.01,.02,1.51,.12,.49,.35,.95,.68,1.34,.33,.39,.74,.7,1.2,.91,.46,.21,.97,.31,1.48,.29h20.56c1.13-.04,2.22-.46,3.08-1.2s1.44-1.74,1.65-2.86l7.26-38.29c.11-.5,.1-1.01-.02-1.51-.12-.49-.35-.95-.68-1.34s-.74-.7-1.2-.91c-.46-.21-.97-.31-1.48-.29Z"/>
      <path class="cls-17" d="M838.72,468.3h-20.56c-1.13,.04-2.22,.46-3.08,1.2-.86,.74-1.44,1.74-1.65,2.86l-15.11,97.59c-.11,.5-.1,1.01,.02,1.51,.12,.49,.35,.95,.68,1.34,.33,.39,.74,.7,1.2,.91,.46,.21,.97,.31,1.48,.29h20.56c1.13-.04,2.22-.46,3.08-1.2,.86-.74,1.44-1.74,1.65-2.86l15.11-97.59c.11-.5,.1-1.01-.02-1.51-.12-.49-.35-.95-.68-1.35-.33-.39-.74-.7-1.2-.91-.46-.21-.97-.31-1.48-.29Z"/>
      <path class="cls-17" d="M873.82,496.17h-20.56c-1.13,.04-2.21,.46-3.07,1.2-.86,.74-1.44,1.74-1.65,2.86l-11.29,69.73c-.11,.5-.1,1.01,.02,1.51,.12,.49,.35,.95,.68,1.34,.33,.39,.74,.7,1.2,.91,.47,.21,.97,.31,1.48,.29h20.56c1.13-.04,2.22-.46,3.08-1.2s1.44-1.74,1.65-2.86l11.3-69.73c.11-.5,.1-1.01-.02-1.51-.12-.49-.35-.95-.68-1.35-.33-.39-.74-.7-1.2-.91-.46-.21-.97-.31-1.48-.29Z"/>
      <path class="cls-17" d="M916.01,485.25h-20.56c-1.13,.04-2.22,.46-3.07,1.2-.86,.74-1.44,1.74-1.65,2.86l-13.41,80.64c-.11,.5-.1,1.01,.02,1.51,.12,.49,.35,.95,.68,1.34,.33,.39,.74,.7,1.2,.91,.46,.21,.97,.31,1.48,.29h20.56c1.13-.04,2.22-.46,3.08-1.2,.86-.74,1.44-1.74,1.65-2.86l13.41-80.64c.11-.5,.1-1.01-.02-1.51-.12-.49-.35-.95-.68-1.35-.33-.39-.74-.7-1.2-.91-.47-.21-.97-.31-1.48-.29Z"/>
      <path class="cls-8" d="M781.75,420.97h55.67"/>
      <path class="cls-8" d="M778.6,439.88h27.84"/>
      <path class="cls-10" d="M762.98,587.69h10.77"/>
      <path class="cls-10" d="M804.32,587.69h10.77"/>
      <path class="cls-10" d="M843.23,587.69h10.77"/>
      <path class="cls-10" d="M883.31,587.69h10.77"/>
      <path class="cls-22" d="M257.64,833.47l42.83,89.59-5.31,2.54c-1.79,.86-3.85,.97-5.73,.3-1.87-.66-3.41-2.04-4.26-3.83l-36.37-76.07c-.86-1.79-.97-3.85-.3-5.73,.66-1.87,2.04-3.41,3.83-4.26l5.31-2.54h0Z"/>
      <path class="cls-19" d="M304.27,813.24l-29.56,12.22,16.58,23.45,26.2-7.99-13.23-27.67Z"/>
      <path class="cls-32" d="M285.39,826.39s11.54,17.82,13.28,27.78c1.74,9.96,7.7,60.33,6.1,64.87-1.15,3.26-5.34,4.66-8,4.96-.58,.06-1.17-.06-1.68-.35-.51-.29-.92-.73-1.17-1.26l-38.88-81.33c-.65-1.36-.74-2.91-.26-4.34,.49-1.42,1.51-2.6,2.86-3.27,5.38-2.7,13.61-6.75,17.07-8.01,5.35-1.95,8.89-1.94,10.68,.94Z"/>
      <path class="cls-22" d="M494.61,869.03l-40.16,74.14c-.95,1.75-2.55,3.05-4.45,3.61-1.9,.57-3.95,.35-5.7-.59l-5.18-2.8,47.3-87.31,5.18,2.8c1.75,.95,3.05,2.55,3.61,4.45,.57,1.9,.35,3.96-.59,5.7Z"/>
      <path class="cls-19" d="M440.88,833.51l28.9,13.7-17.75,22.58-25.76-9.31,14.61-26.97Z"/>
      <path class="cls-32" d="M459.07,847.6s-12.43,17.22-14.67,27.07c-2.24,9.86-10.74,59.87-9.37,64.48,.99,3.32,5.1,4.93,7.74,5.36,.58,.09,1.17,0,1.7-.26s.96-.68,1.23-1.2l42.94-79.26c.72-1.32,.89-2.87,.47-4.32s-1.38-2.67-2.69-3.41c-5.23-2.97-13.25-7.43-16.64-8.86-5.25-2.22-8.78-2.38-10.71,.4Z"/>
      <path class="cls-25" d="M527.94,727.89s11.06,54.94,2.48,65.71l-218.78,56.02-18.66-34.95,127.76-57.97,25.59-35.07,81.62,6.26Z"/>
      <path class="cls-33" d="M472.58,767.1l-48.27,16.15-22.52,9.44,29.29,26.35-26.19,5.92-71.43-57.86h139.12Z"/>
      <path class="cls-33" d="M306.69,810.1l1.48,5.16,33.92,26.48,31.86-7.78s-61.47-29.25-67.27-23.86Z"/>
      <path class="cls-25" d="M368.1,724.69s-61.87-3.36-92.53-.66c-19.74,1.73-26.86,52.26-11.11,61.45l169.11,86.59,19.93-36.01-109.09-73.84,78.04-10.98-54.35-26.55Z"/>
      <path class="cls-25" d="M280.77,789.79c18.27,0,33.08-14.81,33.08-33.08s-14.81-33.08-33.08-33.08-33.08,14.81-33.08,33.08,14.81,33.08,33.08,33.08Z"/>
      <path class="cls-25" d="M524.93,794.06c18.27,0,33.08-14.81,33.08-33.08s-14.81-33.08-33.08-33.08-33.08,14.81-33.08,33.08,14.81,33.08,33.08,33.08Z"/>
      <path class="cls-32" d="M434.3,604.87c-3.48-17.21,4.71-16.76,7.44-19.5,0,0,10.23-8.44,18.03-.57,8.25,8.32,55.56,72.95,55.56,72.95l-29.6,27.22-5.56-6.64-14.41-17.19-15.42-18.37-1.92-2.09-20.8-23.55s8.65-3.2,6.67-12.26Z"/>
      <path class="cls-32" d="M450.72,622.15c11.91-3.99,18.34-16.88,14.35-28.8-3.99-11.91-16.88-18.34-28.8-14.35-11.91,3.99-18.34,16.88-14.35,28.8,3.99,11.91,16.88,18.34,28.8,14.35Z"/>
      <path class="cls-31" d="M448.7,640.59c-.6-3.6-1.79-10.79-3.08-17.34l-6.83-31.73s18.34,27.11,26.79,45.99c6.26,14.15,13.52,28.57,14.72,40.77l-14.41-17.19-15.42-18.37-1.78-2.14Z"/>
      <path class="cls-19" d="M544.9,584.99c7.03-12.83,3.65-15.01,6.65-22.31,2.95-7.12-2.29-24.78,2.73-22.37,5.01,2.41,6.56,8.81,6.56,8.81,3.43-6.06,6.58-17.22,14.79-18.49,8.21-1.28,8.93,1.31,13.58,5.12,12.37,10.29-3.4,25.76-6.04,31.65-1.69,3.69-14.14,14.95-15.52,17.41l-6.27,9.09-16.48-8.9Z"/>
      <path class="cls-16" d="M569.07,549.91l10-18.46-10,18.46Z"/>
      <path class="cls-2" d="M569.07,549.91l10-18.46"/>
      <path class="cls-16" d="M575.62,552.9l10.9-17.19-10.9,17.19Z"/>
      <path class="cls-2" d="M575.62,552.9l10.9-17.19"/>
      <path class="cls-16" d="M583.4,556.2l6.23-10.41-6.23,10.41Z"/>
      <path class="cls-2" d="M583.4,556.2l6.23-10.41"/>
      <path class="cls-16" d="M566.6,566.16c-.05-6.39-3.89-14.12-3.89-14.12l3.89,14.12Z"/>
      <path class="cls-2" d="M566.6,566.16c-.05-6.39-3.89-14.12-3.89-14.12"/>
      <path class="cls-32" d="M485.48,657.24l60.19-80.16c.38-.47,.93-.78,1.53-.88,.6-.09,1.21,.04,1.72,.37l15.76,10.42c.75,.51,1.28,1.27,1.5,2.15,.22,.88,.09,1.81-.34,2.6l-48.41,89.27-31.96-23.78Z"/>
      <path class="cls-32" d="M500.11,691.09c11.13,0,20.16-9.03,20.16-20.16s-9.02-20.16-20.16-20.16-20.16,9.02-20.16,20.16,9.02,20.16,20.16,20.16Z"/>
      <path class="cls-32" d="M410.72,567.65s33.78,8.94,39.58,11.26c5.8,2.32,6.18,11.6,6.57,18.17,.39,6.57-.91,154.16-.91,154.16l-74.76-2.88-55.91-32.72s2.43-117.11,3.2-122.52c.77-5.41-5.3-10.07,1.28-12.8l42.33-11.18,38.61-1.49Z"/>
      <path class="cls-31" d="M354.47,620.23l.6,109.04-32.14-35.82,15.55-76.62,15.99,3.39Z"/>
      <path class="cls-31" d="M366.6,570.81s-4.78,9.62,0,16.25c4.78,6.63,23.93,13.08,37.01,12.89,13.08-.19,20.01-12.66,14.08-30.12l-21.66-6.09-23.91,5.4-5.51,1.67Z"/>
      <path class="cls-24" d="M420.74,487.93s9.42,20.32-.63,24.52c-10.05,4.2-8.88-23.54,.63-24.52Z"/>
      <path class="cls-19" d="M410.12,552.96l2.73,30.72s2.61,4.12-7.56,6.28c-6.54,1.39-24.17-5.55-27.58-7.64-1.45-.77-2.59-2.03-3.22-3.55-.63-1.52-.71-3.21-.22-4.79,1.04-3.76,5.34-35.08,5.34-35.08l30.52,14.05Z"/>
      <path class="cls-20" d="M410.64,558.88l-16.23-8.02,18.1,29.03-1.86-21.01Z"/>
      <path class="cls-19" d="M415.33,493.81s9.53,23.89,12.98,40.65c3.49,16.91-2.08,21.13-9.42,23.62-5.79,1.96-15.03,3.53-21.32,1.56-11.47-3.59-22.68-13.95-25.37-16.08-4.15-3.29-8.26-18.24-2.17-26.7,6.09-8.46,30.08-35.03,45.29-23.05Z"/>
      <path class="cls-28" d="M403.07,526.78c1.27-.5,1.68-2.47,.92-4.4-.76-1.93-2.4-3.1-3.67-2.6-1.27,.5-1.68,2.47-.92,4.4,.76,1.93,2.4,3.1,3.67,2.6Z"/>
      <path class="cls-28" d="M420.48,519.81c1.27-.5,1.68-2.47,.92-4.4-.76-1.93-2.4-3.1-3.67-2.6-1.27,.5-1.68,2.47-.92,4.4,.76,1.93,2.4,3.1,3.67,2.6Z"/>
      <path class="cls-16" d="M414.1,523.1s-1.55,4.68,1.7,4.23c3.09-.54,5.19,.98,2.49,4.12"/>
      <path class="cls-2" d="M414.1,523.1s-1.55,4.68,1.7,4.23c3.09-.54,5.19,.98,2.49,4.12"/>
      <path class="cls-14" d="M418.44,535.59h.02s.02,0,.02,0c.05-.01,.09-.02,.14,0,.05,.01,.09,.03,.12,.07,.03,.03,.06,.07,.07,.12,.01,.05,.01,.09,0,.14v.04s-.01,.04-.01,.04c-.2,2.05-.71,3.27-1.33,3.95-.6,.66-1.35,.88-2.2,.82-.87-.07-1.83-.43-2.76-.94-.92-.5-1.77-1.11-2.43-1.64-.05-.04-.08-.09-.1-.15-.02-.06-.02-.13,0-.19,.01-.06,.05-.12,.09-.16,.05-.05,.1-.08,.17-.09h0c2.51-.64,6.31-1.53,8.21-1.98Z"/>
      <path class="cls-28" d="M392.04,518.6l.24,.33c.3,.52,.8,.89,1.38,1.05,.58,.15,1.2,.07,1.72-.23l8.79-5.41c.44-.24,.76-.64,.92-1.12,.15-.48,.13-.99-.08-1.45-.11-.28-.29-.54-.51-.76-.22-.21-.48-.38-.77-.48-.29-.1-.6-.15-.9-.12-.31,.02-.6,.11-.87,.26l-9.02,5.08c-.25,.13-.47,.3-.65,.51-.18,.21-.32,.46-.4,.73-.08,.27-.11,.55-.08,.82,.03,.28,.11,.55,.24,.79Z"/>
      <path class="cls-28" d="M422.39,504.71l-10.31,.96c-.3,.03-.6,.13-.86,.28-.27,.15-.49,.36-.67,.61-.18,.25-.3,.53-.36,.83-.06,.3-.06,.61,.01,.91,.09,.49,.36,.93,.76,1.23,.4,.3,.9,.44,1.39,.4l10.31-.54c.6-.05,1.15-.33,1.55-.79,.39-.46,.59-1.05,.54-1.65v-.41c-.02-.28-.11-.55-.24-.79-.13-.24-.32-.46-.54-.63-.22-.17-.47-.3-.74-.37-.27-.07-.55-.09-.83-.05Z"/>
      <path class="cls-24" d="M403.51,498.57s-5.15,9.79-14.48,12.7c-9.34,2.91-4.24,17.64-4.24,17.64,0,0-6.4-6.37-13.76-2.78-7.36,3.59-1.77,17.66,8.4,17.84l-2.77,15.83s-5.15-6.41-10.57-9.84c-5.42-3.43-24.87-16.75-16.28-34.3,0,0-6.73-24.64,11.72-37.41,18.44-12.77,34.41-7.95,34.41-7.95,0,0,4.4-6.98,14.59-5.55,10.19,1.43,12.54,19.8,9.17,26.45s-8.88,9.47-16.18,7.38Z"/>
      <path class="cls-32" d="M326.67,596.77c12.97-11.83,16.8-4.57,20.55-3.64,0,0,12.5,4.44,9.75,15.17-2.9,11.35-34.04,85.15-34.04,85.15l-38.56-11.41,2.84-8.18,7.34-21.2,7.84-22.67,.81-2.72,9.52-29.94s7.19,5.77,13.95-.57Z"/>
      <path class="cls-32" d="M352.36,617.24c8.17-9.54,7.06-23.9-2.49-32.08-9.54-8.17-23.9-7.06-32.07,2.49-8.17,9.54-7.06,23.91,2.49,32.08,9.54,8.17,23.9,7.06,32.07-2.49Z"/>
      <path class="cls-32" d="M319.11,675.33l71.6,70.16c.42,.44,.65,1.02,.67,1.63,.01,.61-.2,1.2-.59,1.66l-12.39,14.26c-.6,.68-1.43,1.1-2.33,1.2-.9,.1-1.8-.14-2.54-.67l-82.17-59.67,27.76-28.58Z"/>
      <path class="cls-32" d="M303.62,708.19c11.13,0,20.16-9.02,20.16-20.16s-9.03-20.16-20.16-20.16-20.16,9.02-20.16,20.16,9.02,20.16,20.16,20.16Z"/>
      <path class="cls-17" d="M420.1,661.81l-38.86,107.65h-78.13c0-3.29,1.31-6.44,3.63-8.76,2.33-2.32,5.48-3.63,8.76-3.63h56.52l33.55-95.26h14.51Z"/>
      <path class="cls-36" d="M420.1,661.81h104.82l-40.54,107.65h-103.14l38.86-107.65Z"/>
      <path class="cls-9" d="M566.47,310.74s17.47-3.68,23.01,4.82c5.54,8.49,11.08,24.45,23.64,22.38s22.16-43.8,34.72-43.43c12.56,.37,7.02,27.7,20.68,28.07,13.66,.37,10.34-15.14,21.42-15.14s7.39,33.24,21.79,33.61c14.4,.37,12.93-42.84,34.72-42.1"/>
      <path class="cls-5" d="M515.49,304.99c8.89-21.85,.33-45.98-19.13-53.9s-42.44,3.37-51.34,25.22c-8.9,21.85-.33,45.98,19.13,53.9,19.46,7.92,42.45-3.37,51.34-25.22Z"/>
      <path class="cls-6" d="M498.37,326.14c-10.27,6.77-22.85,8.71-34.22,4.08-19.46-7.92-28.02-32.06-19.13-53.9,8.89-21.85,31.88-33.14,51.34-25.22"/>
      <path class="cls-8" d="M579.6,248.56h76.86"/>
      <path class="cls-4" d="M575.96,269.76h31.27"/>
      <path class="cls-27" d="M1161.46,775.48c-.22,.02-.32,.15-.2,.25q-.1,.12-.07,.34c-.47,1.52-.8,3.09-.99,4.67l18.96,15.24,2.1-2.36s-7-8.66-9.62-11.17c-1.13-1.11-2.14-2.12-3.15-3.13-.88-.91-1.67-1.95-2.43-2.76-1.06-1.46-4.13-.9-4.16-1.12-.12-.1-.44,.05-.44,.05Z"/>
      <path class="cls-19" d="M1018.09,643.07l18.31,17.74,102.37,98.86,1.87,1.7,.81,1.26,.12,.1,14.5,21.97,1.62,2.51,.54,.84,9.81,14.97-8.08,4.02-2.34,1.15-3.3,1.59-5.21,2.7-.09,.12-5.53,2.84-.27-.42-12.6-24.08c-2.44-4.65-5.87-8.72-10.04-11.91l-111.32-85.21-21.16-16.2,29.99-34.55Z"/>
      <path class="cls-29" d="M1154.67,763.55c-4.91-2.28-10.42-4.32-15.8-4,3.24,2.84,4.72,7.9,6.87,11.59,4.41,7.59,15.72,21.69,9.94,33.68-3.25,6.74-12.33,10.31-12.46,10.21-1.52,6.92-9.05,35.07,5.97,18.75,8.39-9.11,16.71-18.85,20.89-28.51,1.72-3.96-1.91-7.91-3.69-11.26-2.28-5.06-5.68-11.77-5.25-17.37l.09-.12c.25-.39,19.7,17.02,20.03,17.11,.67-1.08,2.23-3.27,2.23-3.27,0,0-27.89-26.46-28.82-26.8Z"/>
      <path class="cls-27" d="M945.2,855.64c-.18-.14-.33-.12-.31,.04q-.16,.02-.29,.2c-1.4,.76-2.73,1.65-3.97,2.65l2.9,24.15,3.15-.22s1.05-11.08,.93-14.72c-.03-1.58-.04-3.01-.06-4.44,0-1.27,.17-2.56,.2-3.67,.26-1.78-2.33-3.53-2.19-3.71-.02-.16-.35-.28-.35-.28Z"/>
      <path class="cls-19" d="M935.32,660.74l.67,25.48,4.04,142.26,.15,2.52-.3,1.46,.02,.16-5,25.84-.6,2.93-.2,.98-3.45,17.56-8.59-2.78-2.48-.81-3.47-1.17-5.6-1.71-.16,.02-5.94-1.83,.1-.49,7.83-26.03c1.51-5.04,1.9-10.34,1.15-15.54l-19.98-138.76-3.8-26.38,45.6-3.72Z"/>
      <path class="cls-29" d="M948.69,842.36c-1.91-5.06-4.43-10.37-8.5-13.91,.33,4.3-2.15,8.95-3.19,13.09-2.15,8.51-3.93,26.5-16.44,31.03-7.03,2.54-16.03-1.25-16.05-1.41-5.92,3.88-31,18.74-8.85,17.58,12.37-.65,25.13-1.79,34.88-5.77,4-1.63,4.17-6.99,5.23-10.63,1.91-5.21,4.16-12.39,8.39-16.09l.16-.02c.45-.1,2.17,25.94,2.35,26.23,1.23-.31,3.88-.78,3.88-.78,0,0-1.43-38.41-1.86-39.31Z"/>
      <path class="cls-26" d="M907.74,469.55l-36.19,152.82-.07,10.85,29.43,180.95,46.85-5.07-13.59-172.82,37.28-90.17-7.54-73.95-56.17-2.61Z"/>
      <path class="cls-26" d="M902.67,659.48c17.48,0,31.64-14.17,31.64-31.64s-14.17-31.64-31.64-31.64-31.64,14.17-31.64,31.64,14.17,31.64,31.64,31.64Z"/>
      <path class="cls-30" d="M946.05,607.55l-8.92-75.51-2.95,104.23,11.88-28.73Z"/>
      <path class="cls-26" d="M1005.42,469.07s16.87,28.35,17.09,52.08c.34,35.63-12.51,99.51-12.51,99.51l112.19,113.4-26.71,40.05s-95.73-79.43-136.24-117.16l-9.07-18.37-13.05-106.54,19.95-62.97h48.35Z"/>
      <path class="cls-30" d="M907.74,469.55l98.27,1.01,9.55,19.76-109.48-13.76,1.66-7.01Z"/>
      <path class="cls-26" d="M981.54,666.13c17.48,0,31.65-14.17,31.65-31.64s-14.17-31.64-31.65-31.64-31.64,14.17-31.64,31.64,14.17,31.64,31.64,31.64Z"/>
      <path class="cls-26" d="M896.27,259.55s1.32,14.69-2.56,28.81c-3.88,14.12-33.22,44.02-7.2,68.38,26.03,24.36,57.86-40.98,57.86-40.98l-9.97-30.18-34.47-35.86-3.67,9.82Z"/>
      <path class="cls-26" d="M975.67,262.97s7.81,9.92,25.61,18.03c17.46,7.96,36.26,21.04,32.39,49.56-3.88,28.52-55.5,6.37-70.66-9.97-15.17-16.33-13.08-45.5-13.08-45.5l25.74-12.12Z"/>
      <path class="cls-21" d="M935.75,316.41s-19.81,7.84-22.83,10.26c-3.02,2.42-5.9,22.17-11.04,31.54-5.14,9.38-12.66,26.68-1.68,42.58,10.99,15.89,9.82,28.52,9.82,28.52l-2.34,39.87,94.68,1.75c.84,.03,1.67-.12,2.44-.44,.77-.32,1.46-.8,2.04-1.4,.57-.61,1-1.33,1.28-2.12,.27-.79,.37-1.63,.3-2.46-1.05-11.63-5.86-27.95-6.24-46.46-.51-25.09-.89-108.92-.89-108.92l-41.25-1.3c-8.31,1.43-24.29,8.58-24.29,8.58Z"/>
      <path class="cls-20" d="M985.05,343.39s-13.8,12.58-14.61,21.92c-.81,9.33-2.69,35.36-20.42,37.95-21.73,3.18-27.42,6.28-17.35,8.71,10.08,2.43,32.94-1.51,32.94,8.93,0,7.43,8.88,12.99,13.35,8.93,4.46-4.06,40.02-65.74,6.09-86.44Z"/>
      <path class="cls-19" d="M818.64,353.93l-7.48-9.58c-1.57-2.24-3.65-4.07-6.07-5.34-3.68-1.84-9.32-5.28-11.28-8.72-3.25-5.46-16.06-20.21-4.95-31.68,4.11-4.23,3.09-3.23,11.31-3.1,8.22,.13,9.48,8.66,13.59,14.24,0,0,.92-6.44,5.46-9.38,4.54-2.94,1.53,15.03,5.02,21.84,3.49,6.81,.67,9.39,8.95,21.36l-14.55,10.36Z"/>
      <path class="cls-16" d="M798.91,296.5l6.68,15.16-6.68-15.16Z"/>
      <path class="cls-2" d="M798.91,296.5l6.68,15.16"/>
      <path class="cls-16" d="M790.2,299.19l9.26,16.14-9.26-16.14Z"/>
      <path class="cls-2" d="M790.2,299.19l9.26,16.14"/>
      <path class="cls-16" d="M784.73,309.8l7.3,9.64-7.3-9.64Z"/>
      <path class="cls-2" d="M784.73,309.8l7.3,9.64"/>
      <path class="cls-16" d="M812.03,313.19s-2.83,8.1-2.34,14.48l2.34-14.48Z"/>
      <path class="cls-2" d="M812.03,313.19s-2.83,8.1-2.34,14.48"/>
      <path class="cls-21" d="M917.73,324.06c-7.68,2.66-18.39,8.06-21.28,14.08l-25.6,58.31-42.63-64.77-16.14,17,39.81,82.34c7.27,18.11,25.76,24.91,39.14,5.4l21.39-33.59,5.31-78.77Z"/>
      <path class="cls-20" d="M906.81,374.25s-2.31-3.98-2.31,16.8l-13.48,45.37,21.39-33.59c17.16-23.07,3.6-29.23-5.6-28.57Z"/>
      <path class="cls-29" d="M953.74,346.74l-70.71,28.16c-2.2,.88-3.27,3.37-2.39,5.56l35.39,88.85c.88,2.2,3.36,3.27,5.56,2.39l70.71-28.16c2.2-.88,3.27-3.37,2.39-5.56l-35.39-88.85c-.88-2.2-3.36-3.27-5.56-2.39Z"/>
      <path class="cls-7" d="M893.82,383.26l29.16-11.61"/>
      <path class="cls-7" d="M898.22,393.7l13.29-5.29"/>
      <path class="cls-19" d="M933.24,295.52l1.11,31.17s-1.52,6.82,5.48,6.07c7-.76,16.43-6.27,21.74-12.33,5.3-6.06,4.94-6.54,2.67-10.52-2.27-3.98-12.94-34.28-12.94-34.28l-18.06,19.89Z"/>
      <path class="cls-18" d="M933.4,298.13l12.92-8.23s-5.72,25.12-11.96,36.78l-.95-28.55Z"/>
      <path class="cls-19" d="M898.57,248.88s-.21,31.02,13.18,46.63c8.73,10.18,17.91,8.83,33.22-7.93,14.04-15.37,16.01-23.38,16.01-23.38l-9.7-30.43s-51.14-13.12-52.72,15.11Z"/>
      <path class="cls-26" d="M911.89,241.68s5.61,13.61,16.02,17.42c10.41,3.8,13.13,10.88,13.13,10.88,0,0,2-11.64,10.18-11.22s6.52,14.87,1.44,19.66c0,0,6.11,11.33,11.29,19.71l22.69-22.52s-11.69-13.51-14.26-24.39c-2.57-10.87-10.89-39.98-42.6-38.05-37.23,2.26-35.09,32.52-33.51,49.32,0,0,11.68-4.48,15.62-20.82Z"/>
      <path class="cls-14" d="M915.92,285.91l9.05-4.44c0,.05,.02,.11,.02,.16,.06,.48,.09,1.13-.04,1.85-.25,1.4-1.12,3.11-3.69,4.21-1.65,.54-3.06,0-4.09-.7-.52-.35-.93-.74-1.21-1.05-.01-.01-.02-.03-.04-.04Z"/>
      <path class="cls-28" d="M906.06,273.32c1.14-.28,1.73-1.88,1.32-3.56s-1.68-2.82-2.83-2.54c-1.14,.28-1.73,1.88-1.32,3.56,.42,1.68,1.68,2.82,2.83,2.54Z"/>
      <path class="cls-28" d="M923.02,269.39c1.14-.28,1.73-1.88,1.32-3.56-.42-1.68-1.68-2.82-2.82-2.54-1.14,.28-1.73,1.88-1.32,3.56,.42,1.69,1.68,2.82,2.82,2.54Z"/>
      <path class="cls-28" d="M899.48,264.23l8.63-1.98c.14-.05,.27-.14,.35-.27,.08-.13,.11-.28,.08-.43-.1-.25-.24-.48-.43-.68-.19-.2-.41-.35-.66-.46-.25-.11-.52-.16-.79-.16-.27,0-.54,.06-.79,.16l-6.77,2.87c-.56,.14-.32,1.13,.38,.95Z"/>
      <path class="cls-28" d="M928.46,256.5l-11.24,3.52c-.08-.35-.08-.71,0-1.07,.07-.35,.22-.68,.43-.98,.21-.29,.48-.53,.79-.72s.65-.3,1.01-.34l8.98-1.17c.28-.07,.46,.64,.03,.74Z"/>
      <path class="cls-16" d="M912.11,267.68l-1.22,9.1,3.22,1.55"/>
      <path class="cls-2" d="M912.11,267.68l-1.22,9.1,3.22,1.55"/>
      <path class="cls-19" d="M920.67,427.26l-27.88,8-3.41,17.18,6.34,19.01s4.46-3,3.53-10c-.93-7,22.63-6.8,26.95-15.6"/>
      <path class="cls-21" d="M984.35,332.57s-.18-23.61,18.73-23.62c12.69,0,18.76,5.95,20.38,24.51,1.13,12.98,1.95,84.19,1.95,84.19,0,0,3.19,32.5-24.38,33.11l-79.6-2.38-1.8-22.24,69.39-6.92-4.67-86.65Z"/>
      <path class="cls-21" d="M926.79,329.62s7.18-2.04,6.01-9.09c-1.13-6.94-1.18-12.96,1.1-12.12,0,0,2.01,3.45,14.5-.38,12.41-3.69,11.63-7.94,11.63-7.94,0,0,1.76-1.56,3.07,2.44,1.31,3.99,4.64,15.05,11.66,14.26l1.9,20.61-37.38,12.31c-.08,.14-17.36-16.59-12.5-20.07Z"/>
      <path class="cls-9" d="M621.88,741h23.52"/>
      <path class="cls-11" d="M626.67,751.21h11.76"/>
      <path class="cls-3" d="M606.22,720.62l18.05-12.59,12.71,8.47,16.92-12.25"/>
      <path class="cls-3" d="M640.89,698.91h18v17.81"/>
      <path class="cls-29" d="M854,145.91h-69.76c-.85,.03-1.7-.13-2.48-.49-.78-.35-1.46-.88-1.99-1.55-.54-.66-.91-1.44-1.09-2.28-.18-.83-.16-1.7,.05-2.52l10.72-55.12c.41-1.88,1.44-3.58,2.92-4.81,1.48-1.24,3.33-1.95,5.25-2.03h69.75c.85-.03,1.7,.13,2.48,.49s1.46,.88,1.99,1.55c.54,.66,.91,1.45,1.09,2.28,.18,.83,.16,1.7-.05,2.53l-10.72,55.12c-.41,1.88-1.44,3.58-2.92,4.82-1.48,1.24-3.33,1.95-5.25,2.03Z"/>
      <path class="cls-17" d="M806.15,92.01h46.45c.33,0,.66,.06,.97,.19,.3,.14,.57,.34,.79,.6,.21,.26,.36,.56,.44,.88,.08,.33,.08,.66,0,.99l-.64,3.48c-.11,.5-.33,.98-.65,1.38-.32,.41-.73,.73-1.2,.95l-25.45,12.25c-.39,.21-.83,.32-1.28,.31-.45,0-.88-.11-1.27-.33l-20.93-12.62c-.38-.24-.68-.59-.85-1.01-.17-.42-.21-.88-.11-1.32l.57-3.11c.15-.73,.55-1.39,1.12-1.87,.57-.48,1.29-.75,2.04-.78Z"/>
      <path class="cls-17" d="M803.85,104.67l20.03,12.56c.27,.15,.58,.23,.89,.23s.62-.08,.89-.23l24.62-12.55c1.32-.68,2.66,.18,2.41,1.55l-3.66,20.01c-.28,1.32-.99,2.5-2.02,3.36-1.03,.86-2.32,1.35-3.67,1.4h-42.17c-.6,.02-1.19-.1-1.74-.34-.55-.24-1.03-.61-1.41-1.07-.38-.46-.65-1-.79-1.59-.14-.58-.14-1.19,0-1.77l3.66-20.01c.06-.32,.19-.62,.38-.88,.19-.26,.44-.47,.73-.62,.29-.15,.6-.23,.93-.24,.32,0,.64,.06,.94,.2Z"/>
      <path class="cls-34" d="M869.79,91.54c7.97,0,14.44-6.46,14.44-14.44s-6.46-14.44-14.44-14.44-14.44,6.46-14.44,14.44,6.46,14.44,14.44,14.44Z"/>
      <path class="cls-20" d="M870.8,396.43l11.97,17.78-6.38-30.38-5.59,12.6Z"/>
    </g>
  </g>
</svg>