<?xml version="1.0" encoding="UTF-8"?>
<svg id="Layer_1" data-name="Layer 1" xmlns="http://www.w3.org/2000/svg" xmlns:xlink="http://www.w3.org/1999/xlink" viewBox="0 0 1440 1024">
  <defs>
    <style>
      .cls-1, .cls-2 {
        stroke-width: 10.37px;
      }

      .cls-1, .cls-2, .cls-3, .cls-4, .cls-5, .cls-6 {
        fill: none;
        stroke: #fff;
        stroke-miterlimit: 10;
      }

      .cls-1, .cls-2, .cls-4, .cls-6 {
        stroke-linecap: round;
      }

      .cls-1, .cls-4 {
        isolation: isolate;
        opacity: .4;
      }

      .cls-7 {
        fill: url(#linear-gradient);
      }

      .cls-8 {
        fill: #fff;
      }

      .cls-9, .cls-10 {
        fill: #96bafd;
      }

      .cls-11 {
        fill: #bc775c;
      }

      .cls-12 {
        fill: #1f2d49;
      }

      .cls-13 {
        fill: #080b09;
      }

      .cls-14 {
        fill: #1c85e8;
      }

      .cls-15 {
        fill: #465393;
      }

      .cls-16 {
        fill: #5661ae;
      }

      .cls-17 {
        fill: #93523e;
        stroke: #93523e;
      }

      .cls-18 {
        opacity: .7;
      }

      .cls-3 {
        stroke-width: 1.36px;
      }

      .cls-4, .cls-6 {
        stroke-width: 7.43px;
      }

      .cls-5 {
        stroke-width: 2.43px;
      }

      .cls-10 {
        opacity: .7;
      }
    </style>
    <linearGradient id="linear-gradient" x1="609.32" y1="-2184.19" x2="633.93" y2="-2524.82" gradientTransform="translate(262 -1594.99) scale(1 -1)" gradientUnits="userSpaceOnUse">
      <stop offset="0" stop-color="#fff"/>
      <stop offset="1" stop-color="#94b9ff"/>
    </linearGradient>
  </defs>
  <path class="cls-11" d="M872.81,626.39h-184.21v89.46h184.21v-89.46Z"/>
  <path class="cls-12" d="M687.51,681.55c-21.6,21.26-30.1,125.94-28.97,184.62h257.17s-.46-127.95-19.96-171.06c-17.93-39.65-47.73,18.84-208.24-13.55Z"/>
  <path class="cls-12" d="M841.86,219.25s21.34-24.34,62.76-27.88c41.42-3.54,53.81,32.74,52.04,55.02-1.77,22.29-34.23,68.32-27.74,87.8,6.49,19.48-24.04,10.03-27.36-28.92-3.33-38.95-15.72-93.25-49.36-73.77l-10.34-12.25Z"/>
  <path class="cls-14" d="M848.34,207.85s5.1-2.96,8.8,3.94c3.7,6.9,10.6,20.9,1.85,24.62-8.75,3.71-10.65-28.56-10.65-28.56Z"/>
  <path class="cls-16" d="M730.02,432.17s33.09,37.14,22.08,49.05c-21.79,24.48-79.76,70.49-98.75,85.73-.82,.63-1.76,1.09-2.76,1.35-1,.26-2.04,.33-3.06,.19-1.02-.14-2.01-.48-2.9-1-.89-.52-1.67-1.22-2.29-2.04l-44.91-59.05c-1.76-2.27-2.57-5.13-2.29-7.99,.29-2.86,1.66-5.5,3.83-7.38l87-75.02,44.05,16.17Z"/>
  <path class="cls-15" d="M677.79,479.39s-41.23,24.51-44.95,73.75l8.21,10.55s5.16,8.99,12.3,3.26,40.2-32.2,40.2-32.2l-15.76-55.36Z"/>
  <path class="cls-16" d="M716.34,498.05c25.72,0,46.57-20.85,46.57-46.57s-20.85-46.57-46.57-46.57-46.57,20.85-46.57,46.57,20.85,46.57,46.57,46.57Z"/>
  <path class="cls-11" d="M595.07,597.47l-40.7-53.89,38.53-29.91,6.04-4.86,42.22,55.21-7.35,5.29-38.73,28.16Z"/>
  <path class="cls-17" d="M633.8,569.3c-10.9-14.6-31.4-43.12-40.9-55.63l6.04-4.86,42.11,54.88-7.24,5.62Z"/>
  <path class="cls-11" d="M574.1,604.94c18.67,0,33.81-15.14,33.81-33.81s-15.14-33.81-33.81-33.81-33.81,15.14-33.81,33.81,15.14,33.81,33.81,33.81Z"/>
  <path class="cls-11" d="M602.73,552.95s-109.06-160.16-114.1-173.76c-4.91-13.28-30.66,18.68-30.66,18.68l84.4,184.15,60.36-29.07Z"/>
  <path class="cls-11" d="M752.87,329.6l-13.11,91.4s-3.44,12.13,11.83,13.97c15.27,1.84,47.84-2.27,59.47-14.66,11.63-12.39,7.56-18.54,7.56-18.54l-24.67-99.21-41.09,27.04Z"/>
  <path class="cls-17" d="M751.04,341.43l32.07-11.33-39.73,58.88,7.66-47.56Z"/>
  <path class="cls-11" d="M716.58,216.7s-27.51,64.65-13.17,108.95c9.35,28.9,29.72,34.09,76.35,12.44,42.76-19.85,53.87-34.87,53.87-34.87l6.31-72.06s-95.41-72.07-123.35-14.45Z"/>
  <path class="cls-16" d="M739.52,394.73s-35.24,9.79-42.4,15.51c-7.15,5.72-12.35,52.23-22.93,75.2-15.65,34.01-25.78,52.1,.51,89.48,15.86,22.54,10.47,79.85,10.47,79.85h193.07c-5.85-112.69,20.04-245.53,20.04-245.53l-87.13-20.08c-19.65,3.39-71.62,5.56-71.62,5.56Z"/>
  <path class="cls-16" d="M733.36,396.55s2.61-17.71,10.93-18.96c8.33-1.25,59.23-8.9,67.14-5.57,7.92,3.33,17.5,24.53,17.5,24.53,0,0-16.25,39.64-39.58,41.72-23.33,2.08-63.49-5.11-59.25-19.85,4.25-14.74,3.25-21.87,3.25-21.87Z"/>
  <path class="cls-3" d="M717.51,401.93s5.63,34.18,36.21,33.65c30.58-.54,75.01-46.4,75.01-46.4"/>
  <path class="cls-15" d="M856.05,451.48s-30.38,20.09-21.43,40.36c10.06,22.79,9.98,81.49-18.91,85.17-51.53,6.56-29.14,15.58-5.32,21.33,23.83,5.76,14.07,5.76,14.07,30.45,0,17.57,55.21,32.8,53.78,18.61-9.6-94.98,30.31-155.12-22.2-195.92Z"/>
  <path class="cls-17" d="M714.13,311.81l25.59,1.27c-.09,.32-.23,.75-.43,1.25-.43,1.1-1.16,2.55-2.3,3.95-2.27,2.78-6.24,5.43-13.09,4.73-4.33-.83-6.79-3.74-8.18-6.49-.7-1.38-1.12-2.71-1.37-3.7-.1-.4-.17-.75-.22-1.02Z"/>
  <path class="cls-13" d="M715.82,269.32c1.07-3.96-.24-7.77-2.93-8.49s-5.74,1.9-6.81,5.86c-1.07,3.97,.24,7.77,2.93,8.49,2.69,.72,5.74-1.9,6.81-5.87Z"/>
  <path class="cls-13" d="M755.41,280.61c1.07-3.96-.24-7.77-2.94-8.49-2.69-.72-5.74,1.9-6.81,5.87-1.07,3.96,.24,7.77,2.93,8.49,2.69,.73,5.74-1.9,6.81-5.87Z"/>
  <path class="cls-13" d="M705.81,248.84l20.13,5.79c.35,.07,.71,0,1.02-.17s.54-.46,.66-.8c.09-.63,.05-1.28-.11-1.9-.17-.62-.45-1.2-.85-1.71-.39-.51-.89-.93-1.45-1.24-.56-.31-1.18-.5-1.82-.56l-17.29-1.82c-1.33-.36-1.95,1.96-.29,2.41Z"/>
  <path class="cls-13" d="M774.62,266.04l-27.3-5.59c.25-.81,.66-1.56,1.22-2.21,.55-.64,1.24-1.16,2.01-1.52,.77-.36,1.6-.56,2.45-.58s1.69,.14,2.48,.46l19.92,7.86c.66,.18,.22,1.84-.78,1.57Z"/>
  <path class="cls-17" d="M727.99,270.45l-12.95,17.43,4.88,6.89"/>
  <path class="cls-8" d="M752.07,460.66c2.51,0,4.54-5.61,4.54-12.54s-2.03-12.54-4.54-12.54-4.54,5.62-4.54,12.54,2.03,12.54,4.54,12.54Z"/>
  <path class="cls-11" d="M961.28,633.19l-67.3,5.52-11.49-48.78-13.84-37.51,70.83-8.48,8.85,41.98,12.95,47.27Z"/>
  <path class="cls-17" d="M941.86,555.28l2.48,11.77-69.75,1.5-4.59-12.43,71.86-.84Z"/>
  <path class="cls-16" d="M886.7,500.93c25.72,0,46.57-20.85,46.57-46.57s-20.85-46.57-46.57-46.57-46.57,20.85-46.57,46.57,20.85,46.57,46.57,46.57Z"/>
  <path class="cls-16" d="M877.72,432.46s49.08-8.06,53.25,7.62c9,31.52,20.07,82.11,22.77,106.31,.09,1.03-.02,2.07-.33,3.05-.31,.98-.82,1.9-1.48,2.69-.67,.79-1.48,1.44-2.4,1.91-.92,.47-1.92,.76-2.95,.84l-73.92,6.31c-2.86,.26-5.71-.57-7.98-2.35-2.26-1.77-3.76-4.34-4.18-7.18l-20.02-90.64,37.25-28.55Z"/>
  <path class="cls-12" d="M733.74,210.56s1.74,31.4,28.34,46.62c0,0,7.78,24.08,36.81,29.75,0,0-1.72-22.14,12.12-21.9,23.5,.4,11.94,36.04-3.95,41.89-10.8,3.97-17.3,18.08-1.27,50.22,36.8-13.12,62.67-66.13,52.53-124.93-8.12-47.09-66.5-62.47-78.5-60.94,0,0-49.81-17.21-76.04,29.99-22.42,40.35-1.48,64.43-1.48,64.43l11.95-35.91s4.99,3.51,19.49-19.21Z"/>
  <path class="cls-7" d="M961.53,749.55h-178.27c-3.45,0-6.78-1.26-9.36-3.54-2.58-2.28-4.25-5.43-4.68-8.85l-16.45-131.32c-.25-1.99-.07-4.01,.52-5.93,.59-1.92,1.58-3.69,2.91-5.19,1.33-1.5,2.96-2.71,4.79-3.53,1.83-.83,3.81-1.25,5.82-1.25h211.17c2.01,0,3.99,.43,5.82,1.25,1.83,.83,3.46,2.03,4.79,3.53,1.33,1.51,2.32,3.28,2.91,5.19,.59,1.92,.77,3.94,.52,5.93l-16.45,131.32c-.43,3.42-2.09,6.57-4.68,8.85-2.59,2.28-5.91,3.54-9.36,3.54Z"/>
  <path class="cls-8" d="M872.81,679.8c6.91,0,12.51-5.6,12.51-12.51s-5.6-12.51-12.51-12.51-12.51,5.6-12.51,12.51,5.6,12.51,12.51,12.51Z"/>
  <path class="cls-11" d="M462.6,408.39l-10.74-20.61s-37.98-21.73-42.39-29.58c-4.4-7.86-6.13-30.29,1.66-36.03,0,0-30.3-22.76-25.15-27.37,5.14-4.95,64.68,39.29,64.68,39.29,0,0-7.25-32.59,3.77-34.11,2.98,12.63,8.1,24.66,15.12,35.57,11.6,17.93,13.03,33.99,13.03,33.99l13.67,26.23-33.65,12.62Z"/>
  <path class="cls-17" d="M413.18,322.75l18.35,11.57"/>
  <path class="cls-17" d="M410.44,335.98l15.58,9.68"/>
  <path class="cls-17" d="M413.47,350.28l10.39,6.57"/>
  <path class="cls-10" d="M285.68,161.12c35.17,29.99,127.91,98.38,245.7,101.64,2.41,.07,4.69,1.08,6.37,2.81,1.68,1.73,2.61,4.05,2.61,6.46v186.63c0,2.38-.91,4.67-2.55,6.4-1.64,1.73-3.88,2.75-6.26,2.87-35.41,1.76-169.71,1.56-258.69-93.71-1.59-1.71-2.47-3.96-2.46-6.29V168.18c0-1.77,.51-3.51,1.46-5,.95-1.49,2.32-2.68,3.92-3.42,1.61-.74,3.4-1.01,5.15-.77,1.76,.24,3.4,.98,4.75,2.13Z"/>
  <path class="cls-6" d="M304.08,212.32s27.75,26.96,65.68,43.71"/>
  <path class="cls-4" d="M304.08,245.01s38.62,36.03,88.86,49.4"/>
  <path class="cls-8" d="M298.33,364.55v-77.96l27.33,19.56v79.84l-27.33-21.44Z"/>
  <path class="cls-8" d="M344.46,396.05v-55.54l27.33,16.35v54.91l-27.33-15.71Z"/>
  <path class="cls-8" d="M461.33,439.53v-55.54l-27.33-3.74v54.91l27.33,4.38Z"/>
  <path class="cls-8" d="M506.22,441.91v-97.25h-27.33v96.61l27.33,.64Z"/>
  <path class="cls-8" d="M389.23,420.38v-25.39l27.33,7.69v27.61l-27.33-9.9Z"/>
  <g class="cls-18">
    <path class="cls-9" d="M359.19,544.05c35.17,25.82,127.91,93.21,245.7,82.51,1.15-.13,2.31-.02,3.41,.33s2.11,.94,2.96,1.72c.85,.78,1.53,1.73,1.98,2.79,.45,1.06,.67,2.21,.64,3.36v186.63c-.06,2.47-.97,4.84-2.58,6.72-1.6,1.88-3.81,3.15-6.24,3.59-35.41,5.96-182.71,3.02-258.69-73.03-.79-.79-1.41-1.72-1.83-2.76-.42-1.03-.64-2.13-.63-3.25v-199.74c0-7.91,9.27-13.3,15.29-8.88Z"/>
  </g>
  <path class="cls-11" d="M925.23,744.19s9.42,.78,8,5.54c-1.42,4.75-9.83,2.56-17.51,7.31-7.68,4.76-38.05,8.15-53.21,5.62-15.17-2.53-19.38-18.47-19.38-18.47,0,0-2.54-15.13,24.26-16.68,26.79-1.55,39.26,7.04,43.92,16.36l13.93,.32Z"/>
  <path class="cls-17" d="M854.51,729.86l5.79,15.56"/>
  <path class="cls-17" d="M869.5,727.33l5.79,15.56"/>
  <path class="cls-17" d="M885.32,728.65l5.79,15.56"/>
  <path class="cls-8" d="M416.43,732.88c-19.62-6.92-35.53-28.44-35.53-48.06s15.91-29.92,35.53-23h0v-22.81h0c-31.7-11.18-57.4,5.46-57.4,37.16s25.7,66.47,57.4,77.64c30.36,10.71,55.2-4.11,57.25-33.24l-21.86-7.71c-1.54,17.65-16.8,26.57-35.39,20.01Z"/>
  <path class="cls-14" d="M423.72,634.29v22.81c19.62,6.92,35.53,28.44,35.53,48.06,0,1.03-.05,2.02-.14,2.99l21.86,7.71c.09-1.28,.15-2.59,.15-3.93,0-31.7-25.7-66.47-57.4-77.64Z"/>
  <path class="cls-5" d="M416.43,732.88v20.93"/>
  <path class="cls-5" d="M380.89,684.82l-21.87-7.71"/>
  <path class="cls-2" d="M508.48,688.08l40.58,7.71"/>
  <path class="cls-1" d="M508.48,751.67l40.58,7.71"/>
  <path class="cls-2" d="M508.48,720.52l58.31,11.08"/>
</svg>