<svg id="Layer_1" data-name="Layer 1" xmlns="http://www.w3.org/2000/svg" viewBox="0 0 25 25"><defs><style>.cls-1{fill:#ffffff;fill-rule:evenodd;}</style></defs><path class="cls-1" d="M4.49,4.34A14.52,14.52,0,0,0,8.37,16.63a14.52,14.52,0,0,0,12.29,3.88V16.19l-4.44-.74-.67,1.34a1,1,0,0,1-.89.55v0H14.5l-.33,0A7.06,7.06,0,0,1,13.09,17a8,8,0,0,1-3.14-2,8,8,0,0,1-2-3.14,7.06,7.06,0,0,1-.26-1.08,2.48,2.48,0,0,1,0-.33.41.41,0,0,1,0-.1v0h0a1,1,0,0,1,.45-.83L10.43,8,9,4.34Zm5.24,6.49,1.81-1.21a2,2,0,0,0,.75-2.4L10.84,3.6A2,2,0,0,0,9,2.34H4.44A1.91,1.91,0,0,0,2.53,4,16.53,16.53,0,0,0,7,18.05,16.53,16.53,0,0,0,21,22.47a1.91,1.91,0,0,0,1.62-1.91V16.19a2,2,0,0,0-1.67-2l-4.44-.73a2,2,0,0,0-2.11,1.07l-.35.7a3.55,3.55,0,0,1-.36-.11,6,6,0,0,1-2.36-1.51,6,6,0,0,1-1.51-2.36A3.45,3.45,0,0,1,9.73,10.83Z"/></svg>