<svg id="Layer_1" data-name="Layer 1" xmlns="http://www.w3.org/2000/svg" viewBox="0 0 25 25"><defs><style>.cls-1{fill:#ffffff;}</style></defs><path class="cls-1" d="M21.5,4.5H8.5v-2a.94.94,0,0,0-1-1c-1.7,0-5,1.3-5,6v5a.94.94,0,0,0,1,1h4a.94.94,0,0,0,1-1v-3h13a.94.94,0,0,0,1-1v-3A.94.94,0,0,0,21.5,4.5Zm-15,1v6h-2v-4c0-2.5,1.1-3.4,2-3.8Zm14,2H8.5v-1h12Z"/><path class="cls-1" d="M21.5,14.5H3.5a.94.94,0,0,0-1,1v4a.94.94,0,0,0,1,1H6.6l-.5,1.7a.74.74,0,0,0,.1.9,1.23,1.23,0,0,0,.8.4h9a1.8,1.8,0,0,0,.9-.4,1,1,0,0,0,.1-.9l-.6-1.7h2.1c3.2,0,4-3.3,4-5A.94.94,0,0,0,21.5,14.5Zm-3,4H14.9a.91.91,0,0,0-.8.4,1,1,0,0,0-.1.9l.6,1.7H8.4l.5-1.7a.94.94,0,0,0-.1-.9,1.23,1.23,0,0,0-.8-.4H4.5v-2H20.4C20.2,17.4,19.7,18.5,18.5,18.5Z"/></svg>