<svg id="Layer_1" data-name="Layer 1" xmlns="http://www.w3.org/2000/svg" viewBox="0 0 25 25"><defs><style>.cls-1{fill:#ffffff;}</style></defs><path class="cls-1" d="M20.5,3.5H4.5a2,2,0,0,0-2,2v11a2,2,0,0,0,2,2H9.09l2.7,2.71a1,1,0,0,0,1.42,0l2.7-2.71H20.5a2,2,0,0,0,2-2V5.5A2,2,0,0,0,20.5,3.5Zm0,13h-5a1,1,0,0,0-.71.29l-2.29,2.3-2.29-2.3a1,1,0,0,0-.71-.29h-5V5.5h16Z"/><circle class="cls-1" cx="12.5" cy="11" r="1.5"/><circle class="cls-1" cx="16.5" cy="11" r="1.5"/><circle class="cls-1" cx="8.5" cy="11" r="1.5"/></svg>