<?xml version="1.0" encoding="UTF-8"?>
<svg id="Layer_1" data-name="Layer 1" xmlns="http://www.w3.org/2000/svg" xmlns:xlink="http://www.w3.org/1999/xlink" viewBox="0 0 240 138">
  <defs>
    <style>
      .cls-1 {
        fill: none;
      }

      .cls-2 {
        clip-path: url(#clippath);
      }

      .cls-3 {
        fill: #fff;
      }

      .cls-4 {
        fill: #219653;
      }
    </style>
    <clipPath id="clippath">
      <rect class="cls-1" width="240" height="138"/>
    </clipPath>
  </defs>
  <g class="cls-2">
    <g>
      <path class="cls-3" d="M93.2,17.25v1.75h-6.79v-1.75h6.79Zm-6.17-11.05v12.8h-2.21V6.2h2.21Zm5.28,5.34v1.72h-5.91v-1.72h5.91Zm.84-5.34v1.76h-6.75v-1.76h6.75Zm3.25,3.29l1.81,3.16,1.85-3.16h2.33l-2.88,4.67,3,4.84h-2.33l-1.93-3.29-1.93,3.29h-2.34l2.99-4.84-2.87-4.67h2.32Zm11.14,8c.35,0,.66-.07,.93-.2,.28-.14,.51-.33,.68-.58,.18-.25,.27-.53,.29-.85h1.99c-.01,.62-.19,1.17-.54,1.68-.35,.5-.82,.91-1.4,1.2-.58,.29-1.22,.44-1.92,.44s-1.36-.12-1.9-.37c-.54-.25-.99-.6-1.35-1.04-.36-.44-.63-.95-.81-1.52-.18-.57-.26-1.19-.26-1.85v-.31c0-.66,.09-1.27,.26-1.85,.18-.58,.45-1.09,.81-1.53,.36-.44,.81-.78,1.35-1.03,.54-.25,1.17-.38,1.89-.38,.76,0,1.43,.15,2,.46,.57,.3,1.03,.72,1.35,1.26,.33,.53,.51,1.15,.52,1.86h-1.99c-.02-.35-.11-.67-.26-.95-.15-.29-.37-.52-.65-.69-.28-.17-.61-.25-.99-.25-.43,0-.78,.09-1.06,.26-.28,.17-.5,.4-.66,.7-.16,.29-.27,.62-.34,.99-.06,.36-.1,.74-.1,1.13v.31c0,.39,.03,.77,.1,1.14,.06,.37,.18,.7,.33,.99,.16,.29,.39,.52,.67,.69,.28,.17,.64,.25,1.07,.25Zm9.71,1.69c-.7,0-1.34-.11-1.91-.34-.56-.23-1.04-.56-1.44-.98-.39-.42-.69-.91-.9-1.47-.21-.56-.32-1.17-.32-1.82v-.35c0-.74,.11-1.42,.33-2.02,.22-.6,.52-1.12,.91-1.55,.39-.43,.84-.76,1.37-.99,.53-.23,1.1-.34,1.71-.34,.68,0,1.27,.11,1.78,.34,.51,.23,.93,.55,1.27,.97,.34,.41,.59,.9,.76,1.47,.17,.57,.25,1.2,.25,1.88v.91h-7.35v-1.52h5.26v-.17c-.01-.38-.09-.74-.23-1.07-.14-.33-.34-.6-.62-.81-.28-.21-.66-.31-1.12-.31-.35,0-.67,.08-.94,.23-.27,.15-.49,.36-.68,.64-.18,.28-.32,.62-.42,1.02-.09,.39-.14,.84-.14,1.33v.35c0,.42,.06,.8,.17,1.16,.12,.35,.29,.66,.51,.92,.22,.26,.49,.47,.81,.62,.32,.15,.68,.22,1.08,.22,.51,0,.96-.1,1.36-.31,.4-.21,.74-.5,1.04-.87l1.12,1.08c-.21,.3-.47,.59-.8,.86-.33,.27-.73,.49-1.2,.66-.47,.17-1.01,.25-1.63,.25Zm7.72-13.68v13.5h-2.13V5.5h2.13Zm4.59,0v13.5h-2.13V5.5h2.13Zm6.51,13.68c-.7,0-1.34-.11-1.91-.34-.56-.23-1.04-.56-1.44-.98-.39-.42-.69-.91-.9-1.47-.21-.56-.32-1.17-.32-1.82v-.35c0-.74,.11-1.42,.33-2.02,.22-.6,.52-1.12,.9-1.55,.39-.43,.84-.76,1.37-.99,.53-.23,1.1-.34,1.71-.34,.68,0,1.27,.11,1.78,.34,.51,.23,.93,.55,1.27,.97,.34,.41,.59,.9,.76,1.47,.17,.57,.25,1.2,.25,1.88v.91h-7.35v-1.52h5.26v-.17c-.01-.38-.09-.74-.23-1.07-.14-.33-.34-.6-.62-.81-.28-.21-.66-.31-1.12-.31-.35,0-.66,.08-.94,.23-.27,.15-.5,.36-.68,.64-.18,.28-.32,.62-.42,1.02-.09,.39-.14,.84-.14,1.33v.35c0,.42,.06,.8,.17,1.16,.12,.35,.29,.66,.51,.92,.22,.26,.49,.47,.81,.62,.32,.15,.68,.22,1.08,.22,.51,0,.96-.1,1.36-.31,.4-.21,.74-.5,1.04-.87l1.12,1.08c-.21,.3-.47,.59-.8,.86-.33,.27-.73,.49-1.2,.66-.47,.17-1.01,.25-1.63,.25Zm7.56-7.66v7.48h-2.12V9.49h1.99l.12,2.03Zm-.38,2.37h-.68c0-.68,.1-1.3,.28-1.86,.19-.56,.44-1.05,.77-1.45,.33-.4,.73-.71,1.19-.93,.46-.22,.98-.33,1.55-.33,.46,0,.87,.06,1.24,.19,.38,.12,.69,.33,.96,.61,.27,.28,.48,.65,.62,1.1,.14,.45,.21,.99,.21,1.64v6.14h-2.13v-6.15c0-.46-.07-.82-.2-1.08-.13-.27-.32-.46-.57-.57-.25-.12-.55-.18-.92-.18s-.69,.08-.98,.23c-.29,.15-.53,.36-.73,.62-.19,.26-.34,.57-.45,.91-.11,.35-.16,.71-.16,1.11Zm12.66-4.4v1.55h-5.36v-1.55h5.36Zm-3.81-2.33h2.12v9.21c0,.29,.04,.52,.12,.68,.09,.15,.21,.25,.36,.31,.15,.05,.33,.08,.54,.08,.15,0,.29,0,.42-.03,.13-.02,.24-.04,.32-.05v1.62c-.17,.05-.37,.1-.61,.14-.23,.04-.49,.06-.79,.06-.49,0-.92-.09-1.29-.25-.38-.18-.67-.46-.88-.85-.21-.39-.32-.91-.32-1.56V7.16Z"/>
      <path class="cls-4" d="M40,34H0v40H40V34Z"/>
      <path class="cls-3" d="M20,60.96l6.08-1.54,2.54,7.83-8.62-6.29Zm14-10.12h-10.71l-3.29-10.08-3.29,10.08H6l8.67,6.25-3.29,10.08,8.67-6.25,5.33-3.83,8.62-6.25Z"/>
      <path class="cls-4" d="M90,34H50v40h40V34Z"/>
      <path class="cls-3" d="M70,60.96l6.08-1.54,2.54,7.83-8.62-6.29Zm14-10.12h-10.71l-3.29-10.08-3.29,10.08h-10.71l8.67,6.25-3.29,10.08,8.67-6.25,5.33-3.83,8.62-6.25Z"/>
      <path class="cls-4" d="M140,34h-40v40h40V34Z"/>
      <path class="cls-3" d="M120,60.96l6.08-1.54,2.54,7.83-8.62-6.29Zm14-10.12h-10.71l-3.29-10.08-3.29,10.08h-10.71l8.67,6.25-3.29,10.08,8.67-6.25,5.33-3.83,8.62-6.25Z"/>
      <path class="cls-4" d="M190,34h-40v40h40V34Z"/>
      <path class="cls-3" d="M170,60.96l6.08-1.54,2.54,7.83-8.62-6.29Zm14-10.12h-10.71l-3.29-10.08-3.29,10.08h-10.71l8.67,6.25-3.29,10.08,8.67-6.25,5.33-3.83,8.62-6.25Z"/>
      <path class="cls-4" d="M240,34h-40v40h40V34Z"/>
      <path class="cls-3" d="M220,60.96l6.08-1.54,2.54,7.83-8.62-6.29Zm14-10.12h-10.71l-3.29-10.08-3.29,10.08h-10.71l8.67,6.25-3.29,10.08,8.67-6.25,5.33-3.83,8.62-6.25Z"/>
      <path class="cls-3" d="M56.41,93.21h-2.8v-.71s2.4,0,2.4,0c.49,0,.91-.07,1.26-.21,.35-.14,.61-.35,.79-.63,.18-.28,.27-.63,.27-1.04s-.09-.77-.27-1.04c-.18-.28-.44-.48-.8-.62-.36-.13-.8-.2-1.34-.2h-2.09v9.23h-.84v-9.95h2.93c.51,0,.96,.05,1.36,.15,.4,.1,.74,.26,1.03,.47,.28,.21,.5,.49,.64,.81,.15,.32,.23,.71,.23,1.16,0,.41-.09,.78-.27,1.11-.18,.33-.44,.6-.77,.81-.33,.21-.72,.33-1.18,.38l-.53,.27Zm-.06,4.79h-3.01l.43-.72h2.58c.49,0,.91-.08,1.26-.25,.35-.17,.62-.41,.81-.72,.19-.31,.28-.68,.28-1.11,0-.38-.08-.72-.25-1.02-.16-.3-.41-.54-.75-.71-.34-.18-.77-.27-1.29-.27h-1.74v-.71h2.48l.15,.25c.45,.05,.84,.18,1.17,.42,.34,.23,.6,.52,.78,.87,.19,.35,.28,.74,.28,1.16,0,.6-.13,1.11-.4,1.53-.26,.41-.64,.73-1.11,.95-.47,.21-1.03,.32-1.66,.32Zm9.53-1.33v-3.81c0-.35-.07-.65-.22-.91-.15-.26-.36-.45-.64-.59-.28-.14-.63-.21-1.05-.21-.38,0-.72,.07-1.03,.21-.3,.13-.53,.31-.7,.54-.17,.22-.25,.47-.25,.75h-.82c0-.28,.07-.55,.21-.81,.14-.26,.33-.49,.58-.7,.25-.21,.55-.37,.9-.49,.35-.12,.74-.18,1.16-.18,.53,0,.99,.09,1.39,.27,.41,.18,.72,.44,.95,.8,.23,.36,.34,.8,.34,1.34v3.58c0,.26,.02,.52,.05,.79,.04,.27,.1,.5,.17,.68v.08h-.87c-.05-.16-.1-.37-.13-.62-.03-.25-.04-.49-.04-.71Zm.19-2.98v.63s-1.59,0-1.59,0c-.42,0-.8,.04-1.13,.12-.33,.07-.61,.18-.83,.33-.23,.14-.4,.31-.53,.51-.12,.2-.18,.43-.18,.68s.07,.51,.2,.72c.14,.22,.33,.39,.57,.53,.25,.13,.55,.19,.89,.19,.46,0,.86-.08,1.2-.25,.35-.17,.64-.39,.87-.66,.23-.27,.38-.57,.46-.9l.36,.47c-.06,.23-.17,.46-.33,.7-.15,.24-.36,.46-.61,.67-.25,.21-.55,.37-.89,.51-.34,.13-.72,.19-1.15,.19-.48,0-.9-.09-1.26-.27-.36-.18-.63-.43-.83-.75-.2-.32-.29-.68-.29-1.08,0-.36,.08-.69,.23-.98,.15-.29,.38-.54,.67-.74,.3-.21,.65-.36,1.07-.46,.42-.11,.89-.16,1.41-.16h1.7Zm7.25,2.42c0-.2-.05-.4-.15-.59-.1-.2-.29-.38-.58-.54-.28-.16-.7-.3-1.25-.42-.41-.09-.78-.19-1.1-.31-.32-.11-.59-.25-.81-.41-.22-.16-.39-.35-.5-.57-.11-.22-.17-.49-.17-.79,0-.27,.06-.53,.18-.77,.12-.25,.3-.46,.52-.64,.23-.19,.5-.33,.82-.44,.32-.1,.69-.16,1.09-.16,.57,0,1.06,.1,1.46,.29,.41,.19,.72,.45,.94,.79,.22,.33,.33,.71,.33,1.13h-.81c0-.26-.08-.5-.23-.72-.15-.23-.36-.41-.65-.56-.28-.15-.63-.22-1.04-.22s-.77,.06-1.03,.19c-.26,.13-.46,.29-.58,.49-.12,.2-.18,.4-.18,.61,0,.16,.03,.31,.08,.45,.05,.13,.15,.26,.29,.37,.14,.11,.34,.22,.6,.32,.26,.1,.6,.2,1.01,.29,.6,.13,1.08,.29,1.46,.49,.38,.19,.67,.42,.85,.7,.18,.27,.27,.61,.27,1,0,.31-.06,.59-.19,.84-.13,.25-.31,.47-.55,.65-.24,.18-.52,.32-.86,.42-.33,.1-.71,.15-1.12,.15-.62,0-1.15-.1-1.59-.31-.43-.21-.75-.48-.98-.82-.22-.34-.33-.7-.33-1.09h.81c.03,.38,.15,.69,.36,.91,.21,.22,.48,.37,.79,.46,.31,.09,.62,.14,.93,.14,.42,0,.77-.06,1.05-.18,.28-.12,.5-.28,.64-.49,.15-.2,.22-.42,.22-.65Zm5.52,2.02c-.48,0-.93-.09-1.33-.27-.4-.18-.75-.43-1.05-.75-.3-.32-.53-.71-.69-1.15-.16-.45-.24-.93-.24-1.46v-.29c0-.57,.08-1.08,.25-1.54,.17-.46,.4-.85,.7-1.18,.3-.33,.63-.58,1.01-.75,.38-.18,.78-.27,1.2-.27,.47,0,.89,.08,1.25,.25,.36,.16,.67,.4,.92,.7,.25,.3,.44,.66,.57,1.07,.13,.41,.19,.86,.19,1.36v.5h-5.6v-.7h4.79v-.1c0-.41-.09-.8-.25-1.16-.15-.36-.39-.66-.7-.89-.31-.23-.7-.34-1.16-.34-.35,0-.67,.07-.96,.22-.29,.15-.54,.36-.75,.63-.21,.27-.36,.59-.48,.96-.11,.37-.16,.78-.16,1.23v.29c0,.41,.06,.79,.18,1.15,.12,.35,.3,.66,.52,.93,.23,.27,.5,.48,.81,.63,.31,.15,.65,.23,1.03,.23,.44,0,.82-.08,1.16-.24,.34-.16,.64-.42,.91-.77l.51,.4c-.16,.24-.36,.46-.6,.66-.24,.2-.52,.36-.85,.48s-.72,.18-1.16,.18Zm9.19-1.57v-9.06h.82v10.5h-.77l-.05-1.44Zm-5.13-2.19v-.14c0-.57,.07-1.09,.2-1.55,.13-.46,.32-.86,.57-1.19,.25-.33,.55-.59,.9-.76,.35-.18,.75-.27,1.19-.27s.82,.07,1.15,.21c.33,.14,.62,.34,.85,.61,.24,.26,.44,.58,.58,.94,.15,.36,.26,.77,.33,1.22v1.83c-.05,.42-.15,.8-.3,1.16-.15,.35-.34,.65-.58,.91-.24,.26-.53,.45-.88,.59-.34,.14-.73,.21-1.17,.21s-.83-.09-1.18-.27c-.35-.18-.65-.44-.9-.77-.25-.34-.44-.74-.57-1.2-.13-.46-.2-.97-.2-1.52Zm.82-.14v.14c0,.43,.04,.83,.13,1.2,.09,.37,.22,.69,.4,.96,.18,.27,.4,.49,.68,.64,.27,.15,.6,.23,.97,.23,.47,0,.86-.09,1.18-.27,.32-.18,.57-.42,.77-.72,.19-.3,.33-.63,.42-.98v-2.13c-.05-.24-.13-.49-.24-.74-.1-.25-.25-.48-.43-.69-.18-.21-.41-.39-.68-.51-.27-.13-.61-.2-1-.2s-.7,.08-.98,.23c-.27,.15-.5,.37-.68,.65-.18,.27-.31,.59-.4,.96-.09,.37-.13,.77-.13,1.2Zm10.25,.18v-.23c0-.54,.08-1.03,.23-1.49,.15-.46,.38-.85,.66-1.18,.29-.33,.64-.59,1.05-.77,.41-.19,.86-.28,1.35-.28s.95,.09,1.36,.28c.41,.18,.75,.44,1.05,.77,.29,.33,.52,.73,.67,1.18,.15,.46,.23,.95,.23,1.49v.23c0,.54-.08,1.03-.23,1.49-.15,.45-.38,.84-.67,1.18-.29,.33-.63,.59-1.04,.78-.41,.18-.86,.27-1.35,.27s-.95-.09-1.36-.27c-.41-.19-.75-.45-1.05-.78-.29-.33-.51-.72-.67-1.18-.15-.46-.23-.95-.23-1.49Zm.81-.23v.23c0,.41,.05,.79,.16,1.16,.11,.36,.27,.68,.48,.96,.21,.28,.47,.5,.78,.66s.67,.24,1.07,.24,.75-.08,1.06-.24c.31-.16,.57-.38,.78-.66,.21-.28,.37-.6,.47-.96,.11-.36,.16-.75,.16-1.16v-.23c0-.4-.05-.78-.16-1.14-.1-.36-.26-.68-.48-.96-.21-.28-.47-.51-.78-.67s-.67-.25-1.07-.25-.76,.08-1.07,.25c-.31,.16-.57,.39-.78,.67-.21,.28-.37,.6-.48,.96-.1,.36-.16,.74-.16,1.14Zm8.3-2.01v5.82h-.81v-7.4h.78l.03,1.58Zm-.18,1.66l-.36-.21c.03-.44,.12-.85,.27-1.23,.15-.38,.35-.72,.61-1.01,.26-.29,.56-.52,.91-.68,.35-.16,.74-.25,1.16-.25,.37,0,.7,.05,.99,.15,.29,.1,.54,.26,.75,.48,.21,.22,.36,.5,.46,.84,.11,.34,.16,.76,.16,1.25v4.81h-.82v-4.82c0-.51-.07-.91-.21-1.2-.14-.29-.34-.5-.6-.62-.26-.12-.57-.18-.92-.18-.39,0-.74,.09-1.03,.26-.29,.17-.54,.39-.74,.66-.2,.27-.35,.56-.45,.87-.1,.31-.16,.6-.17,.88Zm17.14,.44v1.55h-7.17l-.1-1.2,4.15-6.58h1.56l-1.69,2.84-2.07,3.4h5.31Zm-1.13-6.23v9.95h-1.97v-9.95h1.97Zm4.05,5.42l-1.57-.38,.57-5.04h5.59v1.59h-3.97l-.25,2.21c.13-.08,.33-.16,.6-.25,.27-.09,.57-.14,.9-.14,.48,0,.91,.08,1.28,.23,.37,.15,.69,.37,.95,.66,.26,.29,.46,.64,.6,1.05,.14,.41,.21,.88,.21,1.41,0,.44-.07,.86-.21,1.26-.14,.4-.34,.75-.62,1.07-.28,.31-.63,.55-1.05,.73-.42,.18-.92,.27-1.49,.27-.43,0-.84-.06-1.24-.19-.4-.13-.75-.32-1.07-.57-.31-.25-.57-.55-.76-.91-.19-.36-.28-.77-.29-1.23h1.96c.03,.28,.1,.53,.22,.73,.12,.2,.28,.36,.49,.46,.2,.11,.43,.16,.7,.16,.25,0,.47-.05,.64-.14,.18-.1,.32-.23,.43-.4,.11-.17,.19-.37,.24-.6,.06-.23,.08-.48,.08-.75s-.03-.51-.1-.73c-.06-.22-.16-.41-.29-.57-.13-.16-.3-.28-.51-.37-.2-.09-.43-.13-.7-.13-.37,0-.65,.06-.85,.17-.2,.11-.36,.24-.49,.39Zm11.27-5.52h.29v1.57h-.12c-.52,0-.98,.08-1.39,.23-.41,.15-.75,.38-1.03,.66-.28,.28-.49,.62-.64,1.03-.15,.4-.22,.85-.22,1.35v1.65c0,.36,.03,.67,.1,.94,.07,.27,.18,.49,.31,.68,.14,.18,.3,.31,.48,.4,.18,.09,.39,.13,.62,.13,.21,0,.41-.05,.58-.14,.18-.09,.33-.22,.45-.38,.13-.17,.22-.36,.29-.59,.07-.23,.1-.48,.1-.75s-.03-.52-.1-.75c-.06-.23-.16-.42-.29-.59-.13-.17-.28-.3-.46-.39-.18-.09-.39-.14-.62-.14-.31,0-.58,.07-.82,.22-.23,.14-.42,.32-.55,.55-.13,.22-.2,.46-.21,.7l-.6-.38c.01-.35,.09-.68,.22-1,.14-.31,.32-.59,.56-.83,.24-.25,.53-.44,.87-.57,.34-.14,.72-.21,1.14-.21,.46,0,.87,.09,1.22,.27,.36,.18,.65,.42,.89,.73,.24,.31,.42,.67,.53,1.07,.12,.41,.18,.84,.18,1.3,0,.48-.08,.93-.24,1.35-.15,.41-.38,.78-.68,1.09-.29,.31-.64,.55-1.05,.72-.41,.17-.87,.26-1.38,.26s-1.01-.1-1.44-.29c-.43-.2-.8-.47-1.11-.82-.31-.35-.55-.77-.72-1.25-.16-.48-.25-1.01-.25-1.59v-.77c0-.8,.12-1.54,.35-2.2,.24-.67,.58-1.25,1.02-1.74,.44-.49,.97-.87,1.6-1.14,.62-.27,1.33-.4,2.11-.4Zm8.5,4.27v5.78h-1.97v-7.4h1.85l.12,1.61Zm2.23-1.66l-.03,1.83c-.1-.01-.21-.03-.35-.03-.13-.01-.25-.02-.36-.02-.28,0-.52,.04-.72,.11-.2,.07-.37,.17-.51,.31-.13,.14-.23,.3-.3,.5-.06,.2-.1,.42-.11,.67l-.4-.12c0-.48,.05-.92,.14-1.32,.1-.41,.24-.76,.42-1.06,.19-.3,.41-.53,.68-.7,.27-.16,.58-.25,.92-.25,.11,0,.22,0,.34,.03,.11,.01,.21,.03,.28,.06Zm4.2,7.58c-.57,0-1.09-.09-1.54-.27-.46-.19-.84-.44-1.16-.77-.31-.33-.56-.71-.72-1.14-.17-.44-.25-.9-.25-1.39v-.27c0-.56,.08-1.07,.24-1.54,.16-.46,.39-.87,.68-1.21,.3-.34,.67-.6,1.09-.79,.43-.19,.91-.28,1.45-.28s.99,.09,1.39,.26c.41,.17,.74,.42,1.02,.74,.28,.32,.49,.7,.63,1.15,.14,.44,.21,.93,.21,1.48v.82h-5.88v-1.31h3.94v-.15c0-.27-.05-.52-.15-.73-.1-.22-.24-.39-.44-.52-.2-.13-.45-.19-.75-.19-.26,0-.48,.06-.67,.17-.19,.11-.34,.27-.46,.48-.11,.21-.2,.45-.26,.72-.05,.27-.08,.57-.08,.9v.27c0,.3,.04,.57,.12,.82,.09,.25,.21,.47,.36,.65,.16,.18,.35,.32,.57,.42,.23,.1,.49,.15,.77,.15,.36,0,.69-.07,.99-.21,.31-.14,.58-.35,.8-.64l.96,1.04c-.15,.22-.37,.44-.64,.64-.26,.21-.58,.37-.96,.51-.37,.13-.8,.19-1.28,.19Zm6.58-1.57l1.64-5.96h2.06l-2.5,7.4h-1.24l.04-1.44Zm-1.13-5.96l1.65,5.97,.03,1.43h-1.25l-2.49-7.4h2.07Zm7.79,0v7.4h-1.98v-7.4h1.98Zm-2.1-1.93c0-.29,.1-.52,.3-.71,.2-.19,.47-.28,.81-.28s.6,.09,.8,.28c.21,.19,.31,.42,.31,.71s-.1,.52-.31,.71c-.2,.19-.47,.28-.8,.28s-.61-.09-.81-.28c-.2-.19-.3-.42-.3-.71Zm7.13,9.46c-.57,0-1.09-.09-1.54-.27-.46-.19-.84-.44-1.16-.77-.31-.33-.56-.71-.73-1.14-.17-.44-.25-.9-.25-1.39v-.27c0-.56,.08-1.07,.24-1.54,.16-.46,.39-.87,.68-1.21,.3-.34,.67-.6,1.09-.79,.43-.19,.91-.28,1.45-.28s.99,.09,1.39,.26c.4,.17,.75,.42,1.02,.74,.28,.32,.49,.7,.63,1.15,.14,.44,.21,.93,.21,1.48v.82h-5.88v-1.31h3.94v-.15c0-.27-.05-.52-.15-.73-.1-.22-.24-.39-.44-.52-.2-.13-.45-.19-.75-.19-.26,0-.48,.06-.67,.17-.19,.11-.34,.27-.46,.48-.11,.21-.2,.45-.26,.72-.06,.27-.08,.57-.08,.9v.27c0,.3,.04,.57,.12,.82,.09,.25,.21,.47,.36,.65,.16,.18,.35,.32,.57,.42,.23,.1,.49,.15,.77,.15,.36,0,.69-.07,.99-.21,.31-.14,.58-.35,.8-.64l.96,1.04c-.15,.22-.37,.44-.64,.64-.26,.21-.58,.37-.96,.51-.37,.13-.8,.19-1.28,.19Zm6.27-2.05l1.54-5.48h1.25l-.4,2.15-1.54,5.24h-1.05l.2-1.91Zm-.78-5.48l1.1,5.48,.1,1.92h-1.23l-1.87-7.4h1.9Zm4.98,5.39l1.07-5.39h1.91l-1.87,7.4h-1.22l.12-2.01Zm-1.24-5.39l1.53,5.44,.21,1.96h-1.05l-1.54-5.24-.39-2.16h1.24Zm9.21,5.35c0-.14-.04-.27-.12-.38-.08-.11-.24-.22-.46-.31-.22-.1-.54-.19-.95-.27-.37-.08-.72-.18-1.05-.31-.32-.13-.6-.28-.83-.46-.23-.18-.41-.39-.55-.63-.13-.25-.2-.53-.2-.84s.07-.6,.2-.88c.14-.27,.33-.51,.58-.72,.26-.21,.57-.38,.93-.5,.37-.12,.78-.18,1.24-.18,.64,0,1.19,.1,1.65,.31,.46,.21,.82,.49,1.07,.85,.25,.36,.38,.76,.38,1.22h-1.97c0-.19-.04-.36-.12-.51-.08-.15-.2-.28-.37-.36-.16-.09-.38-.14-.64-.14-.22,0-.41,.04-.57,.12-.16,.07-.28,.17-.37,.3-.08,.12-.12,.26-.12,.41,0,.11,.02,.22,.07,.31,.05,.09,.13,.17,.24,.24,.11,.07,.25,.14,.42,.2,.18,.06,.4,.11,.66,.16,.53,.11,1.01,.25,1.43,.43,.42,.17,.75,.41,1,.71,.25,.3,.37,.69,.37,1.17,0,.33-.07,.63-.22,.9-.15,.27-.36,.51-.63,.72-.27,.2-.6,.36-.98,.47-.38,.11-.8,.16-1.28,.16-.69,0-1.27-.12-1.75-.37-.47-.25-.83-.56-1.08-.94-.24-.38-.36-.77-.36-1.18h1.87c0,.27,.08,.49,.21,.65,.13,.16,.3,.28,.5,.36,.21,.07,.43,.11,.66,.11,.26,0,.47-.03,.64-.1,.17-.07,.3-.17,.38-.29,.09-.12,.14-.26,.14-.42Z"/>
      <path class="cls-3" d="M108.9,99.37h79.38v.68H108.9v-.68Z"/>
      <path class="cls-4" d="M83,131.3l5.51-1.4,2.3,7.09-7.81-5.7Zm12.68-9.17h-9.7l-2.98-9.13-2.98,9.13h-9.7l7.85,5.66-2.98,9.13,7.85-5.66,4.83-3.47,7.81-5.66Z"/>
      <path class="cls-3" d="M105.78,118.62v11.38h-2.34v-11.38h2.34Zm3.5,0v1.84h-9.28v-1.84h9.28Zm2.9,4.77v6.61h-2.25v-8.45h2.12l.13,1.84Zm2.55-1.9l-.04,2.09c-.11-.02-.24-.03-.4-.04-.15-.02-.29-.02-.41-.02-.32,0-.59,.04-.83,.12-.23,.08-.42,.19-.58,.35-.15,.16-.26,.35-.34,.57-.07,.22-.11,.48-.12,.77l-.45-.14c0-.55,.06-1.05,.16-1.51,.11-.46,.27-.87,.48-1.21,.21-.34,.47-.61,.78-.8,.31-.19,.66-.28,1.06-.28,.12,0,.25,.01,.38,.03,.13,.02,.24,.04,.32,.07Zm6.06,6.49v-6.43h2.25v8.45h-2.12l-.13-2.02Zm.25-1.74h.66c0,.55-.07,1.07-.2,1.56-.13,.48-.33,.9-.59,1.25-.26,.35-.59,.62-.98,.82-.4,.19-.86,.29-1.4,.29-.41,0-.79-.06-1.14-.17-.34-.12-.64-.3-.89-.55-.24-.26-.44-.58-.58-.98-.14-.4-.2-.88-.2-1.44v-5.46h2.25v5.48c0,.25,.03,.46,.09,.63,.06,.17,.15,.31,.26,.42,.11,.11,.24,.19,.38,.23,.15,.05,.32,.07,.5,.07,.46,0,.83-.09,1.09-.28,.27-.19,.46-.44,.57-.77,.11-.33,.17-.69,.17-1.09Zm8.29,1.42c0-.16-.05-.31-.14-.44-.09-.13-.27-.25-.52-.36-.25-.11-.61-.22-1.09-.31-.43-.09-.83-.21-1.2-.35-.36-.15-.68-.32-.95-.52-.26-.2-.47-.44-.62-.72-.15-.28-.23-.6-.23-.96s.07-.69,.23-1c.16-.31,.38-.59,.66-.83,.29-.24,.65-.43,1.06-.57,.42-.14,.9-.21,1.42-.21,.73,0,1.36,.12,1.89,.35,.53,.24,.94,.56,1.22,.97,.29,.41,.43,.87,.43,1.39h-2.25c0-.22-.05-.41-.14-.59-.09-.18-.23-.32-.42-.41-.19-.1-.43-.16-.73-.16-.25,0-.47,.04-.65,.13-.18,.08-.32,.2-.42,.34-.09,.14-.14,.3-.14,.47,0,.13,.03,.25,.08,.35,.06,.1,.15,.19,.27,.27,.12,.08,.29,.16,.49,.23,.2,.07,.45,.13,.75,.19,.61,.12,1.15,.29,1.63,.49,.48,.2,.86,.47,1.14,.81,.28,.34,.42,.78,.42,1.34,0,.38-.08,.72-.25,1.03-.17,.31-.41,.59-.72,.82-.31,.23-.69,.41-1.12,.54-.43,.12-.92,.19-1.46,.19-.79,0-1.45-.14-2-.42-.54-.28-.95-.64-1.23-1.07-.28-.44-.41-.89-.41-1.34h2.13c.01,.31,.09,.56,.23,.74,.15,.19,.34,.32,.57,.41,.23,.08,.49,.12,.76,.12,.29,0,.53-.04,.73-.12,.19-.08,.34-.19,.44-.33,.1-.14,.16-.3,.16-.48Zm7.79-6.12v1.59h-4.92v-1.59h4.92Zm-3.7-2.09h2.25v7.99c0,.24,.03,.43,.09,.56,.07,.13,.17,.22,.3,.27,.13,.05,.29,.07,.49,.07,.14,0,.27,0,.38-.01,.11-.02,.21-.03,.29-.05v1.66c-.18,.06-.39,.11-.62,.15-.22,.04-.47,.05-.74,.05-.49,0-.93-.08-1.3-.24-.36-.17-.65-.43-.84-.8-.2-.36-.3-.84-.3-1.44v-8.22Zm7.23,3.71v10.08h-2.25v-11.7h2.09l.16,1.62Zm5.35,2.51v.16c0,.61-.07,1.18-.22,1.71-.14,.53-.35,.98-.62,1.37-.28,.39-.62,.69-1.03,.91-.41,.21-.88,.32-1.41,.32s-.96-.1-1.34-.31c-.38-.21-.7-.5-.96-.88-.26-.38-.46-.82-.62-1.32-.16-.5-.28-1.04-.36-1.61v-.43c.08-.61,.2-1.18,.36-1.69,.16-.52,.36-.96,.62-1.34,.26-.38,.58-.67,.95-.88,.38-.21,.82-.31,1.34-.31,.54,0,1.01,.1,1.41,.3,.41,.2,.75,.5,1.03,.88,.28,.38,.49,.83,.63,1.36,.15,.53,.22,1.11,.22,1.75Zm-2.26,.16v-.16c0-.36-.03-.69-.09-.99-.06-.31-.15-.58-.28-.81-.12-.23-.29-.41-.5-.53-.2-.13-.45-.2-.74-.2-.31,0-.57,.05-.79,.15-.21,.1-.39,.24-.52,.43-.13,.19-.24,.41-.3,.67-.07,.26-.11,.56-.12,.88v1.09c.03,.39,.1,.73,.22,1.04,.12,.3,.31,.54,.56,.72,.25,.18,.58,.26,.98,.26,.3,0,.55-.07,.75-.19,.2-.14,.37-.32,.49-.56,.13-.23,.22-.51,.27-.81,.06-.31,.09-.64,.09-.99Zm6.03-4.3v8.45h-2.26v-8.45h2.26Zm-2.4-2.2c0-.33,.11-.6,.34-.81,.23-.21,.54-.32,.92-.32s.68,.11,.91,.32c.24,.21,.35,.49,.35,.81s-.12,.6-.35,.81c-.23,.21-.53,.32-.91,.32s-.69-.11-.92-.32c-.23-.21-.34-.48-.34-.81Zm6.63-1.34v12h-2.26v-12h2.26Zm1.5,7.86v-.16c0-.62,.09-1.19,.27-1.71,.18-.53,.43-.98,.77-1.37,.34-.38,.76-.68,1.25-.9,.49-.22,1.06-.33,1.7-.33s1.21,.11,1.71,.33c.5,.21,.92,.51,1.26,.9,.34,.39,.6,.84,.78,1.37,.18,.52,.26,1.09,.26,1.71v.16c0,.61-.09,1.18-.26,1.71-.18,.52-.44,.98-.78,1.37-.34,.38-.76,.68-1.25,.9-.49,.21-1.06,.32-1.7,.32s-1.21-.11-1.71-.32c-.49-.21-.91-.51-1.26-.9-.34-.39-.6-.85-.77-1.37-.18-.53-.27-1.1-.27-1.71Zm2.25-.16v.16c0,.35,.03,.68,.09,.99,.06,.31,.16,.58,.3,.81,.14,.23,.32,.41,.55,.54,.22,.13,.5,.19,.82,.19s.58-.07,.81-.19c.22-.13,.4-.31,.54-.54,.14-.23,.23-.51,.3-.81,.07-.31,.1-.64,.1-.99v-.16c0-.34-.03-.67-.1-.97-.06-.31-.16-.58-.31-.81-.13-.24-.32-.43-.54-.56-.22-.14-.49-.2-.81-.2s-.59,.07-.81,.2c-.22,.14-.4,.32-.54,.56-.13,.23-.23,.5-.3,.81-.06,.3-.09,.62-.09,.97Zm11.28-4.15v1.59h-4.92v-1.59h4.92Zm-3.7-2.09h2.25v7.99c0,.24,.03,.43,.09,.56,.07,.13,.17,.22,.3,.27,.13,.05,.29,.07,.49,.07,.14,0,.27,0,.38-.01,.11-.02,.21-.03,.29-.05v1.66c-.18,.06-.39,.11-.62,.15-.22,.04-.47,.05-.74,.05-.49,0-.93-.08-1.3-.24-.36-.17-.65-.43-.84-.8-.2-.36-.3-.84-.3-1.44v-8.22Z"/>
    </g>
  </g>
</svg>